<?xml version="1.0" encoding="UTF-8" standalone="no"?>
<svg
   xmlns:dc="http://purl.org/dc/elements/1.1/"
   xmlns:cc="http://creativecommons.org/ns#"
   xmlns:rdf="http://www.w3.org/1999/02/22-rdf-syntax-ns#"
   xmlns:svg="http://www.w3.org/2000/svg"
   xmlns="http://www.w3.org/2000/svg"
   xmlns:sodipodi="http://sodipodi.sourceforge.net/DTD/sodipodi-0.dtd"
   xmlns:inkscape="http://www.inkscape.org/namespaces/inkscape"
   inkscape:version="1.0 (4035a4fb49, 2020-05-01)"
   sodipodi:docname="1zF_Logo_rubberstamp-min.svg"
   id="svg4"
   version="1.1"
   viewBox="0 0 174.47016 66.145258"
   height="249.99898"
   width="659.41541">
  <metadata
     id="metadata10">
    <rdf:RDF>
      <cc:Work
         rdf:about="">
        <dc:format>image/svg+xml</dc:format>
        <dc:type
           rdf:resource="http://purl.org/dc/dcmitype/StillImage" />
        <dc:title></dc:title>
      </cc:Work>
    </rdf:RDF>
  </metadata>
  <defs
     id="defs8" />
  <sodipodi:namedview
     inkscape:current-layer="svg4"
     inkscape:window-maximized="1"
     inkscape:window-y="3"
     inkscape:window-x="-11"
     inkscape:cy="124.99926"
     inkscape:cx="329.70551"
     inkscape:zoom="1.9350602"
     fit-margin-bottom="0"
     fit-margin-right="0"
     fit-margin-left="0"
     fit-margin-top="0"
     showgrid="false"
     id="namedview6"
     inkscape:window-height="1526"
     inkscape:window-width="2880"
     inkscape:pageshadow="2"
     inkscape:pageopacity="0"
     guidetolerance="10"
     gridtolerance="10"
     objecttolerance="10"
     borderopacity="1"
     bordercolor="#666666"
     pagecolor="#ffffff" />
  <path
     id="path2"
     fill="#00000f"
     d="M 99.412,6.96628e-5 C 98.671,0.00506966 97.867,0.08406966 97.056,0.27006966 l -0.208,0.056 c -0.21,0.173 -0.384,0.394 -0.537,0.641 -0.13,-0.117 -0.26,-0.24 -0.39,-0.36 0.012,-0.014 0.02,-0.03 0.032,-0.044 -0.706,0.187 -1.412,0.373 -2.121,0.56300004 0.26,0.353 0.384,0.758 0.368,1.215 -0.02,0.542 -0.24,1.008 -0.66,1.4 a 1.937,1.937 0 0 1 -1.443,0.532 1.936,1.936 0 0 1 -1.4,-0.635 2.04,2.04 0 0 1 -0.508,-1.442 c 0.001,-0.024 0.005,-0.047 0.007,-0.07 1.222,-0.346 2.434,-0.679 3.636,-1 a 2.16,2.16 0 0 0 -0.19,-0.22800004 1.991,1.991 0 0 0 -1.4,-0.635 1.99,1.99 0 0 0 -0.392,0.024 c -0.32,0.322 -0.596,0.697 -0.894,1.04200004 l -0.511,-0.024 a 1.895,1.895 0 0 0 -0.25,0.82 c -1.212,0.344 -2.433,0.698 -3.68,1.084 -0.388,0.168 -0.359,0.632 -0.064,0.766 l 2.986,1.022 c 0.1,0.061 0.162,0.5 -0.367,0.447 -1.609,-0.501 -3.3,-0.905 -5.62,-0.575 -4.364,0.76 -4.854,1.299 -6.104,1.828 -1.205,0.572 -2.858,1.69 -5.004,3.5400003 l -0.64,1.083 a 450.139,450.139 0 0 0 -2.01,3.429 102.587,102.587 0 0 0 -1.844,3.346 l 0.026,0.143 c 0.927,-0.08 1.858,-0.18 2.796,-0.308 2.268,-0.307 3.462,-0.465 3.58,-0.475 a 6.684,6.684 0 0 1 -0.06,0.514 2.93,2.93 0 0 0 0.005,0.357 c 0.007,0.084 0.025,0.202 0.054,0.352 0.047,0.15 0.095,0.315 0.144,0.498 l -6.094,0.506 c 0.04,0.12 0.065,0.2 0.042,0.202 l -0.576,0.098 c -0.154,0.078 -0.134,0.285 0.129,0.447 l 1.34,0.83 c 0.057,0.034 -0.035,0.274 0,0.384 1.49,0.941 4.645,1.966 4.79,2.067 -0.006,0.155 1.475,4.812 1.47,7.194 -0.128,1.236 -0.119,1.327 -0.384,1.596 -0.213,0.179 -0.361,0.284 -0.766,0.457 -0.683,0.287 -1.322,0.614 -2.172,0.437 -1.988,-0.675 -4.162,-1.404 -6.862,-1.242 -3.554,0.446 -5.822,2.137 -7.855,3.757 -0.67,0.59 -1.262,1.275 -1.774,2.055 0.059,-0.01 0.118,-0.022 0.181,-0.038 l -0.269,0.173 c -0.862,1.358 -1.484,3.003 -1.843,4.964 a 18.173,18.173 0 0 0 -0.244,2.084 l 0.098,-0.094 0.159,0.276 c -0.024,0.027 -0.05,0.053 -0.073,0.08 l 0.084,-0.06 c 0.145,0.252 0.276,0.487 0.41,0.724 -0.096,0.09 -0.19,0.182 -0.285,0.272 -0.041,0.108 -0.09,0.213 -0.137,0.319 l -0.27,0.285 c 0.004,0.073 0.005,0.146 0.01,0.218 l 0.047,-0.035 c -0.015,0.031 -0.028,0.063 -0.042,0.095 0.102,1.513 0.421,2.983 0.964,4.41 l 0.106,0.192 -0.021,0.02 -0.015,-0.022 a 17,17 0 0 0 1.99,3.626 c 2.44,2.608 4.782,4.34 7.93,5.377 2.784,0.77 5.36,0.072 7.748,-1.128 1.724,-1.19 3.175,-2.483 4.219,-3.93 H 77.7 v 0.32 l 0.466,0.407 0.557,0.487 3.64,-0.064 c -0.032,0.639 -0.237,1.37 -0.096,1.916 l 0.282,0.1 c 0.36,0.089 1.401,-0.001 2.931,-0.413 1.137,-0.401 1.297,-0.589 1.736,-0.9 v -0.64 l 0.839,0.129 c 0.275,0.014 0.818,-0.152 1.014,-0.383 a 0.72,0.72 0 0 0 0,-0.855 c -0.216,-0.264 -0.58,-0.39 -0.894,-0.487 -0.34,-0.043 -0.562,-0.12 -1.47,0 -1.624,-1.165 -1.659,-1.134 -2.625,-1.916 l 0.39,-0.766 v -2.953 l 14.499,-14.994 v 1.915 c -4.576,2.6 -6.163,5.538 -7.025,8.56 -1.106,4.518 -0.919,6.516 0,10.026 0.964,2.98 2.816,5.678 5.204,7.616 l -0.008,-0.105 0.107,-0.128 c 0.334,0.233 0.487,0.303 0.31,0.084 -0.063,-0.077 -0.13,-0.148 -0.196,-0.22 l 0.06,-0.07 c 0.027,0.035 0.053,0.072 0.083,0.108 -0.01,0.046 0,0.09 0.046,0.132 a 0.619,0.619 0 0 0 0.176,0.102 c 0.153,0.146 0.338,0.286 0.544,0.421 -0.054,0.086 -0.111,0.173 -0.163,0.257 l -0.094,0.073 c 0.62,0.433 1.27,0.818 1.945,1.143 0.204,-0.159 0.406,-0.324 0.604,-0.498 l 0.541,0.46 -0.165,0.233 -0.148,0.17 c 0.156,0.062 0.312,0.122 0.47,0.178 0.138,0.04 0.275,0.076 0.412,0.115 l 0.093,-0.132 0.107,0.09 -0.062,0.08 c 1.32,0.363 2.618,0.613 3.897,0.72 -0.017,-0.108 -0.032,-0.22 -0.048,-0.333 l 0.037,-0.027 c 0.122,-0.095 0.239,-0.195 0.353,-0.298 0.118,0.121 0.239,0.24 0.356,0.362 l 0.077,0.093 -0.084,0.243 c 3.03,0.13 5.963,-0.559 8.873,-2.407 3.962,-3.359 5.314,-5.986 5.82,-9.324 -0.03,0.007 -0.062,0.013 -0.095,0.023 l 0.088,-0.087 0.015,0.018 c 0.09,-0.6 0.155,-1.22 0.2,-1.874 a 28.549,28.549 0 0 0 -0.099,-2.617 c -0.02,0.04 -0.039,0.082 -0.058,0.123 0.009,-0.143 0.02,-0.286 0.028,-0.429 l 0.001,0.001 c -0.366,-3.654 -1.557,-6.424 -3.978,-9.28 a 9.58,9.58 0 0 0 -1.926,-1.83 c -0.048,0.113 -0.093,0.229 -0.141,0.343 l -0.214,-0.319 -0.013,-0.165 0.064,-0.074 a 13.268,13.268 0 0 0 -1.894,-1.057 c 0.072,0.107 0.144,0.215 0.218,0.322 l -0.06,0.081 c -0.041,-0.05 -0.127,-0.148 -0.165,-0.193 -0.075,-0.088 -0.146,-0.18 -0.22,-0.27 l 0.028,-0.026 c -2.598,-1.152 -5.682,-1.675 -8.552,-1.763 0.098,-0.375 -0.714,-1.207 -1.106,-1.397 l -1.832,-0.519 c -0.211,0.03 -0.261,-1.029 -0.258,-1.491 l 0.001,-0.289 c -0.014,-0.264 -0.066,-0.7 -0.015,-0.766 l 0.574,-0.243 c 0.096,-0.058 0.173,-0.083 0.345,-0.332 0.039,-0.083 0.354,0.013 0.42,0.135 0.169,0.046 0.177,-0.172 0.219,-0.286 0.048,-0.356 -0.187,-1.156 -0.376,-1.702 -0.017,-0.068 0.099,-0.418 0.287,-0.742 0.068,-0.106 0.23,-0.295 0.416,-0.024 0.19,0.241 0.465,0.522 0.639,0.83 0.067,0.11 0.338,2.408 0.439,2.303 l 0.519,-2.303 c 0.04,-0.072 3.448,2.173 4.875,3.231 -0.325,-0.14 -1.357,0.266 -1.458,0.442 -0.156,0.166 -0.007,0.666 0.414,0.67 h 2.108 c 0.258,0.007 1.425,-0.409 1.533,-0.383 l 0.333,0.168 c 0.108,0.075 0.517,-0.006 0.657,-0.072 l 1.64,-1.373 0.276,-0.064 0.098,-0.052 c 0.096,-0.064 0.156,-0.284 0.253,-0.446 0.138,0.037 0.285,-0.035 0.431,-0.189 0.204,0.14 0.279,-0.285 0.216,-0.359 l -1.116,-1.302 c -0.17,-0.13 0.036,-0.848 0.278,-1.037 0.192,-0.217 1.1,-0.684 1.207,-0.601 0.05,0.025 0.26,1.327 0.39,2.07 0.027,0.112 0.078,0.259 0.141,0.396 l 0.351,-0.498 0.028,-0.037 c 0.039,-1.209 0.03,-3.237 -0.01,-3.438 0,-0.204 -0.24,-0.79 -0.638,-1.127 -0.297,-0.317 -0.556,-0.113 -0.623,-0.07 -0.254,0.176 -0.88,1.04 -0.974,1.006 l -3.819,-0.418 -0.305,0.542 c -0.036,-0.054 -0.075,-0.112 -0.111,-0.163 0.08,-0.12 0.157,-0.24 0.237,-0.358 l 0.029,-0.037 -4.59,-0.502 c -0.442,0 -2.654,-2.11 -4.052,-4.716 0.228,-0.052 0.462,-0.112 0.707,-0.183 l 0.077,-0.988 a 4.225,4.225 0 0 1 -1.128,0.092 2.316,2.316 0 0 1 -0.18,-0.022 c 0.154,0.374 0.331,0.742 0.524,1.1 -0.755,0.173 -1.414,0.24 -1.971,0.196 -1.216,-0.094 -2.046,-0.55 -2.493,-1.365 -0.372,-0.675 -0.507,-1.67 -0.405,-2.987 l 0.527,-6.7870003 -1.722,-0.134 c 0.046,-0.149 0.074,-0.3 0.086,-0.451 0.012,-0.152 0.02,-0.27 0.028,-0.355 l 0.02,-0.278 c 0.008,-0.085 0.014,-0.17 0.02,-0.254 a 1.11,1.11 0 0 1 -0.029,-0.282 l 1.722,0.134 0.223,-2.862 c 0.435,-0.136 1.001,-0.33 1.7,-0.582 0.7,-0.251 1.338,-0.49 1.916,-0.717 l -0.344,4.432 2.153,0.167 c -0.03,0.15 -0.059,0.31 -0.089,0.477 l -0.025,0.33 -0.03,0.38 c 0.01,0.107 0.016,0.196 0.019,0.27 l 0.256,0.164 a 0.887,0.887 0 0 0 -0.257,-0.003 v 0.002 h -0.01 c -0.03,0.004 -0.062,0.005 -0.092,0.013 a 0.29,0.29 0 0 0 -0.148,0.09 c 0.019,-0.04 0.04,-0.079 0.06,-0.118 l -1.962,-0.152 -0.198,2.5430003 c 0.12,-0.119 0.271,-0.231 0.435,-0.27 l 0.472,0.011 c 0.111,-0.09 0.219,-0.182 0.315,-0.285 l 0.039,0.043 -0.234,0.245 0.076,0.002 c 0.265,-0.02 0.521,-0.038 0.598,-0.564 -0.035,-0.243 -0.05,-1.1300003 0.038,-1.2030003 0.037,-0.102 1.243,-0.375 2.134,-0.936 a 4.252,4.252 0 0 1 -0.138,0.714 l 1.866,0.23 -1.308,10.6130003 c 0.187,0.006 0.434,0.011 0.74,0.014 0.307,0.004 0.645,0.029 1.015,0.074 0.151,0.019 0.518,0.09 1.1,0.213 0.135,0.016 0.342,0.059 0.624,0.128 l 1.308,-10.614 2.37,0.292 c 0.015,-0.4070003 0.032,-0.6780003 0.049,-0.8120003 0.008,-0.068 0.02,-0.177 0.04,-0.328 0.037,-0.166 0.074,-0.324 0.11,-0.473 l -2.547,-0.314 c -0.072,-0.228 -0.136,-0.459 -0.2,-0.69 -0.06,0.094 -0.134,0.214 -0.19,0.3 -0.262,0.278 -0.564,0.539 -0.815,0.823 l -0.083,-0.088 c 0.381,-0.437 0.715,-0.803 1.052,-1.16 a 20.983,20.983 0 0 1 -0.236,-0.958 c -0.189,-0.825 -0.264,-1.389 -0.227,-1.691 a 0.575,0.575 0 0 1 0.198,-0.36 l 0.17,-0.132 c 0.189,-0.147 0.376,-0.218 0.563,-0.212 0.206,-0.01 0.494,0.01 0.864,0.055 a 2.98,2.98 0 0 1 1.034,0.332 c 0.353,0.18 0.719,0.396 1.097,0.647 l 0.343,-0.086 c 0.008,-0.203 0.026,-0.414 0.053,-0.633 l 0.087,-0.706 c 0.008,-0.067 0.048,-0.318 0.118,-0.753 0.073,-0.452 0.152,-0.817 0.237,-1.097 a 6.779,6.779 0 0 0 -0.528,-0.15 l -0.239,0.288 c -0.602,0.268 -1.28,0.855 -1.77,1.31 l 0.09,-0.131 c 0.346,-0.536 0.716,-1.056 1.077,-1.583 a 4.82,4.82 0 0 0 -0.475,-0.022 3.764,3.764 0 0 0 -1.262,0.22 l -0.493,0.67 a 1.046,1.046 0 0 0 -0.351,-0.139 c 0.09,-0.088 0.183,-0.176 0.275,-0.261 -0.632,0.368 -1.253,0.958 -1.865,1.777 a 9.256,9.256 0 0 0 -1.1,1.861 c -0.267,0.65 -0.51,1.37 -0.727,2.163 l -1.11,-0.137 c -0.161,0.318 -0.464,0.584 -0.816,0.805 l 0.01,-0.06 0.036,-0.303 c 0.01,-0.084 0.015,-0.262 0.015,-0.535 l 0.755,0.093 c 0.037,-0.073 0.068,-0.149 0.089,-0.227 0.256,-0.723 0.432,-2.306 0.15,-3.826 -0.241,-1.125 -1.2,-2.521 -3.344,-3.37500004 -1.004,-0.333 -2.282,-0.468 -3.516,-0.4619999972 z M 101.865,18.68207 a 10.318,10.318 0 0 1 -0.184,-0.464 9.716,9.716 0 0 1 -0.629,-2.806 l -0.07,0.916 c -0.065,0.828 -0.043,1.424 0.064,1.789 0.111,0.308 0.384,0.496 0.819,0.565 z m -48.175,26.726 -0.208,0.149 -10e-4,0.032 0.122,-0.086 z m 14.158,-27.313 a 5.355,5.355 0 0 1 -0.083,-1.434 c 0.822,-3.553 3.007,-4.978 3.193,-5.195 0.486,-0.446 0.941,-0.847 1.383,-1.228 l 1.327,-2.2420003 -0.082,-0.987 -10.328,0.857 c 0.006,0.068 0.04,0.176 0.104,0.323 0.049,0.183 0.08,0.359 0.094,0.527 0.008,0.102 10e-4,0.221 -0.021,0.359 -0.006,0.136 -0.017,0.307 -0.034,0.513 0.422,-0.035 1.262,-0.147 2.521,-0.337 a 50.56,50.56 0 0 1 3.28,-0.4 263.96,263.96 0 0 1 -2.862,5.1310003 223.908,223.908 0 0 1 -2.97,5.064 l 0.087,1.038 3.75,-0.311 -0.381,-0.398 0.132,-0.195 0.41,0.58 0.93,-0.078 c -0.084,-0.243 -0.255,-0.706 -0.387,-1.288 l -0.117,-0.148 -0.03,0.003 0.014,-0.025 -0.097,-0.123 0.029,-0.042 0.088,0.127 0.05,-0.09 z M 99.326,0.87506966 c 0.31,0.34700004 0.625,0.69100004 0.94,1.03400004 -0.339,-0.11 -0.862,-0.21 -1.435,-0.296 z M 96.879,1.2480697 c -0.025,0.045 -0.05,0.091 -0.073,0.138 l -0.023,-0.002 -0.036,-0.033 0.132,-0.104 z m -38.531,0.214 c -0.182,0.042 -0.422,0.1 -0.72,0.175 -0.24,0.061 -0.512,0.112 -0.8,0.157 l 0.19,0.187 c -0.158,0.186 -0.325,0.381 -0.459,0.532 -0.152,0.186 -0.302,0.374 -0.454,0.561 l -0.046,-0.123 c 0.2,-0.363 0.328,-0.698 0.032,-0.745 a 0.926,0.926 0 0 0 -0.304,0.003 13.241,13.241 0 0 0 -0.11,-0.295 c -0.285,0.011 -0.562,0.021 -0.802,0.025 l 0.465,3.38 0.208,-0.26 c 0.097,0.089 0.193,0.18 0.291,0.268 0.034,-0.083 0.076,-0.163 0.123,-0.238 l -0.048,-0.05 0.064,0.023 -0.016,0.027 0.079,0.082 c 0.09,0.16 0.184,0.32 0.275,0.479 -0.018,0.004 -0.036,0.005 -0.054,0.01 a 0.108,0.108 0 0 0 -0.04,0.018 c -0.127,-0.117 -0.254,-0.234 -0.383,-0.35 -0.11,0.273 -0.14,0.575 -0.037,0.818 0.023,0.054 0.049,0.107 0.073,0.16 -0.086,0.059 -0.172,0.12 -0.259,0.176 -0.015,-0.016 -0.032,-0.032 -0.047,-0.05 -0.028,-0.014 -0.055,-0.033 -0.083,-0.049 L 57.503,21.06407 c 0.123,-0.028 0.31,-0.075 0.484,-0.118 l -0.044,-0.056 0.044,-0.029 0.05,0.073 0.185,-0.046 c 0.298,-0.075 0.631,-0.137 1,-0.188 0.064,-0.01 0.188,-0.019 0.33,-0.03 a 87.431,87.431 0 0 1 -0.525,-0.563 l 0.002,-0.002 c 0.104,-0.08 0.21,-0.161 0.313,-0.244 l 0.294,0.012 c 0.191,0.253 0.384,0.504 0.576,0.757 l 0.128,-0.007 a 5.92,5.92 0 0 1 0.636,-0.037 L 59.112,7.0220697 a 52.67,52.67 0 0 0 -0.296,0.2 l 0.054,-0.081 c 0.076,-0.08 0.15,-0.162 0.225,-0.243 l -0.367,-2.673 c -0.116,-0.013 -0.24,-0.024 -0.348,-0.04 a 74.9,74.9 0 0 0 0.272,-0.507 z m -0.16,0.36 c -0.051,0.115 -0.1,0.23 -0.15,0.346 l -0.074,-0.074 0.224,-0.271 z m 53.648,0.05 -0.597,0.99 a 3.406,3.406 0 0 0 -0.166,-0.13 c 0.206,-0.232 0.41,-0.466 0.616,-0.699 0.048,-0.054 0.098,-0.107 0.147,-0.16 z m -17.374,0.646 c 0.175,0.2 0.349,0.399 0.525,0.597 -0.287,-0.037 -0.574,-0.071 -0.86,-0.108 z m 0.915,0.003 0.1,0.005 0.005,0.005 c -0.11,0.18 -0.229,0.348 -0.364,0.491 -0.144,-0.033 -0.022,-0.222 0.26,-0.5 z m -37.79,0.031 0.196,0.2 c -0.11,0.252 -0.22,0.502 -0.334,0.751 l -0.918,0.437 -0.033,-0.066 c 0.36,-0.443 0.724,-0.882 1.088,-1.322 z m 30.98,0.649 0.707,0.09 -0.293,0.348 c -0.054,-0.014 -0.069,0.016 -0.06,0.072 l -0.054,0.066 c -0.186,0 -0.372,0 -0.56,-0.002 0.086,-0.192 0.172,-0.384 0.26,-0.575 z m 10.655,0.02 c 0.015,0.07 0.127,0.14 0.252,0.21 a 0.212,0.212 0 0 0 0.041,0.105 l -0.081,0.11 -0.392,-0.326 c 0.06,-0.032 0.12,-0.064 0.18,-0.099 z m -41.64,0.185 c 0.013,0.004 0.024,0.011 0.036,0.016 l -0.072,0.034 c 0.012,-0.016 0.029,-0.035 0.037,-0.05 z m 29.487,0.174 -0.016,0.035 -0.008,-0.01 z m -29.71,0.112 -0.07,0.15 c -0.001,-0.043 0.027,-0.094 0.07,-0.15 z m 36.324,0.16 0.242,0.03 a 7.661,7.661 0 0 1 -0.27,0.031 l 0.028,-0.062 z m 11.3,0.099 c 0.166,0.117 0.336,0.23 0.508,0.345 -0.14,-0.007 -0.28,-0.015 -0.42,-0.025 l -0.183,-0.169 c 0.031,-0.05 0.065,-0.1 0.095,-0.151 z m 4.493,0.598 0.026,0.013 -0.056,0.077 -0.042,-0.009 0.071,-0.081 z m 20.946,0.356 -4.575,16.7050003 0.022,-0.016 0.06,0.06 -0.022,0.023 c -0.02,-0.022 -0.042,-0.042 -0.061,-0.062 l -0.522,1.908 c 0.184,0.033 0.427,0.073 0.73,0.121 0.303,0.048 0.634,0.121 0.993,0.22 0.147,0.04 0.5,0.163 1.058,0.368 0.131,0.036 0.33,0.108 0.6,0.217 l 1.542,-5.635 c 0.367,-1.339 0.696,-2.25 0.986,-2.732 0.589,-0.998 1.373,-1.362 2.353,-1.094 l 0.058,0.02 0.024,-0.027 0.395,0.08 0.072,0.16 c 0.46,0.28 0.731,0.73 0.809,1.35 0.025,0.207 0.024,0.456 0,0.742 0.055,-0.08 0.11,-0.158 0.166,-0.236 0.115,0.212 0.223,0.412 0.344,0.632 -0.104,-0.01 -0.207,-0.02 -0.31,-0.032 l -0.004,-0.007 a 0.419,0.419 0 0 0 -0.21,-0.205 c -0.057,0.544 -0.196,1.215 -0.416,2.018 l -1.67,6.1 c 0.184,0.032 0.427,0.073 0.73,0.121 0.303,0.048 0.635,0.12 0.994,0.22 0.147,0.04 0.5,0.163 1.057,0.368 0.131,0.036 0.331,0.108 0.6,0.217 l 2.153,-7.864 c 0.197,-0.719 0.295,-1.333 0.294,-1.842 0,-0.51 -0.158,-1.026 -0.47,-1.551 -0.513,-0.876 -1.269,-1.48 -2.264,-1.818 l -0.49,0.711 a 1.65,1.65 0 0 1 -0.07,0.01 5.779,5.779 0 0 0 -0.186,-0.131 c 0.175,-0.22 0.346,-0.442 0.52,-0.662 l -0.069,-0.022 c -0.637,-0.174 -1.351,-0.16 -2.145,0.045 a 6.32,6.32 0 0 0 -2.003,0.873 l 1.393,-5.0880003 c -0.086,0.123 -0.134,0.225 -0.119,0.287 -0.187,0.334 -0.379,0.6660003 -0.57,0.9990003 -0.165,0.193 -0.332,0.384 -0.498,0.575 a 7.063,7.063 0 0 0 -0.84,-0.491 c 0.428,-0.6420003 0.85,-1.2860003 1.267,-1.9350003 0.137,-0.428 0.573,-0.969 0.785,-1.425 l 0.465,0.201 0.364,-1.329 -0.016,-0.008 0.025,-0.025 0.052,-0.189 a 39.418,39.418 0 0 0 -0.73,-0.12 9.238,9.238 0 0 1 -0.994,-0.22 c -0.147,-0.04 -0.398,-0.118 -0.753,-0.232 a 44.171,44.171 0 0 1 -0.904,-0.353 z m -72.58,0.41 c 0.178,0.012 0.357,0.024 0.538,0.034 -0.163,0.235 -0.325,0.47 -0.486,0.706 l -0.098,0.03 -0.256,-0.282 0.302,-0.489 z m 38.777,0.583 0.03,0.051 c -0.175,0.16 -0.351,0.327 -0.528,0.494 l -0.474,0.271 -0.097,-0.02 0.46,-0.742 z m 34.39,0.456 c 0.189,0.08 0.378,0.164 0.567,0.246 -0.432,0.274 -0.859,0.673 -1.234,0.931 -0.097,0.067 -0.19,0.138 -0.281,0.212 0.404,-0.41 0.806,-0.806 0.497,-0.643 -0.052,0.027 -0.1,0.055 -0.151,0.083 0.208,-0.286 0.39,-0.535 0.602,-0.83 z m -34.031,0.144 0.063,0.104 a 0.674,0.674 0 0 0 -0.045,0.335 1.09,1.09 0 0 0 -0.013,0.025 c -0.11,-0.08 -0.22,-0.147 -0.328,-0.198 l 0.187,-0.18 z m -15.11,0.076 c 1.88,-0.03 3.252,0.558 4.118,1.763 0.762,1.055 1.158,2.5740003 1.19,4.5550003 l -3.409,0.053 0.503,0.674 -0.092,0.128 c -0.125,-0.159 -0.254,-0.315 -0.378,-0.475 l -0.249,-0.323 -3.64,0.057 c 0.024,1.473 0.287,2.587 0.79,3.34 0.59,0.906 1.529,1.349 2.815,1.328 0.018,0 0.035,-0.003 0.053,-0.003 a 13.576,13.576 0 0 1 -1.046,-0.539 c -0.045,-0.544 0.012,-0.989 0.048,-1.453 0.293,-0.088 0.68,-0.11 1.1,-0.106 0.422,0.004 0.879,0.032 1.31,0.043 0.625,0.092 0.822,0.216 0.88,0.35 0.043,0.29 0.083,0.586 0.127,0.875 a 5.75,5.75 0 0 0 0.482,-0.357 l 0.309,0.224 -0.522,1.392 c 0.103,0.329 0.234,0.622 0.417,0.852 a 33.08,33.08 0 0 0 -1.037,-0.426 c 0.206,-0.117 0.409,-0.243 0.605,-0.386 l 0.015,-0.04 c -0.12,-0.382 -0.2,-0.813 -0.269,-1.259 a 5.412,5.412 0 0 1 -0.927,0.504 4.144,4.144 0 0 1 -1.491,0.326 c 0.689,0.32 1.378,0.583 2.067,0.855 a 6.164,6.164 0 0 1 -3.008,0.813 c -2.083,0.033 -3.675,-0.526 -4.777,-1.677 -1.102,-1.151 -1.67,-2.785 -1.703,-4.901 -0.029,-1.812 0.465,-3.2850003 1.48,-4.4180003 1.032,-1.151 2.444,-1.74 4.239,-1.77 z m 8.408,0.278 c 0.286,0.044 0.606,0.09 0.96,0.136 0.372,0.03 0.634,0.047 0.786,0.053 0.373,0.014 0.711,0.008 1.017,-0.014 0.306,-0.023 0.553,-0.04 0.74,-0.05 L 93.495,14.83807 c 0.178,-0.067 0.356,-0.136 0.534,-0.197 0.452,-0.018 0.867,-0.17 1.325,-0.167 0.356,0.002 0.74,0.098 1.188,0.423 1.15,4.6 2.346,8.704 3.832,9.772 -0.052,0.272 -0.599,0.297 -1.15,0.32 -0.28,-0.222 -0.58,-0.439 -1.277,-0.576 -0.783,0.426 -1.016,0.852 -1.214,1.277 0.113,0.305 0.4,0.633 1.122,1.023 0.142,0.356 0.366,0.632 0.283,1.213 h -0.51 c -0.826,-0.915 -1.436,-1.63 -2.906,-3.21 -1.09,-1.432 -1.907,-2.334 -3.337,-4.327 -0.017,-0.43 -0.051,-0.868 -0.101,-1.294 a 8.954,8.954 0 0 0 -0.714,0.018 c -0.306,0.023 -0.552,0.039 -0.739,0.05 z M 91.284,19.09507 c 0.1,0 0.197,0 0.303,0.004 0.152,0.006 0.524,0.044 1.114,0.116 0.136,0.005 0.347,0.03 0.633,0.074 l 0.161,-4.45 c -0.88,0.333 -1.758,0.714 -2.637,0.824 -0.406,0.235 -0.355,0.356 -0.447,0.512 0.422,0.446 0.721,1.623 0.873,2.92 z M 131.142,7.2250697 c 0.018,-0.006 0.028,-0.006 0.03,0 0,0.008 -0.012,0.023 -0.039,0.05 -0.292,0.28 -0.604,0.536 -0.922,0.787 a 9.568,9.568 0 0 0 -0.19,-0.029 c 0.106,-0.106 0.212,-0.21 0.323,-0.31 0.172,-0.156 0.671,-0.459 0.798,-0.498 z m -49.23,0.49 c -0.813,0.013 -1.381,0.522 -1.704,1.526 -0.226,0.698 -0.33,1.5470003 -0.315,2.5450003 l 3.758,-0.059 c -0.016,-1.05 -0.114,-1.8860003 -0.293,-2.5100003 -0.287,-1.011 -0.77,-1.512 -1.447,-1.502 z m 50.083,0.146 a 1.87,1.87 0 0 1 -0.18,0.247 l -0.072,0.02 z m -66.945,0.855 0.155,0.231 0.009,0.02 -0.18,-0.228 z m 43.734,0.494 0.119,0.123 a 1.52,1.52 0 0 0 -0.134,0.352 l -0.186,-0.243 0.2,-0.232 z m 9.764,0.348 a 8.141,8.141 0 0 0 -1.762,0.183 c 0.127,-0.014 0.255,-0.03 0.382,-0.04 0.012,0.038 0.029,0.079 0.036,0.114 l 0.024,0.053 -0.226,0.3460003 c -0.12,-0.147 -0.249,-0.2930003 -0.38,-0.4370003 a 5.524,5.524 0 0 0 -1.727,0.7210003 l 0.048,1.559 0.176,0.032 c 0.155,-0.282 0.538,-0.538 1.149,-0.77 0.452,-0.169 0.899,-0.26 1.342,-0.277 l 0.01,-0.013 0.008,0.012 h 0.132 l -0.048,-0.106 -0.023,0.003 0.015,-0.02 0.008,0.017 a 0.262,0.262 0 0 1 0.16,0.046 l -0.003,0.01 c -0.008,0.013 -0.024,0.033 -0.037,0.05 l 0.053,0.001 0.036,-0.03 c 0.012,0.008 0.026,0.023 0.038,0.034 0.165,0.009 0.33,0.026 0.493,0.056 0.6,0.11 1.1,0.436 1.5,0.974 0.419,0.526 0.575,1.08 0.467,1.662 -0.04,0.217 -0.107,0.394 -0.201,0.532 a 1.11,1.11 0 0 1 -0.353,0.373 c -0.26,0.107 -0.585,0.185 -0.973,0.234 -0.246,0.024 -0.569,0.05 -0.97,0.08 -1.792,0.1 -3.03,0.319 -3.712,0.658 -0.834,0.414 -1.355,1.188 -1.564,2.32 -0.194,1.05 -0.004,1.936 0.568,2.662 0.483,0.606 1.189,1.015 2.114,1.232 l 0.134,-0.26 c 0.05,0.056 0.1,0.112 0.153,0.167 -0.065,0.037 -0.13,0.076 -0.194,0.114 0.063,0.013 0.123,0.029 0.188,0.04 a 3.79,3.79 0 0 0 1.937,-0.132 3.558,3.558 0 0 0 1.597,-1.1 c 0.095,0.602 0.33,1.11 0.7,1.523 0.392,0.4 0.87,0.651 1.437,0.756 0.3,0.055 0.68,0.048 1.14,-0.022 0.478,-0.067 0.888,-0.146 1.232,-0.238 l 0.106,-0.574 c -0.5,-0.092 -0.827,-0.23 -0.983,-0.414 -0.136,-0.197 -0.16,-0.53 -0.074,-0.996 l 1.253,-6.793 c 0.212,-1.15 -0.16,-2.122 -1.115,-2.918 -0.76,-0.64 -1.764,-1.0750003 -3.013,-1.3050003 a 7.267,7.267 0 0 0 -1.277,-0.12 z m -69.8,0.36 c -0.412,0.004 -0.85,0.05 -1.31,0.1400003 a 6.876,6.876 0 0 0 -1.773,0.59 l -0.098,0.228 c -0.026,-0.04 -0.06,-0.083 -0.093,-0.126 a 5.167,5.167 0 0 0 -1.022,0.734 l 0.253,0.256 a 1.327,1.327 0 0 0 -0.392,-0.122 5.1,5.1 0 0 0 -0.686,0.856 c 0.006,0.105 0.02,0.212 0.05,0.319 l -0.12,0.01 -0.07,-0.097 a 5.665,5.665 0 0 0 -0.738,2.643 l 0.074,-0.068 c 0.106,0.144 0.211,0.288 0.318,0.431 a 1.543,1.543 0 0 0 -0.266,0.111 l -0.13,-0.207 c 0,0.493 0.051,1.007 0.156,1.544 0.407,2.077 1.255,3.584 2.543,4.523 1.288,0.938 2.954,1.207 4.998,0.806 a 6.167,6.167 0 0 0 3.344,-1.82 l 0.037,-0.2 c 0,-0.003 -0.002,-0.004 -0.003,-0.006 h 0.004 l 0.237,-1.297 -0.343,-0.166 a 5.514,5.514 0 0 1 -1.234,1.096 c -0.46,0.297 -0.947,0.496 -1.462,0.597 -1.263,0.248 -2.265,-0.022 -3.006,-0.809 -0.628,-0.653 -1.084,-1.703 -1.367,-3.149 l 7.129,-1.396 c -0.381,-1.944 -1.04,-3.368 -1.976,-4.271 -0.798,-0.776 -1.817,-1.1590003 -3.054,-1.1500003 z m 60.655,0.2120003 c -0.029,0.033 -0.062,0.073 -0.088,0.101 a 0.15,0.15 0 0 0 0.02,0.004 l -0.08,0.084 -0.008,-0.011 c 0.019,-0.02 0.048,-0.056 0.068,-0.077 -0.01,-0.002 -0.019,-0.003 -0.028,-0.006 l -0.064,0.052 -0.08,-0.105 c 0.048,0.02 0.094,0.039 0.144,0.053 l 0.115,-0.095 z m -1.278,0.043 0.233,0.293 -0.144,0.191 c 0.063,-0.044 0.127,-0.087 0.192,-0.13 l 0.21,0.263 c -0.065,0.056 -0.133,0.11 -0.197,0.166 l 0.207,-0.153 0.081,0.102 -0.299,0.325 a 2.27,2.27 0 0 0 -0.735,-0.331 z m 0.089,0.484 c -0.121,0.084 -0.24,0.17 -0.358,0.257 -0.064,0.049 0.152,-0.056 0.228,-0.084 z m 22.556,0.018 c 0.275,0.13 0.512,0.345 0.738,0.579 l -0.21,0.244 c -0.195,-0.208 -0.463,-0.43 -0.671,-0.61 0.047,-0.07 0.096,-0.141 0.143,-0.213 z m -82.843,0.477 c 0.56,0.004 1.04,0.419 1.444,1.246 0.287,0.582 0.531,1.389 0.733,2.419 l -3.69,0.722 c -0.191,-0.98 -0.238,-1.834 -0.139,-2.56 0.14,-1.046 0.61,-1.647 1.407,-1.803 0.083,-0.017 0.165,-0.025 0.245,-0.024 z m 53.417,0.502 a 1.137,1.137 0 0 0 -0.238,0.32 c -0.126,1.467 -0.125,2.559 -0.053,3.438 z m 28.612,0.228 c 0.127,0.242 0.263,0.488 0.361,0.721 l -0.191,0.214 c -0.132,-0.198 -0.268,-0.393 -0.402,-0.59 0.079,-0.115 0.155,-0.23 0.232,-0.345 z m -77.468,0.096 0.017,0.021 -0.096,0.098 -0.006,-0.01 0.085,-0.11 z m -13.275,0.012 -9.98,2.794 c 0.019,0.065 0.073,0.165 0.163,0.298 0.083,0.17 0.147,0.337 0.192,0.5 0.028,0.097 0.044,0.216 0.047,0.356 0.02,0.135 0.042,0.305 0.064,0.51 0.408,-0.114 1.212,-0.384 2.412,-0.808 0.337,-0.12 0.635,-0.216 0.949,-0.321 a 18.67,18.67 0 0 1 -0.166,-0.512 l 0.853,-0.05 0.076,0.078 c -0.103,0.096 -0.238,0.221 -0.385,0.355 a 43.478,43.478 0 0 1 1.818,-0.563 264.22,264.22 0 0 1 -1.84,5.58 223.975,223.975 0 0 1 -1.958,5.534 l 0.28,1.003 0.51,-0.143 -0.204,-0.312 0.049,-0.04 c 0.076,0.111 0.153,0.222 0.232,0.33 l 1.037,-0.29 c -0.092,-0.137 -0.185,-0.273 -0.273,-0.41 0.09,-0.089 0.183,-0.232 0.298,-0.418 0.083,-0.057 0.163,-0.113 0.236,-0.17 0.209,0.249 0.414,0.5 0.618,0.752 l 5.93,-1.661 -0.116,-0.197 c 0.053,-0.029 0.105,-0.06 0.157,-0.093 l 0.007,0.277 2.086,-0.585 a 13.44,13.44 0 0 0 -0.235,-0.461 3.444,3.444 0 0 1 -0.12,-0.336 2.901,2.901 0 0 1 -0.071,-0.349 6.636,6.636 0 0 0 -0.04,-0.517 c -0.113,0.032 -1.255,0.414 -3.424,1.144 -0.865,0.291 -1.728,0.557 -2.59,0.802 l -0.025,0.045 -0.014,-0.034 -0.164,0.048 a 101.81,101.81 0 0 1 1.23,-3.8 c 0.194,-0.564 0.636,-1.813 1.325,-3.747 l 1.303,-3.635 -0.085,-0.306 -0.133,0.145 a 4.946,4.946 0 0 0 -0.16,-0.092 l 0.109,-0.221 c 0.023,-0.05 0.057,-0.103 0.092,-0.158 z m 34.008,0.602 -0.008,0.013 -0.008,-0.01 z m 55.944,0.444 c 0.05,0.074 0.076,0.118 0.125,0.192 -0.072,-0.02 -0.143,-0.042 -0.215,-0.063 l 0.09,-0.13 z m -90.244,0.023 0.046,0.045 -0.027,0.03 c -0.02,0.003 -0.04,0.005 -0.06,0.01 l 0.04,-0.085 z m -4.19,0.26 0.103,0.088 c -0.193,0.08 -0.155,0.235 -0.037,0.443 -0.197,0.21 -0.334,0.35 -0.46,0.479 l -0.223,0.01 a 4.759,4.759 0 0 0 -0.423,-0.345 4.656,4.656 0 0 0 -0.235,-0.15 l 1.274,-0.524 z m -1.704,0.702 c 0.109,0.11 0.224,0.226 0.35,0.356 l -0.608,0.03 -0.03,-0.097 c 0.022,-0.067 0.046,-0.133 0.07,-0.2 l 0.218,-0.09 z m 33.424,0.332 -0.215,0.27 -0.137,-0.204 c 0.01,-0.02 0.022,-0.039 0.033,-0.058 0.102,-0.003 0.22,-0.004 0.32,-0.008 z m 4.985,0.391 c 0.082,0.14 0.155,0.27 0.237,0.411 a 3.37,3.37 0 0 0 -0.216,0.426 l -0.333,-0.408 c 0.108,-0.14 0.212,-0.283 0.312,-0.429 z m 59.04,0.313 0.311,0.495 -0.249,0.411 -0.108,0.107 a 1.071,1.071 0 0 0 -0.074,-0.029 82.382,82.382 0 0 1 -0.258,-0.52 z m 7.152,0.115 -0.448,0.527 a 12.576,12.576 0 0 0 -0.365,-0.364 c 0.282,-0.017 0.554,-0.066 0.813,-0.163 z m -66.942,0.515 c 0.13,0.159 0.26,0.322 0.394,0.485 a 8.93,8.93 0 0 0 -0.229,0.282 l -0.115,-0.211 c 0.011,-0.127 -0.036,-0.276 -0.157,-0.448 l 0.045,-0.042 z m 49.369,0.024 -0.447,2.423 c -0.142,0.767 -0.38,1.36 -0.716,1.78 -0.424,0.524 -0.986,0.722 -1.685,0.593 -0.5,-0.092 -0.822,-0.35 -0.968,-0.773 -0.13,-0.42 -0.142,-0.912 -0.037,-1.479 0.086,-0.466 0.218,-0.855 0.396,-1.166 a 1.86,1.86 0 0 1 0.78,-0.734 c 0.347,-0.195 0.813,-0.342 1.4,-0.44 0.317,-0.045 0.744,-0.113 1.277,-0.204 z m -5.66,0.295 0.133,0.15 -0.052,0.075 -0.147,-0.16 z m 21.475,0.012 c 0.187,0.215 0.35,0.407 0.523,0.608 l -0.178,0.209 c -0.121,-0.256 -0.243,-0.52 -0.364,-0.79 z m 2.66,0.162 0.004,0.005 c -0.01,0.01 -0.018,0.02 -0.026,0.032 z m -0.039,0.065 a 0.218,0.218 0 0 0 -0.014,0.045 l -0.04,0.044 0.054,-0.09 z m 5.674,0.098 -0.047,0.092 a 100.22,100.22 0 0 0 -1.35,1.77 l -0.1,-0.114 -3.485,9.455 c 0.18,0.049 0.42,0.11 0.718,0.183 0.298,0.074 0.622,0.175 0.971,0.304 0.143,0.053 0.484,0.206 1.022,0.459 0.127,0.046 0.32,0.135 0.578,0.267 l 0.18,-0.485 -0.03,-0.045 0.037,0.023 1.404,-3.807 0.377,-1.025 c 0.147,-0.397 0.28,-0.736 0.402,-1.016 0.127,-0.296 0.254,-0.52 0.382,-0.67 0.325,-0.44 0.728,-0.725 1.208,-0.855 0.503,-0.14 1.025,-0.11 1.565,0.09 0.222,0.081 0.436,0.187 0.641,0.317 0.205,0.13 0.358,0.276 0.46,0.44 l 0.285,-0.112 c 0.193,-0.524 0.41,-1.085 0.648,-1.683 a 19.11,19.11 0 0 1 0.666,-1.514 c -0.068,-0.025 -0.135,-0.044 -0.202,-0.066 l -0.032,0.035 a 1.66,1.66 0 0 1 0.012,-0.042 c -1.009,-0.327 -1.931,-0.32 -2.766,0.028 -0.728,0.309 -1.416,0.903 -2.065,1.783 l 1.09,-2.955 c -0.181,-0.049 -0.42,-0.11 -0.718,-0.183 a 9.243,9.243 0 0 1 -0.971,-0.304 20.024,20.024 0 0 1 -0.73,-0.296 z m -121.059,0.568 c -0.522,0.012 -1.09,0.137 -1.705,0.375 a 4.261,4.261 0 0 0 -1.817,1.358 6.84,6.84 0 0 0 -0.874,1.532 l 0.009,0.015 -0.061,0.118 c -0.048,0.118 -0.097,0.233 -0.142,0.357 l -0.018,-0.046 -0.04,0.077 -0.69,1.222 a 1.397,1.397 0 0 0 -0.495,-0.263 l 1.062,-1.323 c 0.016,-0.003 0.031,-0.01 0.046,-0.015 l -0.544,-1.404 c -0.168,0.083 -0.38,0.192 -0.636,0.328 -0.24,0.13 -0.534,0.262 -0.882,0.396 -0.157,0.061 -0.405,0.148 -0.743,0.261 -0.328,0.091 -0.624,0.17 -0.889,0.236 l 1.268,3.269 0.56,0.6 -0.158,0.251 c -0.042,-0.05 -0.085,-0.097 -0.129,-0.146 l 2.914,7.511 c 0.168,-0.083 0.387,-0.195 0.659,-0.337 0.272,-0.142 0.582,-0.28 0.929,-0.415 0.142,-0.055 0.499,-0.166 1.07,-0.333 0.126,-0.049 0.33,-0.11 0.61,-0.182 l -2.113,-5.447 c -0.465,-1.2 -0.728,-2.133 -0.787,-2.8 -0.104,-1.158 0.294,-1.912 1.194,-2.262 0.536,-0.207 1.024,-0.192 1.468,0.037 l 0.47,0.028 0.005,0.007 -0.142,0.178 c 0.079,0.064 0.156,0.135 0.232,0.215 0.43,0.45 0.892,1.316 1.388,2.595 l 2.287,5.896 c 0.167,-0.083 0.387,-0.195 0.66,-0.337 0.271,-0.142 0.58,-0.28 0.928,-0.415 0.11,-0.043 0.39,-0.13 0.76,-0.24 l -0.04,-0.062 0.002,-0.004 c 0.02,0.02 0.042,0.038 0.063,0.058 l 0.285,-0.085 c 0.126,-0.05 0.33,-0.11 0.61,-0.183 l -2.691,-6.938 c -0.607,-1.563 -1.306,-2.617 -2.1,-3.163 -0.517,-0.361 -1.112,-0.535 -1.783,-0.52 z m 65.63,0.265 c 0.128,0.128 0.26,0.253 0.398,0.378 l -0.036,0.117 z m -23.594,0.104 -0.022,0.044 -0.006,-0.007 z m 3.28,0.234 c 0.068,0.21 0.138,0.42 0.204,0.63 l -0.275,-0.391 -0.087,-0.13 0.158,-0.11 z m -0.548,0.724 c -0.012,0 -0.024,0.002 -0.036,0.004 l 0.056,0.08 c -0.007,-0.03 -0.014,-0.054 -0.02,-0.084 z m 38.9,0.32 c 0.09,0.142 0.185,0.28 0.281,0.418 -0.106,0.14 -0.211,0.28 -0.318,0.418 a 4.312,4.312 0 0 0 -0.225,-0.462 l 0.261,-0.375 z m -40.014,0.354 c 0.024,0.01 -0.122,0.098 -0.23,0.136 a 7.822,7.822 0 0 1 -0.065,-0.074 l 0.274,-0.06 a 0.053,0.053 0 0 1 0.021,-0.002 z m -61.44,0.538 c -0.314,0.112 -0.603,0.3 -0.89,0.496 -0.688,0.948 -1.317,1.8 -1.837,2.477 A 40.684,40.684 0 0 1 0,25.43207 l 0.096,0.178 c 0.313,0.081 0.585,0.176 0.816,0.283 0.237,0.083 0.471,0.197 0.703,0.342 a 32.75,32.75 0 0 0 1.895,-2.75 l 0.514,0.956 c 0.174,-0.343 0.347,-0.686 0.522,-1.028 0.039,-0.143 0.159,-0.354 0.25,-0.541 0.05,-0.07 0.078,-0.126 0.07,-0.158 0.04,-0.101 0.056,-0.184 0.02,-0.223 a 45.943,45.943 0 0 1 1.112,-1.779 z m 11.795,0.077 c 0.176,0.093 0.361,0.172 0.551,0.245 -0.443,0.544 -0.817,1.029 -1.046,1.286 l -0.673,0.836 c 0.349,-0.724 0.694,-1.45 1.034,-2.178 l 0.103,-0.149 0.03,-0.04 z m 117.893,0.419 h 0.002 c -0.01,0.028 -0.022,0.056 -0.03,0.084 l -0.19,0.197 -0.019,-0.03 z m -28.898,0.057 0.036,0.05 -0.019,-0.017 -0.017,-0.034 z m 1.007,0.06 -0.046,0.084 -0.009,-0.012 0.055,-0.071 z m -59.25,0.62 0.106,0.17 -0.126,-0.163 0.02,-0.006 z m -11.27,0.03 a 7.326,7.326 0 0 0 -0.215,0.312 l -0.031,-0.046 c 0.083,-0.092 0.162,-0.176 0.246,-0.266 z m 15.49,0.076 c -0.044,0.065 -0.085,0.132 -0.129,0.198 l -0.094,-0.152 z m 103.624,0.418 a 5.038,5.038 0 0 0 -1.939,0.36 c -1.414,0.56 -2.513,1.658 -3.297,3.292 -0.916,1.908 -1.138,3.623 -0.666,5.145 0.472,1.523 1.646,2.734 3.524,3.635 a 6.169,6.169 0 0 0 3.77,0.541 l 1.119,-1.04 -0.176,-0.339 c -0.551,0.13 -1.1,0.177 -1.645,0.14 a 4.138,4.138 0 0 1 -1.529,-0.395 c -1.16,-0.557 -1.802,-1.371 -1.926,-2.445 -0.113,-0.9 0.149,-2.014 0.786,-3.342 l 6.55,3.143 c 0.614,-1.28 0.95,-2.43 1.016,-3.451 a 52.013,52.013 0 0 1 -0.248,-0.08 c 0.083,-0.102 0.171,-0.214 0.256,-0.32 l 0.002,0.003 a 4.955,4.955 0 0 0 -0.056,-0.758 c -0.202,-1.253 -0.938,-2.266 -2.206,-3.042 a 5.619,5.619 0 0 0 -0.557,0.72 c -0.136,0.018 -0.272,0.037 -0.409,0.054 a 3.506,3.506 0 0 0 -0.564,-0.352 l 0.54,-0.934 a 7.01,7.01 0 0 0 -1.003,-0.348 c -0.264,0.496 -0.53,0.99 -0.8,1.483 a 14.07,14.07 0 0 0 -0.814,0.172 c 0.183,-0.298 0.352,-0.587 0.493,-0.85 a 5.2,5.2 0 0 0 0.24,-0.526 c 0.11,-0.131 0.223,-0.262 0.335,-0.393 a 5.385,5.385 0 0 0 -0.796,-0.074 z m -149.313,0.247 a 78.977,78.977 0 0 1 -1.391,4.304 l -0.16,0.212 5.464,10.154 c 0.156,-0.104 0.36,-0.242 0.612,-0.416 a 9.26,9.26 0 0 1 0.871,-0.527 c 0.134,-0.072 0.474,-0.226 1.02,-0.462 0.12,-0.064 0.314,-0.15 0.584,-0.256 l -3.625,-6.736 -0.026,0.026 a 3.557,3.557 0 0 0 -0.204,-0.14 l -0.16,-0.206 c -0.021,-0.027 -0.04,-0.057 -0.06,-0.085 l 0.135,-0.181 z m 43.98,0.055 0.073,0.008 c 0.168,0.173 0.342,0.34 0.512,0.51 l -0.159,0.107 a 67.203,67.203 0 0 0 -0.502,-0.547 l 0.077,-0.077 z m 75.553,0.042 0.037,0.06 c -0.01,0.013 -0.022,0.025 -0.033,0.037 l -0.063,-0.054 0.06,-0.043 z m -109.147,0.722 0.008,0.014 a 0.157,0.157 0 0 0 -0.02,0.004 c 0.003,-0.006 0.008,-0.012 0.013,-0.018 z m 140.482,0.481 c 0.206,0.012 0.412,0.067 0.618,0.166 0.611,0.293 0.819,0.956 0.624,1.99 -0.119,0.637 -0.405,1.43 -0.859,2.376 l -3.39,-1.626 c 0.433,-0.9 0.906,-1.613 1.42,-2.136 0.461,-0.472 0.921,-0.727 1.38,-0.767 0.069,-0.006 0.138,-0.007 0.207,-0.003 z m -140.11,0.219 c -0.08,0.133 -0.183,0.302 -0.29,0.474 l -0.344,-0.369 0.635,-0.105 z m 110.733,0.242 0.034,0.053 -0.102,0.113 c -0.05,-0.049 -0.101,-0.096 -0.152,-0.143 z m -34.973,0.924 0.187,0.269 c -0.04,0.095 -0.08,0.201 -0.124,0.314 -0.089,-0.087 -0.166,-0.13 -0.16,-0.04 l 0.003,0.026 0.122,0.103 c -0.026,0.067 -0.048,0.122 -0.073,0.192 a 1.905,1.905 0 0 1 -0.05,-0.295 c -0.013,-0.012 -0.024,-0.022 -0.039,-0.033 z m -73.983,0.482 0.038,0.026 -0.022,0.025 -0.03,-0.024 z m -1.615,0.26 0.097,0.106 -0.025,0.053 -0.062,0.126 -0.077,-0.068 0.067,-0.218 z m -0.077,0.248 0.073,0.066 -0.096,0.199 -0.05,-0.069 c 0.03,-0.06 0.052,-0.127 0.073,-0.196 z m 16.31,0.074 0.02,0.025 -0.034,-0.004 c 0.005,-0.007 0.01,-0.014 0.013,-0.021 z m 56.457,0.418 a 35.288,35.288 0 0 0 3.748,3.252 l -7.496,0.632 c -0.213,-0.228 -0.32,-0.739 -0.136,-0.858 1.405,-0.733 2.72,-1.692 3.884,-3.026 z m 22.449,0.571 c 0.018,0.006 0.035,0.013 0.056,0.015 0.133,0.017 0.264,0.017 0.395,0.005 -0.215,0.306 -0.422,0.615 -0.617,0.933 0.37,0.232 0.668,0.64 0.795,1.457 l -1.22,0.226 c -0.388,0.18 -0.678,0.749 -1.174,0.497 -0.256,0.268 -0.512,-0.468 -0.768,-0.859 -0.791,-0.255 -2.462,-1.324 -2.12,-2.032 0.158,-0.03 0.33,-0.042 0.515,-0.044 0.8,-0.007 1.824,0.21 2.78,0.36 0.307,0.082 0.626,0.137 0.918,0.256 0.146,-0.271 0.292,-0.543 0.44,-0.813 z m 53.93,0.014 -3.145,4.722 c 0.016,0.022 0.03,0.045 0.05,0.067 l -0.181,0.13 -0.178,0.267 a 0.602,0.602 0 0 1 0.094,0.087 c 0.116,-0.104 0.23,-0.21 0.338,-0.32 0.008,0.018 0.02,0.038 0.03,0.057 l -0.368,0.263 -0.005,0.004 -0.195,0.14 a 0.855,0.855 0 0 0 -0.05,0.004 l -3.22,4.832 c 0.165,0.089 0.383,0.204 0.656,0.345 0.272,0.14 0.563,0.314 0.873,0.52 0.127,0.085 0.423,0.313 0.888,0.684 0.113,0.075 0.28,0.206 0.5,0.394 l 3.24,-4.862 c 0.713,-1.07 1.326,-1.823 1.838,-2.255 0.887,-0.752 1.732,-0.86 2.535,-0.325 0.69,0.46 0.954,1.104 0.79,1.93 -0.122,0.61 -0.563,1.487 -1.323,2.629 l -3.507,5.263 c 0.164,0.089 0.383,0.204 0.656,0.345 0.272,0.14 0.563,0.314 0.873,0.52 0.127,0.085 0.423,0.313 0.888,0.684 0.112,0.075 0.28,0.207 0.5,0.394 l 4.126,-6.194 c 0.93,-1.395 1.39,-2.574 1.38,-3.536 0,-0.131 -0.01,-0.26 -0.028,-0.387 a 1.118,1.118 0 0 0 -0.026,0.02 l -0.069,-0.454 a 3.186,3.186 0 0 0 -0.608,-1.102 c -0.123,0.06 -0.24,0.13 -0.354,0.211 l 0.288,-0.284 a 5.381,5.381 0 0 0 -1.092,-0.941 4.26,4.26 0 0 0 -2.156,-0.704 c -0.69,-0.032 -1.446,0.064 -2.268,0.29 l 1.042,-1.565 c -0.165,-0.089 -0.376,-0.2 -0.634,-0.33 a 7.353,7.353 0 0 1 -0.623,-0.362 l -0.052,0.04 a 0.22,0.22 0 0 0 -0.063,0.079 8.67,8.67 0 0 1 -0.485,-0.38 c 0.153,0.15 0.32,0.287 0.466,0.442 v 0.013 a 0.66,0.66 0 0 0 -0.225,0.03 20.19,20.19 0 0 0 -0.96,-0.785 c 0.075,-0.078 0.147,-0.158 0.222,-0.236 -0.158,-0.131 -0.323,-0.268 -0.458,-0.384 z m -61.651,0.003 c 0.094,0.097 0.193,0.189 0.298,0.273 l -0.095,0.1 z m -0.294,0.078 c 0.145,0.11 0.296,0.23 0.444,0.353 l -0.066,0.069 a 1.993,1.993 0 0 0 -0.108,-0.003 l -0.29,-0.383 -0.007,-0.013 c 0.008,-0.007 0.02,-0.016 0.027,-0.024 z m 5.687,0.075 0.145,0.118 -0.068,0.09 a 5.129,5.129 0 0 1 -0.147,-0.101 z m 6.13,0.03 a 0.78,0.78 0 0 0 -0.026,0.066 6.263,6.263 0 0 1 -0.29,0.22 0.995,0.995 0 0 0 -0.08,-0.004 c 0.184,-0.134 0.293,-0.21 0.396,-0.282 z m -2.356,0.06 0.012,0.003 c -0.232,0.241 -0.018,0.021 -0.48,0.498 -0.028,0.03 -0.06,0.056 -0.091,0.084 -0.002,-0.08 -0.005,-0.16 -0.003,-0.236 0.274,-0.184 0.452,-0.293 0.562,-0.35 z m 0.091,0.025 a 0.577,0.577 0 0 0 0.012,0.003 c -0.019,0.026 -0.036,0.05 -0.07,0.089 l 0.01,-0.019 z m 28.102,0.1 0.556,0.661 c -0.02,0.02 -0.053,0.05 -0.064,0.063 -0.154,-0.182 -0.505,-0.598 -0.55,-0.654 z m 24.195,0.586 c 0.119,0.245 0.258,0.482 0.37,0.73 l 0.001,0.004 c -0.17,0.015 -0.02,0.447 0.069,0.71 -0.138,0.07 -0.275,0.144 -0.412,0.217 a 58.82,58.82 0 0 0 -0.691,-0.901 l -0.038,-0.047 z m -23.592,0.131 0.147,0.175 0.019,0.095 0.012,0.08 -0.266,-0.316 c 0.01,-0.003 0.011,0 0.026,-0.006 0.021,-0.009 0.041,-0.019 0.062,-0.027 z m -28.431,0.605 0.046,0.01 c -0.079,0.08 -0.167,0.173 -0.234,0.238 z m -0.227,0.486 c -0.214,0.374 -0.385,0.78 -0.604,1.153 -0.06,-0.107 -0.12,-0.212 -0.185,-0.32 0.266,-0.276 0.53,-0.553 0.789,-0.833 z m 50.622,1.107 0.327,0.065 -0.218,0.122 z m 0.438,0.28 c 0.02,0.052 0.036,0.104 0.055,0.156 l -0.168,0.123 -0.094,-0.161 0.208,-0.117 z m -67.265,0.137 0.014,0.037 -0.02,-0.031 z m -18.509,0.048 c 0.174,0.174 0.343,0.346 0.481,0.492 0.025,0.025 0.048,0.052 0.072,0.078 l -0.019,0.056 c -0.178,-0.206 -0.34,-0.395 -0.535,-0.616 z m 88.12,0.156 0.21,0.405 0.005,0.141 -0.327,-0.452 z m -71.122,0.747 v 0.723 c -0.595,0.017 -1.076,-0.11 -1.891,0.18 -0.35,0.204 -0.52,0.486 -0.135,0.859 0.661,0.492 0.784,0.31 1.129,0.406 l -4.38,4.723 0.107,0.656 c 0.012,0.177 0.024,0.356 0.046,0.541 l -0.033,0.521 c -0.156,0.162 -0.312,0.324 -0.464,0.49 l -0.02,-0.021 c -0.055,-0.541 -0.106,-1.083 -0.158,-1.625 l -2.79,3.008 0.049,0.065 a 7.909,7.909 0 0 1 -0.243,0.446 l 0.04,-0.345 -2.542,2.741 -0.406,0.045 c 0.397,-2.12 0.332,-0.722 1.265,-6.91 0.216,-0.211 0.323,-0.423 0.39,-0.634 -0.007,-0.062 -0.012,-0.125 -0.018,-0.187 0.02,-0.187 0.014,-0.389 0.013,-0.589 l 0.145,0.154 0.012,-0.054 c -0.01,-1.583 -0.196,-1.446 -0.317,-1.941 -0.213,-1.162 -0.192,-2.09 -0.045,-2.89 z m -17.156,0.643 0.045,0.05 -0.044,-0.038 z m -68.716,0.359 -0.014,0.037 -0.027,-0.029 z m 54.663,0.423 0.027,0.029 h 0.013 c 0.026,0.06 0.053,0.118 0.08,0.176 -0.053,0.063 -0.11,0.125 -0.164,0.188 l -0.045,-0.002 -0.13,-0.09 0.22,-0.301 z m 98.644,0.37 -0.072,0.063 -0.005,-0.007 0.058,-0.054 a 0.257,0.257 0 0 0 0.019,-0.002 z m -66.043,0.333 c 0.08,0.075 0.148,0.134 0.194,0.167 l 0.021,0.012 -0.253,0.174 c 0.013,-0.121 0.024,-0.247 0.038,-0.353 z m 55.63,0.374 c 0.03,0.016 0.06,0.034 0.09,0.049 l -0.05,0.057 z m 8.399,0.27 c 0.024,0 0.048,0.002 0.072,0.004 l -0.055,0.048 -0.018,-0.04 v -0.012 z m -97.69,0.1 0.042,0.037 -0.033,0.037 -0.037,-0.035 0.028,-0.038 z m -0.088,0.119 0.029,0.029 -0.02,0.022 a 1.863,1.863 0 0 1 -0.035,-0.016 z m -1.586,0.302 0.182,0.277 c -0.357,0.497 -0.737,1.018 -1.132,1.552 l -0.047,-0.025 0.04,0.035 -0.198,0.267 -0.042,-0.027 -0.29,-0.337 c 0.063,-0.032 0.122,-0.066 0.177,-0.103 l -0.07,-0.037 0.065,-0.076 0.074,0.064 c 0.187,-0.144 0.302,-0.315 0.277,-0.47 0.21,-0.244 0.422,-0.486 0.63,-0.731 l 0.334,-0.39 z m -1.241,1.59 a 1.426,1.426 0 0 1 -0.069,0.049 l 0.313,0.165 z m -1.413,-1.328 c 0.022,0.027 0.047,0.052 0.07,0.078 l -0.055,0.056 -0.068,-0.08 z m 0.78,0.774 0.026,0.024 -0.11,0.131 -0.031,-0.035 z m 19.248,0.413 c 0.786,0.073 0.753,0.99 0.949,1.536 0.06,0.507 0.074,0.998 -0.045,1.445 -0.138,0.28 -0.187,0.572 -0.497,0.587 -0.508,-0.228 -0.673,-1.09 -0.813,-1.762 -0.135,-1.226 0.026,-1.842 0.406,-1.806 z m -19.933,0.302 a 0.467,0.467 0 0 0 0.073,0.064 l -0.097,0.114 -0.071,-0.077 c 0.032,-0.033 0.063,-0.068 0.095,-0.1 z m 111.765,0.164 z m -0.025,0.023 h 0.003 l -0.2,0.182 h -0.001 c -0.059,0.052 0.252,-0.231 0.198,-0.182 z m 0.016,0.006 0.015,0.007 0.083,0.456 -0.14,0.172 c -0.05,-0.14 -0.11,-0.294 -0.166,-0.442 l 0.208,-0.194 z m -110.933,0.07 c 0.123,0.197 0.255,0.403 0.3,0.47 -0.103,0.138 -0.209,0.276 -0.313,0.414 a 30.823,30.823 0 0 0 -0.37,-0.44 c 0.129,-0.148 0.255,-0.296 0.383,-0.444 z m 3.382,0.141 c 0.06,0.082 0.116,0.165 0.173,0.249 l -0.352,0.322 c 0.83,-0.17 1.544,-0.248 2.158,-0.247 2.04,0.003 3.067,0.807 4.3,1.45 l -6.888,7.217 -0.088,1.022 h -0.255 l -1.25,-1.13 a 4.206,4.206 0 0 0 -1.446,-0.693 c -1.018,-0.204 -1.511,-0.191 -1.967,0.418 -0.35,0.595 0.035,1.526 0.511,2.235 0.83,1.265 1.66,1.689 2.407,2.399 0.327,0.21 0.653,0.58 0.787,0.603 l 0.638,-0.064 c 0.107,0.13 0.213,0.14 0.32,0.43 0.246,0.602 0.071,1.531 0.255,1.806 l 0.616,0.581 0.147,0.023 c 0.24,-0.14 0.51,-0.015 0.765,-0.023 l 6.553,1.582 c -0.72,0.49 -1.455,1.199 -3.007,1.856 -2.048,0.723 -4.068,0.12 -5.752,-0.635 -2.686,-1.424 -3.638,-3.319 -4.591,-5.372 -0.81,-2.31 -1.253,-5.191 0,-8.487 0.728,-1.755 1.845,-3.12 3.412,-4.035 l 0.19,-0.172 a 0.037,0.037 0 0 1 0.006,0.007 l -0.086,0.102 a 8.95,8.95 0 0 1 2.002,-0.82 l 0.032,-0.006 c 0.136,-0.206 0.272,-0.412 0.41,-0.617 z m -4.98,1.687 c 0.153,0.179 0.303,0.36 0.452,0.543 l -0.39,0.505 a 3.512,3.512 0 0 1 -0.424,-0.636 z m 52.836,0.089 0.176,0.165 0.125,0.19 -0.018,0.01 c -0.081,-0.127 -0.188,-0.24 -0.29,-0.355 z m -40.648,0.043 c 0.066,0.007 0.13,0.016 0.198,0.019 l 0.02,-0.002 -0.073,0.223 z m 42.537,0.073 0.05,0.072 v 10e-4 l -0.056,-0.065 z m -42.01,0.062 0.032,0.036 c -0.095,0.096 -0.189,0.192 -0.284,0.286 l -0.046,-0.076 z m 34.11,0.21 c 3.362,-0.034 5.498,0.995 7.077,2.188 5.362,4.2 5.569,8.968 4.742,14.587 -0.644,3.138 -2.454,5.947 -7.768,7.768 -0.946,0.148 -1.848,0.215 -2.71,0.207 l -0.02,0.02 -0.001,-10e-4 -0.015,-0.018 c 0.001,0 0.002,0 0.003,-0.002 -4.02,-0.047 -7.143,-1.755 -9.585,-4.722 -2.119,-2.531 -3.193,-5.584 -2.665,-9.439 0.349,-2.567 1.064,-4.789 2.486,-6.65 0,-0.205 0,-0.41 0.002,-0.616 0.07,0.02 0.14,0.038 0.197,0.044 l 0.006,0.005 0.042,0.26 c 0.637,-0.772 1.4,-1.48 2.326,-2.12 l 3.522,10.975 c 0.138,0.232 0.325,0.43 0.632,0.541 0.5,0.088 1.04,-0.023 1.626,-0.361 1.03,0.022 1.28,0.223 1.807,0.361 0.4,0.116 0.719,0.053 0.948,-0.214 0.33,-0.273 0.259,-0.748 0.135,-1.186 l -4.832,-11.47 c 0.745,-0.1 1.423,-0.15 2.046,-0.156 z m 6.433,0.151 0.082,0.124 -0.111,0.156 a 0.58,0.58 0 0 0 -0.012,-0.25 c 0,-0.003 -0.002,-0.005 -0.003,-0.008 z m -14.769,0.186 0.064,0.045 a 0.18,0.18 0 0 1 -0.01,0.01 z m -26.166,0 a 0.167,0.167 0 0 1 0.071,0.032 c 0.05,0.028 0.097,0.077 0.127,0.102 l 0.052,0.042 c 0.02,0.025 0.01,-0.014 0.05,0.045 0.036,0.152 -0.013,0.28 -0.089,0.455 l -2.755,5.42 h -3.523 l 5.768,-5.961 c 0.134,-0.105 0.223,-0.148 0.299,-0.134 z m 8.258,0.64 0.06,0.067 c 0.058,0.109 0.118,0.216 0.183,0.32 l -0.256,-0.203 z m 36.605,0.178 0.176,0.22 -0.312,0.374 -0.186,-0.27 z m 51.727,0.06 c 0.085,0.004 0.18,0.02 0.283,0.042 0.033,0.404 0.069,0.806 0.106,1.21 -0.135,0.11 -0.212,0.184 -0.062,0.121 l 0.07,-0.03 0.038,0.405 -0.005,0.007 c -0.356,-0.06 -0.694,-0.116 -1.16,-0.196 0.094,-0.439 0.173,-0.88 0.244,-1.322 0.16,0.117 0.321,0.233 0.485,0.344 0.074,0.05 0.16,-0.142 0.14,-0.229 a 1.646,1.646 0 0 0 -0.14,-0.352 z m -88.389,0.547 c -0.068,-0.057 0.294,0.24 0.249,0.203 l -0.286,0.265 c 0.01,-0.145 0.024,-0.29 0.035,-0.436 0.217,0.166 0.188,0.134 0.002,-0.024 z m -7.124,0.02 c 0.205,0.056 2.35,2.613 2.268,5.316 l -4.694,-0.622 z m -3.973,0.16 -0.074,0.084 -0.076,0.066 0.04,-0.057 0.11,-0.092 z m -12.857,1.414 -0.014,0.066 -0.03,-0.018 c 0.014,-0.016 0.03,-0.031 0.044,-0.048 z m 49.229,0.798 0.02,0.067 -0.029,-0.014 a 5.083,5.083 0 0 0 -0.004,-0.039 z m -49.987,0.092 0.165,0.333 -0.487,0.449 -0.097,-0.092 c 0.137,-0.231 0.278,-0.461 0.42,-0.69 z m 48.517,0.378 c 0.831,1.41 1.625,2.807 2.296,4.164 0.03,0.028 0.059,0.055 0.085,0.084 l 0.276,0.299 c -0.032,0.059 -0.061,0.119 -0.09,0.179 0.266,0.562 0.51,1.116 0.722,1.66 -0.533,0.155 -1,0.245 -1.405,0.273 -0.36,-0.993 -0.734,-1.95 -1.054,-3.062 l -0.958,-3.214 c -0.047,-0.128 -0.105,-0.256 0.128,-0.383 z m -36.81,0.214 c 0,0.047 -0.003,0.095 -0.004,0.142 l -0.053,-0.079 z m 50.767,0.269 c 0,0.025 0,0.05 0.002,0.076 l -0.065,0.087 -0.055,-0.07 c 0.04,-0.03 0.079,-0.062 0.118,-0.093 z m -28.673,0.582 -0.02,0.016 -0.04,0.028 c 0.003,-0.007 0.005,-0.015 0.006,-0.022 l 0.037,-0.022 z m 16.44,0.455 0.025,0.026 -0.092,0.083 -0.004,-0.04 0.072,-0.069 z m -45.536,0.026 c 0.364,0 0.449,0.031 0.7,0.11 1.216,0.373 1.95,1.12 2.585,1.73 -0.412,0.273 -1.071,0.627 -1.275,0.977 -0.407,0.522 -0.608,0.969 -0.543,1.32 -0.369,-0.19 -1.905,-0.954 -2.373,-2.713 -0.156,-0.588 -0.139,-0.758 0.024,-1.015 0.185,-0.325 0.65,-0.372 0.882,-0.409 z m 45.574,0.014 c 0.112,0.119 0.218,0.237 0.317,0.355 -0.057,0.085 -0.111,0.17 -0.166,0.255 l -0.227,-0.24 -0.028,-0.29 c 0.034,-0.028 0.07,-0.053 0.104,-0.08 z m -25.848,0.351 -0.003,0.013 -0.12,0.07 a 0.164,0.164 0 0 0 -0.02,-0.004 l 0.056,-0.056 c 0.03,-0.008 0.057,-0.014 0.087,-0.023 z m -7.886,0.257 0.075,0.069 c 0.182,0.154 0.366,0.308 0.55,0.461 -0.03,0.05 -0.086,0.135 -0.136,0.211 l 0.156,0.011 c 0.036,-0.038 0.072,-0.076 0.11,-0.113 0.057,0.046 0.115,0.09 0.173,0.135 l 2.303,0.171 c 0.153,0.449 0.066,0.933 0.064,1.405 a 18.897,18.897 0 0 1 -3.656,-1.14 l 0.65,0.529 -0.198,0.258 a 43.66,43.66 0 0 0 -0.534,-0.82 c -0.43,-0.186 -0.85,-0.385 -1.26,-0.6 l 1.947,0.145 -0.49,-0.514 0.246,-0.207 z m 1.126,0.282 0.03,0.004 a 0.557,0.557 0 0 0 -0.007,0.015 l -0.023,-0.02 z m 47.195,0.804 0.134,0.168 a 1.9,1.9 0 0 0 -0.13,0.05 z m -51.448,0.02 h 10e-4 c 0.116,-0.007 0.237,0.01 0.353,0.046 0.692,0.376 1.31,0.737 1.788,1.07 -0.787,-0.14 -1.726,-0.33 -2.634,-0.51 -0.164,-0.112 -0.085,-0.242 -0.016,-0.336 a 0.657,0.657 0 0 1 0.508,-0.27 z m -1.93,0.302 0.058,0.068 -0.14,0.169 -0.053,-0.065 0.136,-0.172 z m -11.79,0.085 c 0.066,0.123 0.132,0.25 0.197,0.378 l -0.35,0.355 a 4.302,4.302 0 0 0 -0.418,-0.114 c 0.192,-0.205 0.382,-0.412 0.572,-0.619 z m 17.056,0.007 0.146,0.151 -0.028,0.038 z m -9.373,0.502 v 0.01 l -0.006,-0.004 z m 30.837,0.099 0.177,0.238 -0.024,0.03 c -0.055,-0.078 -0.125,-0.172 -0.182,-0.253 z m -20.502,0.384 0.095,0.096 -0.101,0.352 -0.294,0.272 -0.035,0.02 -0.07,-0.12 c 0.134,-0.207 0.269,-0.414 0.405,-0.62 z m -5.968,0.116 c 0.136,-0.013 0.238,0.142 0.364,0.18 l 7.16,2.236 c 0.093,0.882 -0.805,2.461 -1.987,3.8 l -2.8,-0.679 -0.083,0.127 -0.226,-0.202 -4.14,-1.003 c 0.04,-0.433 0.192,-0.76 -0.191,-1.596 l 0.287,-0.32 c 0.67,-0.306 0.774,-1.088 0.862,-1.884 0.24,-0.404 0.385,-0.434 0.543,-0.511 0.08,-0.102 0.15,-0.143 0.211,-0.148 z m 3.594,0.663 c 0.056,0.06 0.116,0.12 0.171,0.177 l -0.128,0.165 z m 12.754,0.668 0.103,0.1 -0.111,-0.091 0.008,-0.01 z m -0.665,0.706 c 0.082,0.096 0.16,0.195 0.24,0.293 l -0.107,0.102 -0.254,-0.267 v -0.002 l 0.12,-0.127 z m -26.431,0.13 0.006,0.48 -0.018,0.022 -0.133,0.135 -0.193,-0.18 c 0.083,-0.072 0.17,-0.21 0.288,-0.402 l 0.05,-0.056 z m 50.402,0.526 -0.035,0.226 -0.027,0.034 -0.046,-0.138 z m -42.191,0.972 c -0.024,0.031 -0.046,0.062 -0.069,0.094 l -0.011,-0.023 z m 4.815,2.112 0.193,0.17 -0.016,0.025 a 1.204,1.204 0 0 0 -0.212,-0.054 c 0.011,-0.047 0.02,-0.094 0.035,-0.141 z m -12.874,0.992 0.002,0.027 -0.015,-0.014 a 0.427,0.427 0 0 0 0.013,-0.013 z m 20.955,0.086 c 0.186,0.067 0.444,0.444 0.431,0.526 -0.091,0.09 -0.415,0.056 -0.527,0.016 -0.115,-0.116 0.035,-0.426 0.096,-0.542 z m -16.589,0.295 0.002,0.066 a 18.2,18.2 0 0 1 -0.023,-0.045 z m 17.98,0.25 -0.018,0.133 c -0.04,0.025 -0.08,0.05 -0.113,0.079 l 0.016,-0.11 c 0.042,-0.036 0.074,-0.066 0.114,-0.102 z m -18.695,0.462 c 0.13,0.225 0.332,0.575 0.535,0.921 -0.068,0.25 -0.137,0.497 -0.207,0.743 a 5.55,5.55 0 0 0 -0.053,-0.074 c -0.16,-0.47 -0.299,-0.945 -0.421,-1.426 z m 2.506,0.126 c 0.077,0.023 0.149,0.228 0.225,0.495 l -0.32,-0.196 0.003,-0.246 c 0.032,-0.044 0.063,-0.062 0.092,-0.053 z m 12.596,0.418 0.024,0.016 c -0.04,0.033 -0.081,0.065 -0.116,0.096 z m -12.7,0.096 0.405,0.25 0.029,0.114 c 0.037,0.37 0.083,0.775 0.135,1.2 l -0.436,0.392 -0.282,-0.48 a 7.01,7.01 0 0 0 0.102,-0.68 c 0.024,-0.257 0.037,-0.524 0.047,-0.796 z m 6.3,0.086 0.321,0.384 -0.008,0.021 a 2.353,2.353 0 0 0 -0.22,0.52 0.222,0.222 0 0 0 -0.006,0.097 l -0.136,0.36 -0.167,-0.141 c 0.068,-0.391 0.149,-0.858 0.217,-1.241 z m 6.424,0.47 a 0.73,0.73 0 0 0 0.094,0.007 v 0.114 c -0.031,-0.04 -0.063,-0.08 -0.094,-0.122 z m 9.183,0.097 0.018,0.021 -0.147,0.12 z m -9.942,0.158 0.293,0.358 -0.073,0.065 c -0.072,-0.103 -0.184,-0.257 -0.263,-0.37 z m -5.256,0.55 0.08,0.019 -0.217,0.229 c -0.02,0.011 -0.064,0.04 -0.09,0.055 l -0.094,-0.08 c 0.106,-0.076 0.214,-0.15 0.321,-0.223 z m -0.688,0.325 0.104,0.088 -0.137,0.102 -0.018,0.104 0.115,-0.07 0.048,-0.129 0.068,0.057 -0.116,0.072 -0.073,0.192 -0.05,-0.071 0.008,-0.05 -0.031,0.019 -0.038,-0.053 c 0.03,-0.023 0.058,-0.048 0.087,-0.07 z m -6.437,0.741 0.013,0.01 -0.01,0.01 -0.02,-0.006 z m 1.104,0.043 c 0.02,0.14 0.045,0.276 0.066,0.415 -0.034,-0.017 -0.068,-0.035 -0.103,-0.051 l -0.113,-0.191 z m 53.692,1.847 c 0.023,0.076 0.074,0.127 0.173,0.135 a 0.9,0.9 0 0 0 0.201,-0.007 l -0.411,0.408 c -0.004,-0.165 -0.005,-0.333 -0.004,-0.502 z m 0.33,0.98 c -0.056,0.143 -0.109,0.287 -0.17,0.428 -0.037,0.09 -0.076,0.179 -0.117,0.268 -0.006,-0.042 -0.015,-0.084 -0.02,-0.127 -0.008,-0.082 -0.013,-0.17 -0.02,-0.253 z m -16.898,0.955 c 0.191,0.017 0.259,0.09 0.24,0.201 l -0.262,0.308 -0.186,-0.158 c 0.062,-0.11 0.12,-0.222 0.185,-0.333 z m -0.312,0.713 0.068,0.058 -0.103,0.12 c 0.015,-0.054 0.025,-0.114 0.035,-0.178 z m 2.26,0.287 c -0.172,0.246 -0.347,0.493 -0.523,0.74 l -0.489,-0.416 0.088,-0.08 c 0.018,0 0.035,0 0.055,-0.003 0.331,-0.054 0.618,-0.136 0.87,-0.24 z m -2.543,0.113 c 0.015,0.006 0.03,0.01 0.043,0.012 l -0.084,0.073 c 0.013,-0.028 0.028,-0.057 0.04,-0.085 z m 3.578,0.31 c -0.261,0.325 -0.52,0.652 -0.777,0.982 l -0.118,-0.1 0.144,-0.203 0.73,-0.672 z m 3.93,0.807 0.036,0.043 -0.1,0.292 -0.073,-0.092 c 0.127,-0.083 0.166,-0.14 0.136,-0.243 z" />
</svg>
