<?xml version="1.0" encoding="UTF-8" standalone="no"?>
<svg
   xmlns:dc="http://purl.org/dc/elements/1.1/"
   xmlns:cc="http://creativecommons.org/ns#"
   xmlns:rdf="http://www.w3.org/1999/02/22-rdf-syntax-ns#"
   xmlns:svg="http://www.w3.org/2000/svg"
   xmlns="http://www.w3.org/2000/svg"
   xmlns:sodipodi="http://sodipodi.sourceforge.net/DTD/sodipodi-0.dtd"
   xmlns:inkscape="http://www.inkscape.org/namespaces/inkscape"
   sodipodi:docname="1zFSchriftzugGerade.svg"
   inkscape:version="1.0 (4035a4fb49, 2020-05-01)"
   id="svg1605"
   version="1.1"
   viewBox="0 0 170.14723 19.532667"
   height="19.532667mm"
   width="170.14723mm">
  <defs
     id="defs1599" />
  <sodipodi:namedview
     inkscape:window-maximized="1"
     inkscape:window-y="-11"
     inkscape:window-x="-11"
     inkscape:window-height="986"
     inkscape:window-width="1920"
     fit-margin-bottom="0"
     fit-margin-right="0"
     fit-margin-left="0"
     fit-margin-top="0"
     showgrid="false"
     inkscape:document-rotation="0"
     inkscape:current-layer="layer1"
     inkscape:document-units="mm"
     inkscape:cy="122.62641"
     inkscape:cx="1047.2524"
     inkscape:zoom="0.35"
     inkscape:pageshadow="2"
     inkscape:pageopacity="0.0"
     borderopacity="1.0"
     bordercolor="#666666"
     pagecolor="#ffffff"
     id="base" />
  <metadata
     id="metadata1602">
    <rdf:RDF>
      <cc:Work
         rdf:about="">
        <dc:format>image/svg+xml</dc:format>
        <dc:type
           rdf:resource="http://purl.org/dc/dcmitype/StillImage" />
        <dc:title></dc:title>
      </cc:Work>
    </rdf:RDF>
  </metadata>
  <g
     transform="translate(171.25218,-115.72176)"
     id="layer1"
     inkscape:groupmode="layer"
     inkscape:label="Ebene 1">
    <g
       transform="translate(-192.51383,56.020366)"
       aria-label="1nzelzeitfahren"
       id="text2777-8"
       style="font-style:normal;font-variant:normal;font-weight:bold;font-stretch:normal;font-size:25.4px;line-height:1.25;font-family:Optima;-inkscape-font-specification:'Optima, Bold';font-variant-ligatures:normal;font-variant-caps:normal;font-variant-numeric:normal;text-align:start;letter-spacing:0px;word-spacing:0px;writing-mode:lr-tb;text-anchor:start;display:inline;fill:#000000;fill-opacity:1;stroke:none;stroke-width:0.264583">
      <path
         id="path3747-0"
         style="stroke-width:0.999999"
         d="m 224.80469,44.910156 v 8.820313 c 2.39359,-2.982519 4.45215,-5.559067 5.12695,-6.4375 0.31753,-0.413347 0.68539,-0.812334 1.06836,-1.207031 -0.75181,2.940471 -1.17372,5.990164 -2.30664,8.804687 -0.23236,0.577245 -0.52237,1.203179 -0.79102,1.8125 -1.06075,0.681161 -2.16277,1.311123 -3.09179,2.158203 -0.002,0.0018 -0.004,0.0041 -0.006,0.0059 V 104.375 c 0.0609,0.009 0.11895,0.0256 0.18164,0.0312 -0.0594,0.0438 -0.12665,0.0952 -0.18164,0.13477 v 0.0879 c 0.0637,-0.0743 0.13072,-0.14551 0.19336,-0.22071 0.0291,0.003 0.0604,2.1e-4 0.0898,0.002 -0.0925,0.12203 -0.1899,0.23997 -0.2832,0.36132 v 8.45508 c 3.80978,-0.39017 7.61776,-0.79074 11.42578,-1.19336 -0.77736,0.64816 -1.55762,1.29341 -2.33008,1.94727 -3.07859,1.17506 -6.11989,2.44132 -9.0957,3.87109 v 0.0195 c 0.704,-0.064 1.6312,-0.16106 2.7832,-0.28906 1.152,-0.128 2.43184,-0.1914 3.83984,-0.19141 0.576,0 1.98461,0.0951 4.22461,0.28711 0.512,0 1.31239,0.0654 2.40039,0.19336 v -12.61328 c -0.22623,0.79385 -0.39076,1.60317 -0.48046,2.42969 -1.18315,0.7622 -2.57872,1.14951 -3.875,1.71094 -0.0411,0.006 -0.0879,0.0119 -0.12891,0.0176 0.39783,-1.55358 0.82854,-3.16703 1.25,-4.79883 0.12422,-0.13668 0.24381,-0.2799 0.37109,-0.41211 0.96593,-1.00331 1.90912,-2.02845 2.86328,-3.04297 V 67.554688 c -0.81449,0.441835 -1.623,0.852043 -2.39453,1.066406 -1.82529,2.106822 -3.8085,4.088886 -5.47656,6.322265 -0.0417,0.05591 -0.0906,0.126772 -0.13281,0.183594 0.18847,-0.451848 0.36988,-0.905515 0.55273,-1.359375 1.48705,-1.407882 2.99993,-2.797582 3.49414,-4.662109 0.14189,-0.53523 -1.15097,-0.655824 -1.62109,-0.363281 -0.0227,0.01412 -0.0437,0.03078 -0.0664,0.04492 0.0371,-0.120115 0.0772,-0.238926 0.11328,-0.359375 0.0378,-0.126054 0.0991,-0.265931 0.14454,-0.396484 0.30392,-0.271478 0.49179,-0.456801 0.20117,-0.308594 -0.0373,0.019 -0.0741,0.03956 -0.11133,0.05859 0.51732,-1.387061 1.33662,-2.964816 1.81445,-4.435547 0.78514,-1.281529 2.01807,-3.261005 2.87305,-4.591797 0.18482,-0.214045 0.39826,-0.418118 0.60937,-0.623047 v -5.960937 c -0.15089,0.05295 -0.3486,0.136159 -0.48046,0.175781 -1.01331,0.30449 -1.40484,1.600424 -1.77539,2.904297 -0.35993,0.354625 -0.70396,0.724489 -1.0254,1.115234 -0.33503,-0.52903 -0.90183,-0.712343 -1.59179,-0.71289 0.0608,-0.122262 0.13242,-0.256723 0.1914,-0.376953 -0.17371,0.131136 -0.34554,0.263666 -0.51953,0.394531 -0.33991,0.02306 -0.70254,0.08003 -1.07422,0.15039 0.60814,-0.453902 1.2587,-0.849595 1.92969,-1.216796 0.47197,-0.987116 0.88031,-1.896933 1.19531,-2.695313 0.86265,-2.18638 1.26051,-4.517171 1.66993,-6.84375 -0.44159,0.04616 -0.76507,0.07481 -1.30469,0.134766 -1.152,0.128 -2.43185,0.191406 -3.83985,0.191406 -0.576,0 -1.5666,-0.0317 -2.97461,-0.0957 -1.34399,-0.128 -2.56043,-0.256766 -3.64843,-0.384766 z m 8.90234,9.69336 c -0.10113,0.211521 -0.22866,0.453218 -0.33594,0.671875 0.71951,-0.54315 1.43458,-1.091914 2.11914,-1.669922 -0.57872,0.35408 -1.18508,0.670721 -1.7832,0.998047 z m 249.15625,-9.69336 v 5.78125 c 0.21208,-0.09088 0.45072,-0.19362 0.66406,-0.285156 -10e-4,0.113691 -0.003,0.228769 -0.004,0.341797 -0.19518,0.346588 -0.41354,0.696936 -0.66016,1.048828 v 35.880859 c 0.55936,-1.056623 1.13116,-2.106714 1.70703,-3.154296 0.34796,-0.40187 0.79767,-0.865395 1.26563,-1.353516 -0.0202,0.04108 -0.0475,0.07724 -0.0664,0.11914 -0.26258,0.581315 -0.16019,1.217502 -0.006,1.867188 -0.34203,0.568265 -0.68107,1.129339 -1.02148,1.705078 -0.0791,0.03878 -0.15899,0.075 -0.23828,0.113281 0.0566,-4.01e-4 0.11328,-0.0016 0.16992,-0.002 -0.61786,1.046182 -1.20848,2.06621 -1.81055,3.117188 v 23.164063 c 0.21218,0.004 0.40309,-0.0544 0.5586,-0.22071 0.32379,-0.34628 0.65674,-0.89785 0.90234,-1.48047 1.52996,-0.72576 3.27312,-1.68224 5.42773,-2.98046 0.81415,-0.49055 -1.8786,-0.31382 -2.82617,-0.38868 -1.04094,-0.0822 -2.08396,-0.13217 -3.1289,-0.16601 0.45992,-0.7814 0.93274,-1.55624 1.38476,-2.3418 0.40678,0.015 0.81198,0.0252 1.21875,0.0391 0.0762,-0.0758 0.15501,-0.14973 0.23242,-0.22461 0.0173,-0.003 0.0354,-0.007 0.0527,-0.01 -0.0877,0.079 -0.17618,0.15715 -0.26367,0.23633 2.91329,0.0991 5.82966,0.1824 8.72851,0.28515 0.32001,0.0182 0.6407,0.0298 0.96094,0.0449 v -4.41602 c -0.51045,-0.0146 -1.07198,-0.029 -1.57617,-0.0449 0.52845,-0.48689 1.05022,-0.98121 1.57617,-1.47071 v -4.324211 c 0,-0.52353 0.0157,-0.959464 0.0215,-1.451172 -0.0871,0.01746 -0.175,0.03514 -0.26367,0.05273 0.0817,-0.08326 0.1888,-0.197799 0.26758,-0.277344 0.0589,-4.317503 0.3302,-7.457458 0.83984,-9.269531 1.152,-4.224 3.64828,-6.335937 7.48828,-6.335937 1.89507,0 3.43321,0.546022 4.62696,1.621093 0.9929,-2.259113 1.93495,-4.530595 2.86132,-6.757812 -0.54322,0.04418 -1.09775,0.04579 -1.65429,0.03711 0.39322,-0.646493 0.76141,-1.256638 1.16601,-1.916015 0.0264,-0.03189 0.0537,-0.0659 0.0801,-0.09766 0.47106,-0.404514 0.69433,-0.609956 0.21094,-0.257812 0.16786,-0.201259 0.32902,-0.390471 0.49414,-0.585938 -0.62862,-0.06401 -1.26907,-0.105468 -1.92969,-0.105468 -0.89844,0 -1.8092,0.103931 -2.73242,0.302734 -0.63,1.000478 -1.20135,1.890599 -1.8418,2.919922 -0.26387,0.07281 -0.52509,0.160283 -0.77929,0.271484 -0.23752,0.103905 -0.46337,0.226664 -0.67969,0.363282 0.84763,-1.146004 1.90285,-2.267358 2.75195,-3.419922 -1.46723,0.376326 -2.96457,0.991194 -4.49414,1.865234 -2.432,1.344 -4.57759,3.071594 -6.43359,5.183594 v -7.759766 c -1.83945,1.455001 -1.92436,1.952096 -5.61914,7.460938 -0.29706,0.442898 -0.60577,0.922777 -0.91016,1.388672 -0.82325,0.225911 -1.6354,0.584035 -2.44336,0.988281 2.85374,-4.924317 5.84007,-9.754424 8.97266,-14.496094 V 56 c -0.0635,0.08074 -0.19393,0.258003 -0.26367,0.347656 0.0984,-0.219531 0.17248,-0.389126 0.26367,-0.59375 v -10.84375 c -0.704,0.064 -1.6312,0.161063 -2.78321,0.289063 -0.47424,0.05269 -0.98435,0.08826 -1.50195,0.11914 -0.35183,0.151633 -0.70131,0.301512 -1.04883,0.451172 0.0443,-0.137499 0.0839,-0.276823 0.13282,-0.412109 -0.46475,0.01583 -0.92526,0.0332 -1.42188,0.0332 -0.576,0 -1.56856,-0.0317 -2.97656,-0.0957 -1.344,-0.128 -2.56044,-0.256766 -3.64844,-0.384766 z m 3.5586,60.806644 c -0.007,-2.5e-4 -0.0143,-0.002 -0.0215,-0.002 -0.10286,0.10241 -0.21433,0.19823 -0.31445,0.30274 0.11108,-0.1012 0.22451,-0.19995 0.33594,-0.30078 z m -1.91797,-18.742191 c -0.043,3.04e-4 -0.086,-3.03e-4 -0.12891,0 -0.39711,0.207164 -1.60383,0.795859 -1.19141,0.621094 0.44621,-0.189115 0.88181,-0.409408 1.32032,-0.621094 z m -56.88282,-41.96875 c -2.12913,0 -4.05539,0.328737 -5.78125,0.984375 -0.18037,0.231824 -0.36473,0.459935 -0.5332,0.701172 -0.12784,0.183069 -0.24859,0.803107 -0.36133,1.601563 -0.32617,0.210723 -0.65193,0.419042 -0.97851,0.632812 0.19565,-0.776099 0.28155,-1.499265 -0.0254,-2.035156 -0.32869,0.189842 -0.64994,0.392787 -0.96094,0.611328 -2.368,1.664 -4.57505,4.289047 -6.62305,7.873047 -0.15272,0.2638 -0.28641,0.531563 -0.43164,0.796875 0.0319,-0.02344 0.0638,-0.04688 0.0957,-0.07031 -0.076,0.821029 -0.15097,1.641795 -0.22656,2.462891 -0.45647,0.192496 -0.91078,0.401144 -1.36328,0.636719 -0.52013,1.205787 -0.96918,2.426574 -1.33984,3.662109 -0.0588,0.213929 -0.11095,0.440708 -0.16797,0.658203 0.0148,0.131593 0.0293,0.262673 0.0449,0.394532 -0.0291,0.0061 -0.0588,0.0093 -0.0879,0.01563 -0.0399,0.0087 -0.0616,0.0376 -0.0801,0.06836 -0.0169,0.06661 -0.0341,0.132282 -0.0508,0.199219 -0.006,0.102673 -0.006,0.214669 -0.0469,0.291015 -0.0162,0.03033 -0.0345,0.05956 -0.0508,0.08984 -0.5065,2.088992 -0.93677,4.328186 -1.28711,6.730469 h -5.08203 c 0.21537,0.05275 0.43156,0.102355 0.65235,0.138672 -0.53738,0.655086 -0.75327,0.90551 -1.27539,1.539062 -0.27218,0.08157 -0.3166,0.09464 -0.57422,0.171875 0.16274,-0.616105 0.32422,-1.231647 0.47265,-1.849609 h -1.29882 c 0.128,1.024 0.19336,1.695625 0.19335,2.015625 v 1.152344 c 1e-5,1.344 -0.0654,2.336562 -0.19335,2.976562 h 7.10546 v 9.019531 c 0.0554,-0.0083 0.11068,-0.01695 0.16602,-0.02539 -0.0541,0.07266 -0.1134,0.154006 -0.16602,0.224609 V 117.8711 c 0.704,-0.064 1.63121,-0.16106 2.78321,-0.28906 1.152,-0.128 2.43184,-0.1914 3.83984,-0.19141 0.576,0 1.98461,0.0951 4.22461,0.28711 0.0452,0 0.12414,0.007 0.17383,0.008 0.49843,-0.70735 0.98239,-1.45741 1.46289,-2.28321 0.11288,-0.19401 0.31276,-0.4454 0.5293,-0.70703 0.0954,-0.058 0.1363,-0.0831 0.23437,-0.14257 V 106.758 c -2.28825,2.88537 -4.35449,5.47399 -5.63281,7.04102 0.0794,-0.73346 0.14446,-1.44065 0.16211,-2.02539 1.81689,-1.81581 3.64521,-3.68698 5.4707,-5.58789 v -5.80078 c -1.80205,1.95894 -3.95406,4.12022 -3.61523,4.41601 -1.01979,1.1463 -2.00514,2.22324 -2.84375,3.14844 1.01985,-2.46798 2.16658,-4.85459 4.94726,-10.357418 0.51149,-1.012205 0.94295,-1.845354 1.40235,-2.742188 -0.0135,0.01729 -0.0235,0.03146 -0.0371,0.04883 -0.1697,0.216907 -0.92848,0.588902 -0.70118,0.433593 0.24246,-0.165667 0.49356,-0.319766 0.73829,-0.482422 0,0 0.002,-0.002 0.002,-0.002 0.0353,-0.06892 0.0724,-0.142596 0.10742,-0.210937 v -17.18178 h 9.02344 c -0.128,-1.536 -0.19141,-2.560265 -0.19141,-3.072266 v -1.248046 c 0.0203,-0.202823 0.0403,-0.381701 0.0605,-0.578125 -0.36049,0.577334 -1.07268,1.738611 -1.44336,2.339843 -0.87457,-0.53398 -1.75587,-1.058752 -2.64258,-1.572265 0.11816,-0.379318 0.22771,-0.761839 0.31446,-1.150391 0.0537,-0.240588 0.14208,-0.561448 0.22265,-0.863281 h -6.01562 c -0.96,-2.112 -1.8238,-4.255641 -2.5918,-6.431641 -1.088,-3.008 -1.63281,-5.088234 -1.63281,-6.240234 0,-0.512 0.19217,-0.991453 0.57617,-1.439453 l 0.57617,-0.576172 c 0.64,-0.64 1.31163,-0.992641 2.01563,-1.056641 0.768,-0.128 1.85567,-0.191406 3.26367,-0.191406 1.344,0 2.6892,0.255578 4.0332,0.767578 1.20206,0.437111 2.46051,0.987646 3.75586,1.611328 0.14123,-0.635802 0.28512,-1.271432 0.43164,-1.90625 0.18463,0.561859 0.36086,1.126793 0.54297,1.689453 -0.0457,0.03067 -0.52736,0.354511 -0.58984,0.396485 0.0933,0.04592 0.18164,0.08203 0.27539,0.128906 l 1.24609,-0.480469 c -0.064,-0.768 -0.0957,-1.56839 -0.0957,-2.40039 v -2.6875 c 0,-0.256 0.0317,-1.214907 0.0957,-2.878907 0.064,-1.728 0.19277,-3.136609 0.38477,-4.224609 -1.344,-0.256 -2.27121,-0.384766 -2.78321,-0.384766 z m -7.11523,49.841797 c 0.0356,-0.02368 0.0718,-0.04669 0.10742,-0.07031 v -0.07031 c -0.0382,0.04922 -0.0685,0.09074 -0.10742,0.140625 z M 353.95703,46.158203 c -2.048,0 -3.8073,0.768688 -5.2793,2.304688 -1.472,1.536 -2.20898,3.295296 -2.20898,5.279297 0,1.170866 0.23865,2.255982 0.69922,3.259765 0.2756,-0.170511 0.57981,-0.400195 0.88086,-0.626953 -0.2097,0.370215 -0.43004,0.731139 -0.64649,1.095703 0.31532,0.578093 0.70357,1.129035 1.17969,1.648438 0.45735,0.457349 0.94975,0.835268 1.46875,1.15039 0.22294,-0.307009 0.31058,-0.428823 0.51953,-0.716797 0.0974,-0.0039 0.19401,-0.01 0.29102,-0.01758 -0.16612,0.308041 -0.33319,0.616056 -0.4961,0.925782 1.07166,0.577452 2.26866,0.865234 3.5918,0.865234 2.112,0 3.90495,-0.735031 5.37695,-2.207031 1.536,-1.536 2.30274,-3.328954 2.30274,-5.376953 0,-2.112 -0.76674,-3.903001 -2.30274,-5.375 -1.536,-1.472001 -3.32895,-2.208985 -5.37695,-2.208985 z m 136.74024,1.167969 c -0.18455,0.244861 -0.39229,0.522296 -0.55665,0.740234 0.002,-0.08201 0.005,-0.164086 0.006,-0.246094 0.0456,-0.118143 0.0711,-0.184975 0.11914,-0.308593 0.15016,-0.06445 0.28056,-0.120747 0.43165,-0.185547 z m -133.95313,0.804687 c 0.0865,0.204368 0.17424,0.467272 0.26172,0.738282 -0.0478,0.02648 -0.0948,0.05356 -0.14258,0.08008 -0.13223,-0.239657 -0.26496,-0.45799 -0.40039,-0.63086 0.0909,-0.06334 0.1816,-0.126325 0.28125,-0.1875 z m 64.03125,1.714844 c -0.15021,1.458378 -0.23069,2.47173 -0.32422,3.898438 -0.36357,0.270329 -0.72491,0.541644 -1.08789,0.8125 -0.0621,0.007 -0.12492,0.0151 -0.1875,0.02344 0.0307,-0.923901 0.0618,-1.847993 0.10156,-2.77539 0.014,-0.327732 0.0885,-0.683231 0.17969,-1.046876 0.43815,-0.304525 0.8772,-0.609782 1.31836,-0.912109 z m 62.66016,3.234375 c -2.9e-4,0.0045 2.9e-4,0.0091 0,0.01367 -0.0103,0.0037 -0.0209,0.0061 -0.0312,0.0098 0.0104,-0.0088 0.0208,-0.01469 0.0312,-0.02344 z m -94.78907,1.429688 c -2.112,1.024 -4.44781,2.111671 -7.00781,3.263672 -2.56,1.151998 -4.64023,2.049453 -6.24023,2.689453 v 10.847656 h -6.52735 c 0,0.256 0.0634,0.60864 0.19141,1.056641 v 0.958984 1.05664 1.34375 c 0,0.576 -0.0634,1.152516 -0.19141,1.728516 h 4.41797 c 0.36661,-0.474588 0.73201,-0.950028 1.09961,-1.423828 0.46575,-0.268334 0.9211,-0.602578 1.37305,-0.955078 -4.4e-4,0.03391 -0.001,0.06766 -0.002,0.101562 -0.49646,0.620825 -0.9405,1.191665 -1.24805,1.634766 -0.13585,0.195724 -0.30911,0.414192 -0.5,0.642578 h 1.38672 v 24.021482 c 1.58978,-2.307938 3.23864,-4.717206 4.81836,-7.121091 0.1509,-0.0776 0.30003,-0.159233 0.45117,-0.236328 -0.13158,0.05222 -0.26453,0.101004 -0.39649,0.152343 0.0176,-0.0268 0.0332,-0.05135 0.0508,-0.07813 1.08086,-1.203966 2.14827,-2.397368 3.25976,-3.636718 1.40672,-0.837065 2.79539,-1.704639 4.17774,-2.582032 0.29538,0.05364 0.59179,0.102807 0.88671,0.158203 V 77.455078 h 8.16016 c 0,-0.32 -0.0654,-0.864812 -0.19336,-1.632812 v -1.439454 -1.248046 c 0.064,-0.64 0.12936,-1.248219 0.19336,-1.824219 h -8.16016 z M 42.544922,55.070312 c -2.670749,1.26801 -5.145994,2.424147 -7.271484,3.376954 -4.992001,2.176 -9.663626,3.967 -14.015626,5.375 v 0.767578 c 0.896,0.832 1.631032,1.63239 2.207032,2.40039 0.40502,0.445523 0.774997,0.944266 1.128906,1.466797 1.225393,-0.764659 2.415726,-1.589206 3.59375,-2.43164 -0.145944,0.0688 -0.286912,0.101254 -0.394531,0.03906 -0.393877,-0.227614 -0.145006,-0.757786 0.121093,-1.271484 0.355509,-0.110547 0.715532,-0.18596 1.089844,-0.166016 0.379794,0.02021 0.04905,0.659839 -0.388672,1.089844 0.417224,-0.299788 0.834709,-0.598683 1.251954,-0.898438 -0.49053,0.782497 -0.984435,1.563225 -1.464844,2.351563 l 2.476562,-1.083984 c -0.09078,0.236364 -0.185107,0.4712 -0.277344,0.707031 1.967086,-1.002391 3.910105,-2.053938 5.824219,-3.16211 v 29.960938 c 0.39982,-0.203351 0.798892,-0.406853 1.195313,-0.615235 -0.442306,0.68939 -0.709238,1.112845 -1.195313,1.867188 v 21.371092 c 1.161395,-0.45922 2.30423,-0.95683 3.371094,-1.60156 0.288239,-0.17419 0.702838,-0.58857 1.158203,-1.08984 -0.304421,1.29801 -0.592761,2.6392 -0.861328,3.98828 0.919612,-0.0733 1.888532,-0.12109 2.955078,-0.1211 0.474651,0 1.65698,0.0808 3.261719,0.21094 0.07418,-0.12147 0.150218,-0.24193 0.224609,-0.36328 0.407654,-0.16474 0.809738,-0.34106 1.197266,-0.55273 0.76724,-0.41907 1.372251,-1.0567 1.941406,-1.73828 V 98.140625 c -0.07202,0.100511 -0.145635,0.191139 -0.216797,0.294922 0.08791,-0.392275 0.160202,-0.790155 0.216797,-1.193359 V 65.771484 c -0.414825,0.151431 -0.824544,0.324776 -1.224609,0.529297 0.413113,-0.927002 0.849628,-1.946658 1.224609,-3.054687 V 57.3125 c -0.27728,-0.222177 -0.589058,-0.426898 -0.824219,-0.671875 -3.268164,1.717847 -4.936488,2.413679 -6.236328,3.058594 0.326291,-1.373234 0.514597,-2.625375 0.402344,-3.515625 -0.04413,-0.350006 -0.22306,-0.763682 -0.470703,-1.113282 z M 28.615234,65.716797 c -0.142804,0.10261 -0.284723,0.206323 -0.427734,0.308594 0.142309,-0.06709 0.288244,-0.171563 0.427734,-0.308594 z M 385.58008,63.726562 c -0.002,0.017 -4.2e-4,0.0338 -0.002,0.05078 -0.0344,0.01161 -0.0691,0.01922 -0.10351,0.03125 0.0346,-0.02652 0.0716,-0.05701 0.10547,-0.08203 z M 43.208984,65.337891 c -0.144345,0.532611 -0.307686,1.070223 -0.492187,1.603515 -0.334935,0.161514 -0.657473,0.313034 -0.947266,0.435547 0.576867,-0.816362 1.070913,-1.519342 1.439453,-2.039062 z m 340.248046,0.289062 c 0.17148,0.03782 0.34243,0.06703 0.51367,0.09961 -0.25231,0.28093 -0.54913,0.616477 -0.83008,0.929688 0.0946,-0.335398 0.1858,-0.671283 0.28907,-1.003906 0.009,-0.0087 0.0183,-0.01671 0.0273,-0.02539 z m -281.97851,4.820313 c -2.880008,0 -5.631864,0.766734 -8.255864,2.302734 -2.24,1.344 -4.415343,3.232064 -6.527344,5.664062 v -7.103515 c -0.703998,0.064 -1.601453,0.159109 -2.689453,0.287109 -1.024,0.128 -2.238487,0.19336 -3.646484,0.19336 -0.441368,0 -1.276379,-0.03606 -2.052734,-0.06641 0.06687,0.508767 0.136461,1.022964 0.04492,1.498047 -0.429297,2.2283 -1.197736,4.377652 -1.796874,6.566406 -0.657225,1.792161 -0.668085,1.817421 -1.03711,2.835938 -0.534688,0.862362 -1.049059,1.663089 -1.591797,2.515625 v 19.835938 c 0.163393,-0.007 0.326842,-0.0141 0.490235,-0.0215 -0.161634,0.27788 -0.326627,0.561 -0.490235,0.84375 v 12.07226 c 0.169356,-0.0154 0.474539,-0.0511 0.669922,-0.0703 0.218286,-0.59883 0.441318,-1.19058 0.664063,-1.78125 1.272435,-0.44439 2.503631,-1.03246 3.662109,-1.74609 -0.501989,0.93838 -1.03058,1.87536 -1.574219,2.82226 -0.170233,0.15958 -0.346991,0.31485 -0.513672,0.47657 1.121481,-0.11948 2.356284,-0.18164 3.716797,-0.18165 0.252842,0 0.733036,0.0257 1.306641,0.0625 0.07961,-0.12794 0.16149,-0.25428 0.240234,-0.38281 0.04346,-0.054 0.124486,-0.15254 0.169922,-0.20898 0.523724,-0.20493 1.076927,-0.42379 1.626953,-0.63281 0.185687,-0.40665 0.444218,-0.78877 0.738281,-1.15821 0.656563,0.0539 1.31406,0.10594 1.96875,0.14063 0.189762,-0.0709 0.378548,-0.14241 0.572266,-0.21485 v -1.42578 c -0.655273,0.29912 -1.366439,0.63274 -2.066406,0.95703 0.637935,-0.68898 1.371659,-1.34419 2.066406,-2.01367 V 95.791016 c 0,-4.864 0.352641,-8.513313 1.056641,-10.945313 1.216,-4.224 3.648875,-6.335937 7.296875,-6.335937 1.41245,0 2.619763,0.314889 3.642578,0.912109 0.511782,-1.583696 1.022279,-3.16846 1.412109,-4.78125 1.25265,1.01177 2.17759,2.661445 2.29883,3.650391 0.0242,0.197532 0.0317,0.395715 0.043,0.59375 -0.46343,0.992828 -0.93314,1.975349 -1.41016,2.943359 0.19688,0.340985 0.37844,0.704046 0.54102,1.097656 0.896,2.176 1.34375,5.857016 1.34375,11.041016 v 16.019533 c 1.2105,0.82712 2.40043,1.88991 2.54101,3.26172 0.15361,1.49881 -0.85762,3.10719 -2.25195,4.59375 0.67281,-0.0635 1.46363,-0.14505 2.49609,-0.25977 1.152,-0.128 2.43185,-0.1914 3.83985,-0.19141 0.576,0 1.98265,0.0951 4.22265,0.28711 0.512,0 1.31239,0.0654 2.40039,0.19336 V 89.742188 c 0,-1.299297 -0.0545,-2.5106 -0.14062,-3.669922 -1.2089,0.936581 -2.41521,1.874696 -3.65234,2.767578 -0.67241,0.746087 -1.34601,1.491442 -2.01758,2.238281 0.18815,-0.430513 0.31969,-0.926444 0.51758,-1.318359 0.14894,-0.294978 0.28617,-0.595842 0.43164,-0.892578 0.0756,-0.05351 0.14871,-0.110937 0.22461,-0.164063 1.42284,-1.662957 2.83417,-3.336519 4.25195,-5.003906 -0.46655,-3.354533 -1.35816,-6.020179 -2.6875,-7.972657 -1.98318,-2.94796 -5.14947,-4.644131 -9.4668,-5.123046 -0.6273,0.152901 -1.28519,0.350595 -1.96875,0.583984 0.132,-0.232703 0.26556,-0.463539 0.39649,-0.697266 -0.35177,-0.01449 -0.69118,-0.04297 -1.05664,-0.04297 z M 86.601562,115.21094 c -0.897783,0.33561 -1.885258,0.70528 -2.707031,1.01758 -0.193141,0.42297 -0.310396,0.87232 -0.333984,1.35351 0.415301,0.0331 0.717589,0.0531 1.214844,0.0957 0.06412,0 0.172982,0.01 0.246093,0.0117 0.671502,-0.46045 1.44086,-1.11771 2.152344,-1.74414 v -0.70703 c -0.190466,-0.006 -0.381409,-0.0172 -0.572266,-0.0273 z M 195.42773,70.447266 c -3.13712,0 -5.9692,0.463992 -8.5039,1.380859 -0.62858,0.891107 -1.16672,1.625816 -1.70117,2.347656 -0.11427,-0.112097 -0.23464,-0.205197 -0.35938,-0.283203 0.51297,-0.500753 0.72566,-0.834414 0.13477,-0.757812 -0.31541,0.04089 -0.60959,0.08979 -0.90039,0.142578 -0.12795,0.103834 -0.26016,0.20322 -0.39063,0.304687 -0.0378,-0.0036 -0.0753,-0.0077 -0.11328,-0.0098 0.14369,-0.09203 0.28419,-0.186744 0.42578,-0.28125 -0.13088,0.02439 -0.25475,0.05135 -0.38086,0.07813 -1.59475,0.942655 -3.04291,2.110352 -4.33789,3.509765 -3.904,4.224 -5.85742,9.759422 -5.85742,16.607422 0,1.667407 0.0955,3.25189 0.27344,4.763672 0.26902,-0.457395 0.42184,-0.695684 0.79492,-1.349609 0.20116,-0.299737 0.41393,-0.610085 0.68945,-0.994141 -0.45349,1.054262 -0.9138,2.106421 -1.38476,3.154297 0.57243,4.046223 1.80566,7.513863 3.70117,10.402343 0.88862,-1.02606 1.90709,-2.18802 3.38476,-3.9043 0.41072,-0.39554 0.83778,-0.77548 1.26954,-1.15234 -0.19718,0.84736 -0.20344,1.77535 -0.4629,2.60742 -0.53597,1.71882 -1.12958,3.40775 -1.75781,5.07813 -0.0691,0.0567 -0.14222,0.11751 -0.21094,0.17382 1.89542,1.99677 4.1884,3.52805 6.875,4.59961 0.46407,-0.0405 0.92854,-0.0763 1.39258,-0.11718 -0.0795,0.18058 -0.16376,0.35883 -0.24414,0.53906 2.85039,0.9604 6.10582,1.44726 9.77735,1.44727 0.5674,0 1.12635,-0.0243 1.68164,-0.0606 0.4835,-1.21728 0.74218,-2.3225 -0.22657,-2.51758 -0.32547,-0.0656 -0.64498,-0.083 -0.96289,-0.0723 0.0386,-0.0864 0.0725,-0.17548 0.11133,-0.26171 2.73659,-0.25326 5.47318,-0.50327 8.20899,-0.76563 0.0159,0.18421 0.0354,0.3716 0.0664,0.56445 -0.42048,0.63328 -0.84178,1.2671 -1.26953,1.89453 2.14412,-0.71772 4.18611,-1.74377 6.11719,-3.10156 l 2.11328,-5.375 -1.15234,-0.86523 c -1.664,1.344 -3.45696,2.39997 -5.37696,3.16797 -0.48635,0.19454 -0.97443,0.36251 -1.46484,0.50781 0.0257,0.20349 0.1075,0.40045 0.27344,0.58594 0.0408,0.0456 0.0787,0.0739 0.11914,0.11718 -0.52052,0.0534 -0.69573,0.0731 -1.24024,0.12891 -1.7183,0.17611 -3.43779,0.34417 -5.15625,0.51953 0.12735,-0.25811 0.25745,-0.50835 0.38672,-0.76367 -4.22717,-0.27454 -7.34736,-1.97173 -9.33398,-5.12695 -1.8484,-2.8682 -2.77368,-7.07127 -2.78125,-12.605472 -0.036,0.290684 -0.0816,0.577733 -0.16016,0.853516 -0.016,0.05623 -0.0346,0.111779 -0.0508,0.167968 -1.16614,1.011981 -2.3604,2.095861 -3.57617,3.234376 0.0179,-0.02974 0.0424,-0.06936 0.0605,-0.09961 0.52572,-0.690753 1.05733,-1.375664 1.60547,-2.048828 0.71669,-0.880155 1.44478,-1.750711 2.17383,-2.621094 -0.0118,0.150136 -0.0277,0.298874 -0.0449,0.447266 h 10.00195 c 0.22001,-0.265075 0.43957,-0.538159 0.64063,-0.789063 -0.041,0.263949 -0.0809,0.527674 -0.13086,0.789063 h 16.93359 c 0,-7.488 -1.40665,-13.24925 -4.22265,-17.28125 -3.2,-4.608 -8.35304,-6.910156 -15.45704,-6.910156 z m -11.4082,2.84375 c 0.0251,-0.0047 0.0528,-0.0091 0.0781,-0.01367 0.11179,-0.09073 0.23239,-0.172659 0.34179,-0.265625 -0.13672,0.09718 -0.27998,0.185894 -0.41992,0.279297 z m 268.89258,-2.84375 c -0.28553,0 -0.57139,0.01038 -0.85742,0.01953 -0.44451,0.58408 -0.88948,1.167873 -1.33399,1.751953 -0.17387,0.09483 -0.33942,0.195469 -0.5039,0.296875 0.37643,-0.651522 0.76476,-1.343569 1.14648,-2.017578 -2.69309,0.155335 -5.4082,0.709327 -8.14648,1.675781 -3.2,1.088 -5.88846,2.657078 -8.06446,4.705078 l 1.24805,5.759766 h 0.67188 c 0.384,-1.152 1.63214,-2.368438 3.74414,-3.648438 2.56,-1.536 5.21675,-2.304687 7.96875,-2.304687 0.73077,0 1.43562,0.0974 2.12109,0.271484 0.52831,-0.686378 0.96217,-1.269065 1.47266,-1.939453 -0.0513,0.260354 -0.0596,1.385976 -0.0664,2.429688 0.95048,0.429775 1.85528,1.035382 2.71094,1.832031 1.92,1.664 2.88086,3.615469 2.88086,5.855469 0,0.832 -0.12877,1.535328 -0.38477,2.111328 -0.192,0.576 -0.54269,1.120812 -1.05469,1.632812 -0.896,0.576 -2.04903,1.087157 -3.45703,1.535156 -0.896,0.256001 -2.07878,0.576938 -3.55078,0.960938 -1.74601,0.423788 -3.33198,0.852369 -4.77734,1.285156 -0.37058,0.580826 -0.82203,1.256282 -1.41797,2.091797 -0.16224,0.109644 -0.32447,0.219544 -0.48633,0.330078 0.0412,-0.289476 0.0842,-0.577781 0.1543,-0.853515 0.16972,-0.419396 0.30578,-0.765895 0.46679,-1.167969 -3.33857,1.074869 -5.77915,2.177137 -7.28515,3.306641 -2.816,2.111999 -4.22266,5.343313 -4.22266,9.695313 0,3.61802 1.06498,6.53509 3.17774,8.76172 0.50181,-0.0295 1.00407,-0.0497 1.50586,-0.0801 -0.14219,0.35783 -0.28543,0.71504 -0.42383,1.07422 2.39624,1.93612 5.54505,2.91602 9.46679,2.91602 0.13076,0 0.25891,-0.009 0.38868,-0.0117 0.17361,-0.45433 0.25908,-0.99636 0.45507,-1.42383 0.2087,-0.45512 0.41163,-0.9134 0.61914,-1.36914 0.40801,-0.53286 0.82002,-1.10633 1.23438,-1.71289 2.72089,-0.0943 5.44087,-0.16783 8.00195,-0.23242 0.58997,-0.68378 1.12036,-1.43621 1.58985,-2.25782 0.279,0.79052 0.61829,1.52116 1.01562,2.19336 0.80056,-0.019 1.70478,-0.0408 2.55664,-0.0605 2.63002,1.34605 5.19198,2.83185 7.7793,4.2539 0.17711,0.0973 0.35443,0.19502 0.53125,0.29297 0.57899,-0.13765 1.18647,-0.30696 1.8457,-0.53516 1.728,-0.576 3.20002,-1.15251 4.41602,-1.72851 v -2.20899 c -1.92,0 -3.2335,-0.28728 -3.9375,-0.86328 -0.59071,-0.5907 -0.89409,-1.69545 -0.93945,-3.26758 -1.44314,0.0507 -2.00385,0.0671 -3.14649,0.10743 -1.05764,-0.59178 -2.13227,-1.1486 -3.2207,-1.67578 0.97497,-0.61652 2.06461,-1.31946 3.46484,-2.24024 0.56587,-0.37209 -1.35668,0.0161 -2.03125,0.0762 -1.76555,0.15707 -3.52647,0.34384 -5.28711,0.54492 -1.33547,-0.42753 -2.29324,-0.76096 -3.02929,-0.96875 0.56489,-0.14193 1.14897,-0.38547 1.74414,-0.7207 0.22601,0.007 0.4525,0.004 0.67968,-0.0137 0.76014,-0.0596 1.24579,-0.91484 1.70508,-1.52344 0.094,-0.1246 0.18266,-0.25332 0.27539,-0.3789 2.23711,-1.91535 4.11214,-4.171499 4.44336,-4.507818 2.05805,-3.051501 3.34719,-4.948375 4.38281,-6.476562 v -8.714844 c 0,-4.416 -2.04853,-7.776078 -6.14453,-10.080078 -3.264,-1.856 -7.2957,-2.783203 -12.0957,-2.783203 z m 113.4375,0 c -1.42159,0 -2.74378,0.143935 -3.98633,0.402343 -0.59384,0.998655 -1.37995,2.546817 -2.20703,4.259766 -0.058,-0.09913 -0.12641,-0.178072 -0.19531,-0.255859 0.55984,-0.514766 0.74311,-0.844438 0.0371,-0.759766 -0.44014,0.05279 -0.85723,0.151636 -1.26367,0.271484 -0.13062,0.0024 -0.26507,0.01292 -0.4043,0.03516 0.21919,-1.054887 0.35034,-1.663202 0.5,-2.359375 -1.14874,0.566823 -2.19853,1.277259 -3.13672,2.148437 -2.176,2.048 -3.84019,5.057391 -4.99219,9.025391 v -11.9043 c -0.704,0.064 -1.6312,0.159109 -2.7832,0.287109 -1.152,0.128 -2.43184,0.19336 -3.83985,0.19336 -0.16478,0 -0.61861,-0.02214 -0.85156,-0.02734 -0.51564,0.551163 -1.0276,1.105017 -1.54687,1.654297 -0.90461,0.505918 -1.77928,1.082131 -2.64453,1.671875 0.0589,-0.236362 0.11495,-0.444557 0.17578,-0.712891 0.0732,-0.322722 0.18626,-0.732533 0.27344,-1.083984 0.56891,-0.535976 1.14546,-1.071593 1.73632,-1.59375 -0.055,-0.0025 -0.0628,-0.0013 -0.11914,-0.0039 -1.344,-0.127999 -2.56044,-0.256765 -3.64844,-0.384765 v 40.728512 c 0.007,-0.0267 0.013,-0.0534 0.0195,-0.0801 1.27393,-0.11841 2.54932,-0.23037 3.82422,-0.33984 -0.24515,0.0728 -0.48789,0.15994 -0.73438,0.22461 -1.03635,0.27189 -2.07269,0.53912 -3.10938,0.80859 v 2.84571 c 1.37251,-0.33591 2.81339,-0.69138 3.92969,-0.97461 -0.58392,0.58946 -1.17881,1.16988 -1.79297,1.72851 -0.51488,0.46835 -1.02323,1.00974 -1.54101,1.55664 0.62905,-0.0613 1.28388,-0.12594 2.18945,-0.22656 0.27074,-0.0301 0.57255,-0.0454 0.85742,-0.0684 1.64081,-1.06523 3.45952,-2.69891 5.23242,-4.46679 1.35504,-0.48469 2.76512,-1.07291 4.37305,-1.85157 v -10.70117 -4.126951 c 0,-1.600001 0.0317,-2.976907 0.0957,-4.128907 0.064,-1.216 0.22446,-2.176859 0.48046,-2.880859 0.576,-1.984 1.63197,-3.519422 3.16797,-4.607422 1.6,-1.152 3.48807,-1.728516 5.66407,-1.728516 0.89599,0 1.7915,0.09706 2.6875,0.289063 0.89599,0.192 1.63298,0.510984 2.20898,0.958984 l 0.86328,-0.767578 c 0,-2.112 0.0317,-4.384406 0.0957,-6.816406 0.064,-2.496 0.19277,-4.574281 0.38477,-6.238281 z m 27.32812,0 c -6.784,0 -12.15895,2.14364 -16.12695,6.43164 -3.65638,3.956088 -5.57848,9.078218 -5.81055,15.335938 1.73589,-2.045895 3.23552,-4.242822 4.16211,-5.609375 0.4926,0.0596 1.01847,0.125318 1.57422,0.191406 -0.617,1.050809 -1.44505,2.236811 -1.54101,3.054687 -0.63431,1.037574 -1.26773,2.064311 -1.90625,3.152344 -0.77352,0.02093 -1.54768,0.05541 -2.32227,0.09766 -10e-4,0.130464 -0.0137,0.253336 -0.0137,0.384766 0,1.018192 0.0332,2.006633 0.0996,2.966797 0.0794,-0.0072 0.16158,-0.0144 0.24023,-0.02148 -0.0867,0.08349 -0.14146,0.134667 -0.22265,0.21289 0.23401,3.158863 0.82705,6.001901 1.78515,8.527351 0.49797,-0.33781 0.93228,-0.70392 1.18555,-1.13282 0.13002,-0.22019 0.22509,-0.45445 0.30664,-0.69336 -0.41643,0.26506 -0.68939,0.40291 -0.38867,0.082 0.19199,-0.20486 0.34492,-0.35759 0.52539,-0.54687 0.0919,-0.3853 0.14974,-0.7828 0.19922,-1.18555 0.23918,0.094 0.4982,0.15035 0.77148,0.17578 2.09895,-2.126307 3.23296,-3.003564 3.96094,-3.517576 -0.78006,1.033292 -1.60235,2.034766 -2.49414,2.982426 -0.13005,0.13819 -0.3718,0.33381 -0.58399,0.51562 0.33278,-0.0329 0.67487,-0.09 1.0254,-0.16992 -1.16073,1.45294 -2.57139,3.42942 -3.88282,4.9707 0.0835,0.18145 0.16823,0.36124 0.25586,0.53907 1.66941,-0.76312 3.3533,-1.71619 4.79102,-2.6543 -1.0797,1.82553 -2.1062,3.67989 -3.05078,5.57422 0.50031,0.7017 1.0377,1.37103 1.62109,2 0.60072,0.64765 1.24771,1.24229 1.92969,1.79492 0.1701,-0.4652 0.32715,-0.93556 0.50781,-1.39648 2.59917,-0.69785 5.89846,-2.54456 7.28516,-4.34571 0.31549,-0.40979 0.60458,-0.83894 0.88476,-1.27344 -1.68924,-2.86548 -2.54297,-6.939874 -2.54297,-12.25195 h 26.28516 c 0.15398,-1.172614 0.34946,-2.341135 0.60352,-3.501953 0.009,-0.01095 0.0198,-0.02227 0.0293,-0.0332 -0.271,1.327592 -0.44764,2.642333 0.0703,2.402343 0.14577,-0.06753 0.28821,-0.144111 0.4336,-0.21289 -0.16287,-6.826105 -1.54719,-12.1523 -4.18945,-15.935547 -3.2,-4.608 -8.35304,-6.910156 -15.45704,-6.910156 z m -16.59961,31.404294 c -0.30561,0.0302 -0.60286,0.0456 -0.88281,0.0195 -0.29595,0.29981 -0.63738,0.66018 -0.9707,1.00977 -0.0376,0.15765 -0.0848,0.31278 -0.13672,0.46484 0.54902,-0.34945 1.34197,-0.93865 1.99023,-1.49414 z m 72.0879,-31.404294 c -2.88,0 -5.63186,0.766734 -8.25586,2.302734 -0.6783,0.406978 -1.34915,0.87997 -2.01563,1.386719 -0.66907,1.512219 -1.41729,3.112255 -2.57226,5.664062 -0.30871,0.526174 -0.6061,1.060304 -0.90625,1.591797 -0.32826,0.228007 -0.65344,0.45913 -0.97852,0.691406 -0.22631,-0.139844 -0.38523,-0.244625 -0.6543,-0.408203 -0.13719,-0.08341 0.36498,0.18622 0.33399,0.34375 -0.0242,0.122889 -0.0606,0.243102 -0.0879,0.365235 -0.82083,0.594052 -1.6372,1.193106 -2.43164,1.820312 0.21497,-0.359372 0.57406,-0.956892 0.78125,-1.304687 1.56458,-2.407124 2.947,-4.675297 4.36132,-6.921875 -0.7934,0.746879 -1.58119,1.541712 -2.35742,2.435546 v -5.339843 c -0.38025,0.157393 -0.58593,0.17381 -0.66601,0.0918 0.22066,-0.260627 0.44445,-0.525701 0.66601,-0.78711 V 71.31055 c -0.704,0.064 -1.60145,0.159109 -2.68945,0.287109 -0.23994,0.02999 -0.52621,0.04528 -0.78711,0.06836 -2.47385,2.913971 -6.13969,7.240053 -9.29297,10.970703 v 5.558593 c 1.59148,-1.342631 2.48773,-3.349727 3.78711,-4.980468 0.9192,-1.153599 1.83286,-2.277464 2.74609,-3.390625 -1.78593,3.273547 -3.66577,6.864657 -4.62695,9.292969 -0.59401,0.71557 -1.28716,1.455585 -1.90625,2.193359 v 26.06836 c 1.07334,-0.15959 2.14619,-0.32444 3.2207,-0.47461 1.65666,-0.21563 3.00315,-0.37424 4.29102,-0.52539 0.0263,0.362 0.0607,0.71437 0.10156,1.06054 0.75399,0.0423 1.74009,0.11004 3.23633,0.23828 0.512,0 1.31044,0.0654 2.39844,0.19336 V 95.791016 c 0,-4.864 0.35264,-8.513313 1.05664,-10.945313 1.07142,-3.721783 3.08917,-5.801647 6.04883,-6.244141 0.1698,-0.341427 0.36363,-0.72992 0.5625,-1.130859 0.37149,0.34831 0.74383,0.623157 1.11328,0.824219 0.077,-0.0584 0.15295,-0.117816 0.23047,-0.175781 -0.0546,0.06034 -0.12824,0.127113 -0.19922,0.195312 0.19704,0.105159 0.394,0.190852 0.58984,0.257813 2.57556,0.301726 4.40348,1.750803 5.47852,4.353515 0.23729,0.576294 0.44081,1.265353 0.61523,2.052735 0.32619,-1.729545 0.77469,-3.405373 1.3457,-5.064454 0.46522,-0.722048 1.22668,-1.659153 0.61915,-1.605468 -0.005,4.07e-4 -0.009,0.0015 -0.0137,0.002 0.0969,-0.248084 0.17928,-0.495855 0.28125,-0.744141 -0.80013,0.430533 -1.62222,0.826411 -2.44531,1.220703 0.53505,-1.827327 1.09426,-3.64904 1.73828,-5.4375 0.5575,-0.895756 1.01119,-1.741233 1.41211,-2.533203 -1.26446,-0.241828 -2.63571,-0.36914 -4.1289,-0.36914 z m -5.49219,7.867187 c -0.0105,-0.0056 -0.0208,-0.01383 -0.0312,-0.01953 -0.0978,0.07415 -0.19616,0.147614 -0.29297,0.222656 0.0389,5.49e-4 0.0747,0.0068 0.11328,0.0078 0.088,-0.07745 0.13504,-0.138014 0.21094,-0.210938 z M 320.9082,70.585938 c -0.89264,1.154886 -1.79174,2.304181 -2.69922,3.447265 0.10877,-0.867413 0.19613,-1.738643 0.23438,-2.619141 -0.68069,0.199523 -1.37068,0.373374 -2.0625,0.542969 0.86936,-0.790552 1.95413,-1.61741 1.36133,-1.216797 -0.62736,0.423962 -1.23598,0.874805 -1.83789,1.333985 -1.35353,0.328692 -2.70672,0.658658 -4.00977,1.123047 0.14321,-0.733366 0.27675,-1.452027 0.40039,-2.160157 -3.99397,0.871457 -7.34818,2.716691 -10.0664,5.53125 0.39962,0.627758 0.94023,1.229571 1.26562,1.871094 0.008,0.05244 0.2121,1.868466 0.54297,3.773438 -0.40432,1.547475 -0.86682,3.074988 -1.38867,4.546875 -1.04603,1.167068 -2.2832,2.360326 -1.38867,3.203125 0.0244,0.02303 0.0512,0.0374 0.0762,0.05859 -0.35783,0.763519 -0.7323,1.493013 -1.13477,2.16211 0.95419,-0.638107 1.94975,-1.224013 2.94531,-1.810547 1.33183,-0.251686 2.87561,-1.195686 4.19727,-1.414063 0.28307,-0.666086 0.5563,-1.355902 0.82031,-2.060546 0.0608,-0.05616 0.12564,-0.106785 0.18555,-0.164063 0.2617,-0.250211 0.47086,-0.53866 0.6543,-0.845703 0.31553,-0.194797 0.62701,-0.395594 0.93945,-0.595703 -0.57747,2.309401 -1.2143,4.605074 -1.83594,6.90039 -0.18988,0.701061 -1.07196,2.17658 -0.85351,2.466797 -0.25739,0.04071 -0.0538,0.518076 -0.0801,0.777344 -0.14857,0.434146 -0.29675,0.868589 -0.44531,1.302734 -0.34136,0.311694 -0.67442,0.633397 -0.99414,0.96875 -0.57551,0.603635 -1.02802,1.296273 -1.42969,2.027344 -1.84242,0.485335 -3.74787,0.979755 -5.63672,1.472655 1.15322,-0.73334 2.01707,-1.283546 3.68164,-2.337889 -1.16107,-4.63784 -0.58614,-3.573092 -5.88281,0.359375 0.20599,1.404674 0.49457,2.735954 0.86132,4.000004 2.01557,-0.52844 4.02997,-1.06108 6.04493,-1.5918 -0.40048,0.88139 -0.79549,1.76704 -1.27344,2.59375 -0.0337,0.0582 -0.0527,0.089 -0.0859,0.14649 -0.97064,0.51894 -2.04752,1.09695 -3.57812,1.92968 0.14094,0.32027 0.29178,0.63216 0.44531,0.94141 0.68422,-0.34665 1.36847,-0.68737 2.05273,-1.02539 -0.007,0.012 -0.0145,0.0232 -0.0215,0.0352 -0.65946,0.36868 -1.31538,0.74259 -1.97266,1.11523 0.16847,0.3341 0.346,0.66131 0.5293,0.98242 0.10603,-0.0563 0.21011,-0.11604 0.31641,-0.17187 -0.062,0.10462 -0.15015,0.25519 -0.21094,0.35742 0.72427,1.23959 1.56292,2.37886 2.51172,3.42187 0.21417,-0.34196 0.61041,-0.97386 0.80468,-1.28515 -0.10894,0.61082 -0.19545,1.19587 -0.2539,1.73828 -0.0272,0.0133 -0.0548,0.0258 -0.082,0.0391 4.05718,4.1529 9.8747,6.24744 17.45898,6.27539 0.15059,-0.0541 0.3006,-0.10989 0.45117,-0.16406 0.84547,-0.0851 1.69149,-0.16757 2.53711,-0.25195 -0.0423,0.0862 -0.0863,0.17173 -0.1289,0.25781 3.99239,-0.42889 7.6691,-1.80439 11.01953,-4.16016 l 0.0547,-0.14062 c -0.75409,0.0775 -1.50765,0.15883 -2.26172,0.23633 0.84441,-0.30778 1.68889,-0.61577 2.5332,-0.92383 l 0.75391,-1.91797 c -1.57162,0.5849 -3.14745,1.15785 -4.72071,1.73828 0.49586,-1.07532 0.96145,-2.10569 1.41407,-3.11133 -0.71216,0.38863 -1.43829,0.74641 -2.18946,1.04688 -1.21728,0.48691 -2.44855,0.80216 -3.6914,0.98047 -0.44301,0.98886 -0.90364,1.96617 -1.35157,2.9414 -3.07852,0.31782 -6.1564,0.64054 -9.23437,0.96289 2.32417,-0.90029 4.64819,-1.8001 6.97266,-2.69922 1.3573,-0.52501 1.69641,-0.65072 2.87304,-1.10351 -0.47267,0.0443 -0.94742,0.0703 -1.42383,0.0703 -0.86952,0 -1.68119,-0.0751 -2.46484,-0.18555 -0.86047,0.33604 -1.58586,0.62271 -2.51367,0.98243 0.43818,-0.36005 0.82821,-0.77441 1.17969,-1.22852 -2.94014,-0.70166 -5.20228,-2.27519 -6.76172,-4.75195 -1.856,-2.88 -2.78321,-7.10388 -2.78321,-12.671881 h 3.22071 c 0.16051,-0.218529 0.35372,-0.468124 0.57422,-0.726563 -0.27086,0.066 -0.54216,0.137025 -0.8125,0.210938 0.24194,-0.618458 0.48462,-1.237012 0.72656,-1.855469 0.11138,-0.23336 0.43533,-0.710781 0.52734,-0.921875 0.516,-0.40526 0.97298,-0.852606 1.41992,-1.314453 h -5.65625 c 0,-3.776 0.44775,-6.977564 1.34375,-9.601562 1.28,-3.776 3.45535,-5.664063 6.52735,-5.664063 1.1326,0 2.10533,0.39879 2.9375,1.150391 1.14454,-1.438693 2.27908,-2.885887 3.64648,-4.632813 -1.19165,-0.330906 -2.46499,-0.564135 -3.82422,-0.697265 z m -6.83593,23.326171 c 0.22663,-0.05523 0.44269,-0.09462 0.66796,-0.144531 0.23145,-0.389403 0.47451,-0.762247 0.71875,-1.128906 -0.46822,0.277008 -0.96302,0.77683 -1.38671,1.273437 z m 1.38671,-1.273437 c 0.45524,-0.269327 0.8759,-0.323799 1.15625,0.06445 0.0598,0.0828 0.10003,0.168155 0.12696,0.255859 -0.0793,0.08598 -0.1655,0.165436 -0.24219,0.253907 -0.0628,0.0724 -0.10885,0.154789 -0.16602,0.230468 -0.51632,0.09111 -1.05443,0.20472 -1.59375,0.324219 -0.16891,0.284205 -0.32665,0.578806 -0.48828,0.871094 h 23.48047 c 0,-7.488 -1.40665,-13.24925 -4.22265,-17.28125 -1.67257,-2.408496 -3.88367,-4.180929 -6.62305,-5.330078 0.01,0.0062 0.0175,0.0156 0.0273,0.02148 -0.13218,0.133057 -0.25285,0.280917 -0.36133,0.44336 -1.53743,1.459667 -3.00706,3.047421 -4.41601,4.677734 0.55836,0.87981 1.02461,1.990249 1.38867,3.355469 0.64,2.368 0.95898,5.537859 0.95899,9.505859 h -6.91211 c -0.74449,0.708456 -1.44922,1.610547 -2.11329,2.607422 z M 514.32617,70.902344 c -0.79775,1.304786 -1.44071,2.705906 -2.18359,4.044922 -0.81649,1.88262 -1.74574,3.720738 -2.44922,5.648437 -0.0125,0.03437 -0.0366,0.07589 -0.0508,0.111328 0.53103,0.614987 0.98815,1.343632 1.34961,2.21875 0.896,2.176 1.34375,5.857016 1.34375,11.041016 V 114.9668 c 2.07696,0.32123 4.28738,-0.40364 6.47265,-0.92774 -0.71281,1.13176 -1.41289,2.2714 -2.10156,3.41797 0.71412,-0.0407 1.45793,-0.0664 2.25391,-0.0664 0.576,0 1.98265,0.0951 4.22265,0.28711 0.512,0 1.31239,0.0654 2.40039,0.19336 v -15.3379 c -1.41389,0.31646 -2.82898,0.6284 -4.24414,0.93946 0.6825,-0.26092 1.08292,-0.40303 1.86133,-0.70313 0.78939,-0.30433 1.58724,-0.59184 2.38281,-0.88281 v -2.271486 c -3.9341,1.532766 -7.30837,2.756136 -11.49023,4.279296 1.0022,-1.66752 1.99798,-3.33989 3.00586,-5.003905 1.05386,-1.875614 2.57964,-4.589513 3.99414,-7.105469 0.67351,-0.533412 1.34639,-1.066602 2.00586,-1.617187 0.37457,-0.215989 0.72802,-0.439286 1.06641,-0.667969 0.0199,0.06572 0.054,0.137013 0.0644,0.199219 0.45694,0.150533 0.90321,0.351629 1.35351,0.535156 v -3.179687 c 0,-2.816 -0.25557,-5.151813 -0.76757,-7.007813 -0.512,-1.856 -1.59968,-3.583594 -3.26368,-5.183594 -2.06068,-2.016843 -4.47491,-3.325767 -7.22656,-3.960937 z M 73.925781,71.310547 v 8.285156 c 1.226399,-2.846081 2.248638,-5.411806 3.72461,-7.892578 -0.115128,-0.0052 -0.146771,-0.0021 -0.267579,-0.0078 -1.279998,-0.127999 -2.433031,-0.256765 -3.457031,-0.384765 z m 56.601559,0 c -0.7066,0.682559 -1.40648,1.371053 -2.08593,2.078125 0.0455,0.405127 0.0742,0.803159 0.0742,1.185547 0,0.384 -0.0634,0.83175 -0.1914,1.34375 -0.064,0.512 -0.15911,1.151922 -0.28711,1.919922 0.22181,0 0.71475,-0.02704 0.99805,-0.0332 0.12479,-0.182277 0.22791,-0.329446 0.3457,-0.5 1.0511,-1.071265 2.11344,-2.129707 3.18555,-3.179688 -0.65106,1.17303 -1.35858,2.401426 -2.06836,3.630859 1.7729,-0.07213 3.97945,-0.187823 7.13867,-0.398437 4.8,-0.32 8.95851,-0.478516 12.47851,-0.478516 -4.416,6.72 -8.54281,12.863641 -12.38281,18.431641 -1.35569,1.981399 -2.73921,3.953057 -4.11523,5.92773 1.21668,-0.94777 2.312,-1.997554 3.19726,-2.765621 0.13288,-0.171659 0.12976,-0.169299 0.25586,-0.332031 0.14072,-0.09427 0.28142,-0.188525 0.42188,-0.283203 1.11869,-0.322901 2.30448,-0.66579 3.54687,-1.025391 -0.50717,0.670615 -1.01055,1.344123 -1.51758,2.015625 -0.6718,0.500785 -0.89761,0.684575 -1.69921,1.279291 -2.34768,1.74179 -4.66257,3.53512 -7.0625,5.20313 -0.60348,0.85521 -1.21886,1.70662 -1.82618,2.56054 2.35675,-1.1657 4.89263,-2.78929 7.3711,-4.52343 -0.34852,0.54019 -0.68987,1.08555 -1.01172,1.64258 -0.40973,0.70911 -1.13265,1.65271 -1.75586,2.58789 -1.22327,0.95161 -2.47808,1.9209 -4.11133,3.18359 -0.96964,0.16394 -1.94004,0.32366 -2.9082,0.49609 -0.52081,0.72474 -1.02914,1.45394 -1.55274,2.17774 v 1.20703 c 0.96783,-0.16639 1.9335,-0.34309 2.90235,-0.50391 0.009,0.0541 0.0203,0.11284 0.0293,0.16602 -0.9626,0.19472 -1.93984,0.38287 -2.93164,0.57031 v 2.49609 h 1.07227 c 0.85296,-0.18006 1.53549,-0.32203 2.31445,-0.48632 0.0339,0.17845 0.071,0.32481 0.10547,0.48632 h 37.97852 c -0.128,-0.70399 -0.25482,-1.34392 -0.38282,-1.91992 -0.049,-0.44123 -0.0628,-0.73835 -0.0742,-1.02929 -0.34098,0.58819 -0.67791,1.17881 -1.02735,1.76171 -0.17552,-2.7979 -0.75404,-2.16945 -1.20898,-1.05273 0.24756,-0.88055 0.6131,-2.2818 1.10351,-4.20898 -0.58831,0.0219 -3.68671,0.18062 -5.71484,0.28125 -0.60019,1.85686 -1.24514,3.70631 -1.54102,5.61132 -2.58976,0.13763 -5.18098,0.21262 -7.77343,0.19532 -1.25355,-0.5822 -2.49393,-0.74455 -3.73047,-0.70118 0.0283,-0.063 0.0518,-0.12623 0.0801,-0.18945 0.15064,-0.22778 0.30253,-0.45636 0.45703,-0.67969 0.49857,-0.27085 0.69012,-0.37546 1.25586,-0.68164 1.54166,-0.83433 3.25499,-1.54169 4.41992,-2.85156 0.0911,-0.10241 0.17245,-0.24699 0.25781,-0.38086 -3.62762,0.18347 -7.22657,0.27735 -10.79297,0.27735 2.432,-3.84 5.21556,-8.03218 8.35156,-12.576173 1.28,-1.856 4.16063,-5.95111 8.64063,-12.28711 l 8.44922,-11.904296 V 71.31055 h -22.89063 c -0.64728,0.297256 -1.29553,0.58273 -1.95507,0.826172 -0.24186,0.561796 -0.597,1.087788 -0.72657,1.685547 -0.12176,0.561752 -0.21259,1.458381 -0.28906,2.425781 -0.30093,0.103197 -0.60226,0.219765 -0.9043,0.347656 0.0997,-0.202514 0.19258,-0.40705 0.29297,-0.609375 -0.0844,-0.385081 0.0973,-1.33325 -0.2539,-1.154297 -0.24648,0.125567 -0.42182,0.225795 -0.65821,0.347657 0.39043,-0.909964 0.75922,-1.829329 1.08203,-2.765626 0.11538,-0.334626 0.27824,-0.709994 0.45899,-1.103515 z m 120.13477,0 c 0,0.256 0.0951,0.672047 0.28711,1.248047 0.128,0.704 0.19141,1.375625 0.1914,2.015625 0,0.384 -0.0634,0.83175 -0.1914,1.34375 -0.064,0.512 -0.15911,1.151922 -0.28711,1.919922 0.61335,0 1.67623,-0.04664 2.75977,-0.09375 0.85223,-0.807946 1.70855,-1.609699 2.58593,-2.388672 0.0881,0.223622 0.18038,0.444216 0.27149,0.666015 -1.35528,0.582053 0.46263,-1.751938 -2.01563,1.695313 1.59964,-0.08012 3.59883,-0.199427 5.99805,-0.359375 4.8,-0.32 8.95851,-0.478516 12.47851,-0.478516 -4.416,6.72 -8.54281,12.863641 -12.38281,18.431641 -4.16,6.080003 -8.41558,12.128533 -12.76758,18.144533 v 3.93554 h 8.04883 c -3.8e-4,-0.002 3.8e-4,-0.002 0,-0.004 0.6442,-0.91334 1.25831,-1.8497 1.89649,-2.76758 0.40336,0.40241 0.81502,0.79243 1.23242,1.16016 -0.78543,0.81624 -1.68292,1.48278 -2.66211,1.61132 h 1.38086 c 0.58681,-0.3982 1.16925,-0.80395 1.74609,-1.21874 0.49752,0.4248 0.99626,0.84486 1.45117,1.21874 h 17.05469 c 2.10276,-1.11094 3.97168,-2.4032 5.68945,-3.87109 0.74597,-0.42777 1.49097,-0.85771 2.24219,-1.27539 -0.17399,0.4998 -0.34112,0.95359 -0.51367,1.45898 -2.21278,1.26359 -4.37513,2.51378 -6.3418,3.6875 h 2.26953 c 1.17627,-0.7586 2.37453,-1.50933 3.5918,-2.25195 -0.21141,0.63392 -0.42173,1.26642 -0.62109,1.88867 -0.11364,0.1193 -0.22753,0.23883 -0.33399,0.36328 h 5.33985 c -0.128,-0.70399 -0.25482,-1.34392 -0.38282,-1.91992 -0.064,-0.576 -0.0957,-1.02375 -0.0957,-1.34375 0,-0.38399 0.0317,-0.83175 0.0957,-1.34375 0.128,-0.512 0.25482,-1.15192 0.38282,-1.91992 -0.40711,0 -5.21492,0.24139 -12.38672,0.61133 -1.81764,1.15655 -3.57688,2.30639 -5.31445,3.44531 -0.19108,0.0914 -0.38097,0.18651 -0.57227,0.27735 -1.3207,-0.44173 -2.48215,-1.27057 -3.72461,-1.90235 -0.53964,-0.43922 -1.15738,-0.93722 -1.7832,-1.48437 -0.29601,10e-4 -0.59505,0.0117 -0.89063,0.0117 2.432,-3.84 5.21556,-8.03218 8.35156,-12.576176 1.28,-1.856 4.16063,-5.95111 8.64063,-12.28711 l 3.77539,-5.320312 c -0.11652,-1.32478 -0.21889,-2.535761 -0.30273,-3.519531 0.6619,-0.215013 1.34031,-0.373236 2.02343,-0.511719 0.0445,0.0092 0.0991,0.0094 0.17578,-0.0098 0.0845,-0.02106 0.16599,-0.05163 0.25,-0.07422 0.2974,-0.05579 0.59353,-0.116201 0.89258,-0.166016 l 1.63477,-2.302734 v -3.744141 h -1.3711 c 0.0308,0.630809 0.0362,1.263246 0.0137,1.896484 -0.15929,0.588122 -0.32533,1.198396 -0.44727,1.636719 -9.4e-4,0.0034 -0.003,0.0083 -0.004,0.01172 -1.1088,0.535333 -2.17555,1.08675 -3.22851,1.642578 1.01152,-1.757712 2.0669,-3.489257 3.17578,-5.1875 h -2.25977 c -0.19769,0.100292 -0.43245,0.215461 -0.62109,0.3125 0.11005,-0.103711 0.21198,-0.208104 0.31055,-0.3125 z m 96.76758,0 v 10.267578 c 0.0808,-0.20657 0.16936,-0.411013 0.25976,-0.615234 0.26729,0.121684 0.83275,0.175191 1.11914,0.253906 0.5487,0.150804 1.77157,0.203735 2.75391,0.423828 -0.12537,0.883535 -0.0715,1.48678 0.34766,1.328125 0.0784,-0.02969 0.13006,-0.05275 0.20703,-0.08203 -0.53514,0.486734 -1.29011,1.175315 -2.02735,1.847656 -0.28916,-0.03423 -0.64587,-0.0085 -1.03711,0.04297 -0.45058,-0.567553 -0.86156,-1.140428 -1.14257,-1.673828 -0.21048,-0.399478 -0.35353,-0.82644 -0.48047,-1.261719 v 35.777341 c 0.072,-0.0217 0.1398,-0.0493 0.21093,-0.0723 -0.0708,0.0742 -0.13953,0.15122 -0.21093,0.2246 v 0.0996 c 0.704,-0.064 1.6312,-0.16106 2.7832,-0.28906 1.152,-0.128 2.43184,-0.1914 3.83984,-0.19141 0.576,0 1.98461,0.0951 4.22461,0.28711 0.512,0 1.31239,0.0654 2.40039,0.19336 V 71.310547 c -0.704,0.064 -1.63315,0.159109 -2.78515,0.287109 -1.152,0.128 -2.43185,0.19336 -3.83985,0.19336 -0.576,0 -1.56661,-0.0317 -2.97461,-0.0957 -1.34398,-0.127999 -2.56043,-0.256765 -3.64843,-0.384765 z m 274.18359,0 v 0.01367 c 0.004,-0.0043 0.009,-0.0075 0.0137,-0.01172 -0.004,-5.08e-4 -0.01,-0.0014 -0.0137,-0.002 z m -461.60351,0.02539 c -0.008,0.03342 -0.004,0.07123 -0.0156,0.103515 -0.003,0.0091 -0.007,0.01636 -0.01,0.02539 -0.14473,0.21677 -0.27935,0.417499 -0.42579,0.636718 -1.50568,1.474935 -2.71994,2.664594 -3.58398,3.496094 -0.0242,-0.03607 -0.046,-0.07132 -0.0703,-0.107422 0.32336,-0.264404 0.64304,-0.533344 0.95312,-0.814453 0.77773,-0.705071 1.37032,-1.569649 1.92383,-2.470703 0.40464,-0.294279 0.81591,-0.58185 1.22852,-0.86914 z m 496.20507,0.333984 c -0.63391,2.14225 -1.38108,4.251749 -2.13281,6.355469 -0.008,0.02234 -0.0212,0.05753 -0.0293,0.08008 -1.65835,2.040204 -2.79153,4.834087 -3.61328,7.285156 0.4278,2.146221 0.64649,4.993823 0.64649,8.576172 v 15.238282 c 2.10404,-1.54047 3.95433,-3.3673 5.60351,-5.375 0.1906,-0.10164 0.37774,-0.20012 0.57032,-0.30469 -0.0211,0.36813 -0.0402,0.73719 -0.0723,1.10352 -1.56629,1.61734 -3.06476,3.15038 -4.48438,4.59961 -0.3975,-0.01 -0.92488,0.0164 -1.19335,0.0469 -0.0675,0.008 -0.28926,0.0556 -0.42383,0.0801 v 0.95117 c 0.33941,-0.15275 0.63366,-0.2826 0.99414,-0.44531 -0.32929,0.33329 -0.66461,0.68 -0.99414,1.00781 v 3.21289 c 1.4995,-1.31327 2.9471,-2.68966 4.36718,-4.08789 -1.3281,2.26627 -2.89776,4.96945 -4.36718,7.61524 v 0.26171 c 0.704,-0.064 1.63315,-0.16106 2.78515,-0.28906 1.152,-0.128 2.43185,-0.1914 3.83985,-0.19141 0.576,0 1.98265,0.0951 4.22265,0.28711 0.512,0 1.31239,0.0654 2.40039,0.19336 V 113 c -0.48401,0.0957 -0.9347,0.22482 -1.33398,0.4043 -0.0269,-0.0235 -0.0534,-0.0478 -0.0801,-0.0703 0.5439,-0.88785 0.84106,-1.37778 1.41406,-2.33203 v -7.37304 c -0.26606,0.0984 -0.53294,0.19652 -0.7832,0.3164 0.0157,-0.10834 0.0355,-0.21584 0.0508,-0.32422 0.12036,-0.21461 0.2436,-0.4276 0.36328,-0.64257 0.0927,-0.15241 0.26709,-0.44473 0.36914,-0.61329 V 89.742188 c 0,-1.475606 -0.0608,-2.851417 -0.17187,-4.146485 -0.26338,-0.02447 -0.5198,-0.03375 -0.77149,-0.0293 0.0965,-0.38232 0.19579,-0.763851 0.29102,-1.146484 0.0888,-0.356826 0.15994,-0.642388 0.23828,-0.953125 -0.25822,-1.765517 -0.64468,-3.321709 -1.14648,-4.691406 -1.13849,0.960889 -2.23771,1.986626 -3.29883,3.041015 -0.0407,0.0052 -0.0799,0.01179 -0.11914,0.01953 0.13356,-0.374102 0.28293,-0.784122 0.41406,-1.148438 0.37153,-1.705504 2.7992,-4.657843 1.11524,-5.117188 -0.21144,-0.05767 -0.41907,-0.101746 -0.62305,-0.138671 0.0465,-0.125457 0.0963,-0.249462 0.14258,-0.375 0.0372,-0.100942 0.0758,-0.201853 0.11328,-0.302735 -1.13725,-1.342281 -2.57155,-2.370048 -4.30274,-3.083984 z m -31.06836,0.02734 c -1.23276,1.578776 -2.46969,3.160151 -3.5332,4.52539 v 4.363282 c 2.15697,-2.663167 4.52597,-5.615198 7.07227,-8.810547 -0.21842,0.0034 -0.41007,0.01563 -0.63867,0.01563 -0.62363,0 -1.60831,-0.033 -2.9004,-0.09375 z m -388.91601,0.591796 c -0.29796,0.867294 -0.51345,1.775975 -0.76953,2.667969 -0.68746,0.278649 -1.26895,0.554062 -1.78906,0.832031 0.88335,-1.261073 1.74661,-2.458646 2.5371,-3.474609 0.007,-0.0088 0.0147,-0.01664 0.0215,-0.02539 z m 115.64258,0.50586 c 0.86932,0.438865 1.75156,0.851475 2.64257,1.248047 -0.22666,0.593426 -0.45666,1.211717 -0.66601,1.734375 -0.0247,0.0067 -0.0496,0.01075 -0.0742,0.01758 -0.13647,0.10856 -0.28123,0.208277 -0.41992,0.314453 -1.07872,0.258336 -2.14311,0.5731 -3.19922,0.921875 0.48525,0.646909 -0.85429,1.692259 -1.28125,2.453125 -0.29937,0.257595 -0.58744,0.526056 -0.86719,0.804687 0.48297,-0.994162 1.02485,-1.970487 1.49805,-2.949218 0.017,-0.0352 0.0357,-0.06837 0.0527,-0.103516 -0.50366,0.173323 -1.00241,0.361831 -1.50195,0.548828 0.57987,-0.621288 1.23997,-1.070144 1.7207,-0.980468 0.67272,-1.369071 1.3751,-2.701097 2.09571,-4.009766 z m -2.09571,4.009766 c -0.0716,0.145652 -0.14773,0.285225 -0.21875,0.43164 0.19901,-0.06848 0.39795,-0.139126 0.59766,-0.205078 -0.002,-0.0032 -0.003,-0.0066 -0.006,-0.0098 -0.10135,-0.129384 -0.23075,-0.190253 -0.37305,-0.216796 z M 600.91602,72.85937 c 0.0326,0.02612 0.057,0.05971 0.0605,0.113281 0.0593,0.90615 -1.16832,1.392197 -1.75195,2.087891 0.48935,-0.646938 1.08712,-1.407098 1.69141,-2.201172 z m -346.13086,0.220703 c 0.041,0.08676 0.0785,0.173619 0.12695,0.261719 -0.12491,0.07084 -0.24828,0.143792 -0.37305,0.214844 0.0605,-0.116546 0.17555,-0.340695 0.2461,-0.476563 z M 455,73.220703 c -1.15407,1.150551 -1.80297,1.359745 -2.17188,1.449219 0.73443,-0.467193 1.45833,-0.949632 2.17188,-1.449219 z m 146.30859,0.669922 c -0.91408,1.641034 -1.83015,3.281221 -2.72656,4.931641 0.2074,0.523264 0.40169,1.078125 0.56836,1.703125 0.64,2.368 0.95898,5.537859 0.95899,9.505859 h -9.0879 c -0.31926,0.193141 -0.62961,0.388823 -0.92773,0.587891 -0.12977,-0.01355 -0.2589,-0.02371 -0.38672,-0.02539 0.11614,-0.195148 0.22217,-0.36226 0.33985,-0.5625 h -4.14454 c 0,-3.776 0.44775,-6.977564 1.34375,-9.601562 1.28,-3.776 3.45535,-5.664063 6.52735,-5.664063 1.69923,0 3.05339,0.864884 4.07617,2.556641 0.12876,-0.295616 0.41247,-0.935311 0.47656,-1.082032 0.65675,-0.553216 1.45875,-1.209035 2.98242,-2.34961 z m -405.78515,0.875 c 2.56,0 4.35295,1.919766 5.37695,5.759766 0.64,2.368 0.95899,5.537859 0.95899,9.505859 h -14.20704 c 0,-3.776 0.44775,-6.977564 1.34375,-9.601562 1.28,-3.776 3.45535,-5.664063 6.52735,-5.664063 z m -30.51563,0.232422 c 0.0594,0.29111 0.10809,0.581495 0.0293,0.84375 -0.0782,0.260104 -0.17105,0.506315 -0.25391,0.761719 -0.65878,0.374392 -1.32005,0.739794 -1.98437,1.095703 0.25115,-0.454345 0.50555,-0.907425 0.7539,-1.363281 0.49178,-0.440639 0.97765,-0.886085 1.45508,-1.337891 z m 252.72071,1.179687 c 0.28712,0.156652 0.57404,0.314181 0.85937,0.47461 -0.42286,1.268976 -0.88144,2.525589 -1.38672,3.761718 -0.26962,0.164872 -0.54055,0.325916 -0.8125,0.482422 0.59723,-1.338583 1.36758,-3.063823 0.70117,-3.617187 0.21377,-0.366526 0.42694,-0.733473 0.63868,-1.101563 z m -306.20704,0.699219 c -1.14418,3.277343 -2.4402,6.501616 -3.83789,9.673828 -0.59657,0.730058 -1.09301,1.34056 -1.58789,1.951172 0.7748,-1.724322 1.46291,-3.635221 2.11719,-6.09375 0.13197,-0.495889 0.27145,-1.000824 0.4082,-1.505859 0.95828,-1.400907 1.87812,-2.67137 2.90039,-4.025391 z m -28.019527,0.339844 c -0.0029,0.02398 -0.0089,0.05234 -0.01172,0.07617 -0.0679,0.09061 -0.139428,0.176541 -0.207031,0.267578 0.07963,-0.126487 0.140682,-0.21964 0.21875,-0.34375 z m 216.630857,1.898437 c -2.28447,3.277726 -3.60704,7.203345 -3.96289,11.777344 1.20582,-2.856315 3.23352,-7.894684 3.96289,-11.777344 z m -21.75195,0.171875 c 0.002,0.02819 0.0133,0.139657 0.0156,0.167969 -0.18518,0.350102 -0.37517,0.697767 -0.55859,1.048828 -0.47191,0.29638 -0.9306,0.606607 -1.39648,0.908203 0.14651,-0.248573 0.28631,-0.500995 0.43554,-0.748047 0.51287,-0.404349 1.01769,-0.871036 1.50391,-1.376953 z M 90.117188,79.685547 c -0.06418,0.138789 -0.1293,0.277175 -0.19336,0.416015 0.0011,-0.07119 9.44e-4,-0.114123 0.002,-0.183593 0.06386,-0.07743 0.127482,-0.155047 0.191407,-0.232422 z m 120.685542,0.503906 c 0.0883,0.259397 0.14514,0.520296 0.14844,0.78125 0.3738,0.03745 0.78357,0.0025 1.21094,-0.07031 -0.47859,0.385115 -0.90803,0.70311 -1.26172,0.917968 -0.0919,1.264134 -0.28817,2.519841 -0.53711,3.767579 -1.03041,0.595317 -2.03947,1.222767 -3.02344,1.820312 -0.30069,0.182606 -0.59023,0.38198 -0.875,0.585938 0.88301,-2.619986 1.87261,-5.203423 2.93164,-7.759766 0.26962,0.302837 0.60178,0.501881 0.97657,0.621094 0.11942,-0.235442 0.26307,-0.457362 0.42968,-0.664063 z m -0.42968,0.664063 c -0.11217,0.221133 -0.20806,0.450799 -0.26953,0.703125 -0.16385,0.672494 0.20243,0.62283 0.79687,0.261718 0.0187,-0.257251 0.0482,-0.513547 0.0566,-0.771484 8.3e-4,-0.02531 -0.006,-0.05087 -0.006,-0.07617 -0.20246,-0.02029 -0.3958,-0.05919 -0.57812,-0.117187 z m 20.22851,-0.517578 c 0.011,0.436374 0.0714,0.924675 0.15039,1.429687 -0.82539,0.971577 -1.65516,1.955527 -2.49609,2.976563 -0.1936,0.07711 -0.38516,0.157564 -0.57617,0.238281 0.96683,-1.563153 1.92496,-3.113022 2.92187,-4.644531 z m 186.48047,0.365234 c -0.0407,0.09838 -0.0858,0.194772 -0.12695,0.292969 -0.28431,0.198482 -0.57233,0.392003 -0.86328,0.582031 0.0538,-0.128821 0.12524,-0.288409 0.18945,-0.433594 0.27398,-0.151723 0.51882,-0.28464 0.80078,-0.441406 z m 107.33789,1.576172 c -0.003,0.0033 -0.007,0.0065 -0.01,0.0098 -0.3697,0.372483 -0.86899,0.710879 -1.39844,1.041016 -0.0624,0.0049 -0.12427,0.01041 -0.18555,0.01563 0.01,-0.06761 0.0154,-0.135642 0.0254,-0.203125 0.40081,-0.331636 1.12393,-0.694453 1.56836,-0.863281 z m -481.830076,0.01758 c -1.119903,2.108569 -2.285195,4.163878 -3.458985,5.919922 0.06622,-0.807557 0.199641,-1.611726 0.384766,-2.410156 0.54432,-0.947887 1.112004,-1.910565 1.695313,-2.882813 0.34738,-0.20009 0.69215,-0.403481 1.041015,-0.601563 0.110655,-0.0025 0.223328,-0.01156 0.337891,-0.02539 z m 234.078126,0.474609 c -0.65918,1.290606 -1.31151,2.584793 -1.95703,3.882813 -0.1803,-0.317135 -0.44172,-0.788237 -0.57617,-1.019532 0.28571,-0.576884 0.59065,-1.143459 0.89453,-1.710937 0.54675,-0.386405 1.08919,-0.776184 1.63867,-1.152344 z M 40.912109,83.099609 c -0.202044,0.386332 -0.441908,0.589349 -0.855468,0.720703 0.02832,-0.08857 0.06079,-0.17537 0.08984,-0.263671 0.254486,-0.153145 0.508459,-0.307512 0.765625,-0.457032 z m 313.517581,0.791016 c -0.68726,0.727977 -1.38216,1.468463 -1.83203,2.181641 -0.58215,0.213182 -1.16468,0.4272 -1.75,0.628906 -0.10238,-0.09032 -0.19898,-0.201329 -0.30078,-0.296875 1.2824,-0.864851 2.56419,-1.73094 3.88281,-2.513672 z m -237.93555,1.996094 c -0.0771,0.07028 -0.10708,0.127537 -0.0254,0.138672 0.0117,0.0016 0.0235,4.4e-4 0.0352,0.002 -0.004,-0.04636 -0.006,-0.09449 -0.01,-0.140625 z m 162.57227,1.496093 c 0.0584,0.546986 0.10338,1.11435 0.15234,1.677735 -0.54099,0.573633 -1.35211,1.423462 -1.98242,2.083984 0.60539,-1.255943 1.21501,-2.510239 1.83008,-3.761719 z m 107.07031,0.300782 c 0.13057,0.02214 0.26016,0.0478 0.39062,0.07031 -0.47794,0.361794 -0.95746,0.722532 -1.43164,1.101563 0.34741,-0.388979 0.69307,-0.780675 1.04102,-1.171875 z m 245.81836,2.757812 c -0.31024,1.401348 -0.57447,2.692767 -0.77344,3.771485 -2.16723,-0.558405 -4.20589,-0.0632 -6.07617,1.019531 0.2066,-0.212385 0.40771,-0.425344 0.61133,-0.638672 2.38068,-0.597337 4.44011,-2.268681 6.23828,-4.152344 z m -489.78906,1.09961 c 0.0573,0.238881 0.12248,0.448476 0.18554,0.666015 -0.3288,0.230785 -0.65378,0.466764 -0.98437,0.695313 -0.082,-0.0018 -0.16238,-0.0041 -0.24414,-0.0059 0.26671,-0.34917 0.7856,-1.011737 1.04297,-1.355468 z M 324.70898,91.75 c -0.24449,0.726937 -0.4803,1.456794 -0.71289,2.1875 -0.10368,-0.04951 -0.22216,-0.109426 -0.32226,-0.15625 0.3462,-0.676472 0.69453,-1.351754 1.03515,-2.03125 z M 110.0293,91.972656 c -0.3826,0.425262 -0.76541,0.850526 -1.14844,1.275391 -0.0341,9.8e-4 -0.0576,0.0029 -0.0918,0.0039 0.33086,-0.472777 0.56832,-0.839511 0.75,-1.160156 0.15675,-0.02886 0.31473,-0.05826 0.46875,-0.107422 0.008,-0.0026 0.0135,-0.0089 0.0215,-0.01172 z m 186.89258,0.328125 c -0.21066,-0.002 -0.48634,0.07943 -0.81836,0.226563 -0.009,0.321581 -0.0352,0.631395 -0.0352,0.958984 0,1.772025 0.10759,3.450618 0.30859,5.046875 0.60286,-0.692947 0.9199,-1.359531 0.36328,-1.943359 -0.0798,-0.08367 -0.16191,-0.150617 -0.24414,-0.222656 0.10943,-0.302038 0.22432,-0.602244 0.32813,-0.90625 0.6631,-0.516289 1.10188,-0.862746 0.59375,-0.59375 -0.21107,0.111735 -0.27223,0.147068 -0.4707,0.251953 0.014,-0.04202 0.0311,-0.08293 0.0449,-0.125 0.63158,-1.923129 0.57129,-2.687261 -0.0703,-2.69336 z m -70.61719,0.04687 c -0.0548,0.097 -0.10939,0.19395 -0.16407,0.291016 -0.0306,0.02231 -0.0613,0.04409 -0.0918,0.06641 0.085,-0.119303 0.16945,-0.239363 0.25586,-0.357422 z m -20.23633,0.201172 c -0.0121,0.01537 -0.0231,0.03152 -0.0352,0.04687 -0.45077,0.574129 -0.93516,1.118401 -1.43359,1.652344 0.0507,-0.196509 0.10998,-0.389901 0.16211,-0.585938 0.43563,-0.370993 0.87102,-0.74228 1.30664,-1.113281 z M 457.9043,92.71875 v 9.3125 c 0,2.944 -0.47946,5.31152 -1.43946,7.10352 -1.216,2.24 -3.16942,3.35937 -5.85742,3.35937 -1.92,0 -3.29495,-0.73503 -4.12695,-2.20703 -0.768,-1.472 -1.15234,-3.29666 -1.15235,-5.47266 0,-1.792 0.22388,-3.32742 0.67188,-4.60742 0.448,-1.279998 1.24839,-2.369624 2.40039,-3.265624 1.152,-0.96 2.78449,-1.823797 4.89649,-2.591797 1.15199,-0.384 2.68742,-0.926859 4.60742,-1.630859 z M 80.773438,93.005859 c -0.186263,0.444939 -0.374867,0.88922 -0.576172,1.324219 -0.215293,0.01213 -0.448366,0.02292 -0.658204,0.03516 0.403013,-0.458931 0.809592,-0.915919 1.234376,-1.359375 z m 230.880862,0.08203 c -0.37811,0.245846 -0.75323,0.496329 -1.12696,0.748047 -0.73845,0.141371 -1.55218,0.397093 -2.28515,0.595703 1.31633,-0.445103 2.46587,-0.887949 3.41211,-1.34375 z m 319.10156,0.216797 c -0.14012,0.109662 -0.534,0.433832 -0.84766,0.689453 0.20829,-0.160699 0.4262,-0.312426 0.62696,-0.480469 0.41521,-0.347557 0.45376,-0.391388 0.2207,-0.208984 z m -275.76367,0.128906 c 0.0214,0.21144 0.0174,0.463685 -0.0449,0.810547 -0.11034,0.614025 -0.2943,1.208214 -0.5,1.796875 -0.29051,0.08214 -0.56493,0.209062 -0.82813,0.365234 0.2415,-0.470371 0.48654,-0.939714 0.70313,-1.421875 0.23043,-0.512957 0.44913,-1.03211 0.66992,-1.550781 z m 33.65429,0.03125 c -0.43418,0.282265 -0.8745,0.554367 -1.30468,0.84375 -0.51225,0.122407 -1.02168,0.255557 -1.52149,0.421875 -2.93098,0.975352 -9.20217,6.270953 -9.77734,6.935553 -0.26368,0.30466 0.0134,0.84097 0.49414,1.43359 -0.33774,0.327 -0.68183,0.64751 -1.01758,0.97656 -0.0122,0.0119 -0.0884,0.0886 -0.10156,0.10156 0.0567,2.48153 0.32515,4.6257 0.80664,6.42774 0.68623,0.0584 1.39131,0.1049 1.87891,0.24805 1.44432,0.42401 2.89962,0.79863 4.36132,1.14843 0.17328,0.17943 0.36023,0.32042 0.55664,0.4336 -0.91462,0.74689 -1.40249,1.14785 -0.7246,0.64843 0.27156,-0.20007 0.55556,-0.39009 0.83398,-0.58398 0.61534,0.31137 1.32871,0.33405 2.10352,0.13086 0.14013,0.0313 0.27975,0.0645 0.41992,0.0957 0.14984,1.04707 0.53807,1.94347 1.30859,2.39844 -0.0668,0.13166 -0.13478,0.26267 -0.20117,0.39453 -1.12254,0.16781 -2.32841,0.36087 -3.87695,0.6543 -0.90109,0.17075 -1.79538,0.37992 -2.6875,0.59375 1.87501,1.30074 4.32963,1.9668 7.39257,1.9668 2.11588,0 4.57999,-0.44404 7.37696,-1.31446 0.0473,-0.0715 0.10404,-0.16103 0.15234,-0.23437 0.76612,-0.38523 1.51927,-0.79428 2.26172,-1.22657 -0.18624,0.26842 -0.35644,0.54754 -0.53906,0.81836 0.2487,-0.0894 0.47886,-0.15635 0.73242,-0.25195 v -3.74219 c -1.6,0.448 -3.00861,0.67188 -4.22461,0.67188 -2.048,0 -3.35955,-0.63992 -3.93555,-1.91992 -0.512,-1.344 -0.76758,-3.58471 -0.76758,-6.72071 v -5.765624 c -0.67395,1.083754 -1.32949,2.143594 -1.90429,3.111334 -0.0345,-0.0488 -0.0798,-0.086 -0.10742,-0.14258 -1.07102,-0.75391 -2.04567,-1.3133 -2.83985,-2.367191 0.68065,-0.642565 1.36834,-1.27819 2.06446,-1.904297 0.92898,-0.09713 1.85778,-0.190977 2.7871,-0.285156 z m 158.2168,0.435547 c -0.0937,0.468222 -0.14034,0.908949 -0.0703,1.279297 -0.31386,0.0033 -0.6276,10e-4 -0.94141,0 0.33597,-0.421421 0.67185,-0.844266 1.01172,-1.279297 z M 267.3418,94.097656 c 0.0434,0.0855 0.0869,0.170688 0.13086,0.25586 -0.0554,0.04561 -0.1136,0.0897 -0.16993,0.134765 -0.047,-0.168878 -0.0513,-0.310304 0.0391,-0.390625 z m 226.64453,0.119141 c 0.0115,0.186458 0.0191,0.379193 0.043,0.542969 -0.22949,0.0429 -0.41499,0.0817 -0.65039,0.125 0.20528,-0.217579 0.40604,-0.443378 0.60742,-0.667969 z m -22.83399,1.091797 c -0.92342,0.694945 -1.82276,1.390732 -2.14257,2.15039 -1.54949,1.542565 -2.24676,2.601276 -0.97266,2.574216 0.72176,-0.0153 1.38793,-0.102451 2.01562,-0.238278 -1.23852,0.689518 -2.21484,1.605418 -2.60546,2.839848 -0.19891,0.18038 -0.39579,0.3571 -0.60352,0.56054 -0.45136,0.44204 -0.16415,0.45472 0.44141,0.28321 -0.0154,0.17998 -0.0414,0.35495 -0.0332,0.54687 0.0607,1.41436 2.06935,1.12532 3.90039,0.94336 z m 23.22657,0.630859 c 0.16037,0.298108 0.35927,0.521453 0.58984,0.673828 -0.0604,0.07164 -0.11232,0.149976 -0.17383,0.220703 -0.31005,0.356541 -1.01408,0.858662 -1.65234,1.261719 0.60768,-0.115508 1.19409,-0.226794 1.75195,-0.332031 -0.91181,0.915729 -1.82356,1.831393 -2.75,2.732418 -0.33548,0.32628 -0.6778,0.64521 -1.01953,0.96485 -0.15534,-0.007 -0.30648,-0.0106 -0.46289,-0.0176 0.16565,-0.22406 0.32368,-0.45352 0.46875,-0.69336 0.39383,-0.65108 0.68707,-1.34913 0.94336,-2.064453 -0.18471,0.06381 -0.24121,0.02715 -0.0547,-0.179688 0.0645,-0.07149 0.11037,-0.119276 0.17383,-0.189453 0.005,-0.01618 0.0103,-0.03263 0.0156,-0.04883 0.007,-0.0013 0.0285,-0.0066 0.0352,-0.0078 0.78022,-0.862109 1.4992,-1.644904 2.13477,-2.320313 z m -2.13477,2.320313 c -0.0187,0.02065 -0.032,0.03588 -0.0508,0.05664 -0.041,0.122415 -0.0757,0.247893 -0.11914,0.369141 0.21839,-0.07545 0.62354,-0.308943 1.06836,-0.589844 -0.19986,0.03799 -0.37039,0.06977 -0.57617,0.109375 -0.0551,0.01061 -0.26222,0.04332 -0.32227,0.05469 z M 111.69531,97.390625 c -2.42188,2.126482 -4.85266,4.243195 -7.28515,6.357425 -0.31647,-0.0923 -0.6307,-0.19022 -0.94922,-0.27539 1.33306,-1.42559 2.66406,-2.85347 3.98242,-4.292972 0.77433,-0.388977 1.52372,-0.83065 2.26367,-1.291016 0.67178,-0.140763 1.33894,-0.29546 1.98828,-0.498047 z m -68.28906,0.607422 c -0.795047,2.479673 -2.921415,5.610823 -0.927734,6.726563 0.05398,0.0302 0.109578,0.0475 0.164062,0.0742 -0.02105,0.0181 -0.04346,0.0346 -0.06445,0.0527 -1.408123,1.21651 -2.02662,3.12263 -3.091797,4.64844 -0.197378,0.28273 -0.397049,0.56417 -0.59375,0.84766 1.035901,-4.13948 2.397641,-8.1931 3.947266,-12.177738 0.189204,-0.05482 0.380837,-0.100571 0.566406,-0.171875 z m 503.73633,0.619141 c -0.30549,0.391987 -0.61787,0.777612 -0.91797,1.173828 -0.89609,1.183084 -2.15822,2.295104 -3.29883,3.445314 -0.73771,0.0309 -1.47524,0.0674 -2.21289,0.0996 0.10381,-0.22057 0.20982,-0.43996 0.31445,-0.66016 1.3766,-0.69121 2.73661,-1.41293 4.05274,-2.21094 0.47972,-0.29086 0.9511,-1.310717 0.68164,-1.732418 0.46729,-0.03745 0.92128,-0.07614 1.38086,-0.115234 z m -165.97852,0.04492 c -0.32762,0.312959 -0.65239,0.628914 -0.98047,0.941407 -0.95445,0.506835 -1.90628,1.028755 -2.9375,1.310545 -1.18685,0.32433 1.28943,-1.007486 3.91797,-2.251952 z m -268.75781,0.740235 c 0.27384,0.307509 0.58086,0.527599 0.91211,0.669927 0.1174,-0.103284 0.23472,-0.20686 0.35547,-0.306646 -0.0215,0.09977 -0.0476,0.198978 -0.0684,0.298826 -0.0406,0.0314 -0.0608,0.0463 -0.0996,0.0762 0.0274,0.009 0.0543,0.0191 0.082,0.0273 -0.23098,1.12094 -0.41831,2.24776 -0.54297,3.38281 -1.61677,0.56005 -3.23348,1.12313 -4.85156,1.68164 -0.53078,-0.29001 -1.0848,-0.53396 -1.64844,-0.75781 1.95277,-1.6918 3.90846,-3.38058 5.86133,-5.072267 z m 1.09961,0.738277 c -0.0631,-0.0212 -0.12608,-0.042 -0.1875,-0.0683 -0.18366,0.16156 -0.36749,0.32401 -0.54102,0.49609 -0.50267,0.49847 -0.0114,0.14217 0.72852,-0.42774 z m 234.97266,-0.701168 c 0.0534,0.0082 0.10675,0.01542 0.16015,0.02344 -0.12116,0.0441 -0.24211,0.08872 -0.36328,0.132812 0.0682,-0.0515 0.13494,-0.104786 0.20313,-0.15625 z M 77.296875,99.738281 c -0.138882,0.253485 -0.275049,0.508309 -0.414063,0.761719 -0.280454,0.0211 -0.559717,0.0465 -0.83789,0.0859 0.05832,-0.24852 0.114477,-0.498 0.1875,-0.736331 0.354905,-0.03674 0.709537,-0.07455 1.064453,-0.111328 z m 365.593745,0.1875 c -0.003,0.0064 -0.005,0.01316 -0.008,0.01953 -0.52601,1.031399 -1.01677,2.075859 -1.41992,3.152349 -0.23982,0.53956 -0.48991,1.07421 -0.72656,1.61523 -0.10803,-1.05153 -0.13378,-2.10256 -0.0937,-3.15039 0.77436,-0.46422 1.52779,-1.01964 2.24804,-1.63672 z m -299.77343,0.708989 c -0.12223,0.0748 -0.25287,0.14972 -0.37305,0.22461 0.0342,-0.0523 0.0693,-0.10401 0.10352,-0.15626 0.0874,-0.0167 0.17934,-0.0452 0.26953,-0.0683 z m 0.90625,0.082 c -0.0358,0.0464 -0.0696,0.0943 -0.10547,0.14062 -0.23626,0.30463 -1.27849,0.85969 -0.9668,0.63281 0.35632,-0.25935 0.71558,-0.51458 1.07227,-0.77343 z m 0.13672,0.73632 c -1.08687,1.11931 -2.01043,2.08076 -3.27149,3.38672 -0.33658,0.28761 -0.68365,0.56374 -1.02539,0.84571 0.45383,-0.64333 0.82907,-1.34475 1.20117,-2.04883 1.01948,-0.747 2.04129,-1.48918 3.09571,-2.1836 z m 81.24609,2.53907 c -0.0576,0.0773 -0.11393,0.15539 -0.17187,0.23242 -0.0776,0.0586 -0.1451,0.10718 -0.2168,0.16016 0.10486,-0.1263 0.19924,-0.26151 0.30078,-0.39063 0.0283,10e-4 0.0587,-0.002 0.0879,-0.002 z m 426.39648,0.38086 c -0.0949,0.12759 -0.19066,0.25453 -0.28711,0.38086 -0.10775,-0.0108 -0.21497,-0.0125 -0.32226,-0.0176 0.0584,-0.0948 0.10115,-0.18001 0.16211,-0.27735 0.14902,-0.0289 0.29824,-0.057 0.44726,-0.0859 z m 3.36524,0.24804 c 0.30447,0.2268 0.49302,0.42106 0.22461,0.48047 -0.43187,0.0956 -0.86963,0.0975 -1.3125,0.0566 0.3607,-0.17577 0.72113,-0.35122 1.08789,-0.53711 z m -576.052736,0.25977 c 0.09572,0.007 0.184335,0.0131 0.279297,0.0195 -0.133658,0.63146 -0.221473,1.22735 -0.167969,1.71289 -0.128435,1.24886 -0.804561,2.8968 -1.076171,4.25 -0.383127,0.333 -0.751293,0.67005 -1.048829,1.03125 -0.214322,0.0945 -0.425647,0.18599 -0.638671,0.26758 0.146433,-0.927 0.04563,-1.88837 0.08789,-2.83008 -0.02371,0.003 -0.04849,0.003 -0.07227,0.006 0.904028,-1.4704 1.774633,-2.96249 2.636718,-4.45703 z m 299.310546,0.0488 c 0.13124,0.11025 0.26458,0.23317 0.38867,0.33398 -0.6536,0.43933 -1.34208,0.85586 -1.99609,1.29492 0.53487,-0.54402 1.07141,-1.08605 1.60742,-1.6289 z m -265.52734,0.58593 c -0.002,0.0591 -0.002,0.11856 -0.004,0.17774 -0.41909,0.61274 -0.93356,1.31046 -1.40234,2.02344 -0.37717,-0.46233 -0.84631,-0.875 -1.34961,-1.24805 0.96799,-0.33778 1.86519,-0.64687 2.75586,-0.95313 z m 383.21289,1.24219 c -0.0336,0.0401 -0.0659,0.081 -0.0996,0.1211 -0.34562,0.27448 -0.62201,0.59467 -0.81055,0.97265 -2.42521,2.85454 -4.88527,5.68516 -6.76172,8.91016 -0.12094,0.20787 -0.27717,0.44576 -0.41015,0.66211 0.47601,-0.0167 0.94941,-0.0332 1.45898,-0.0332 0.40271,0 1.36186,0.0646 2.57813,0.15821 0.8507,-1.2881 1.94771,-2.5591 2.67578,-3.71875 0.43687,-0.69585 0.89798,-1.37473 1.36914,-2.04688 z m 89.42578,0.29688 c -0.15171,0.18896 -0.3447,0.39831 -0.58399,0.63281 0.0647,-0.15201 0.11294,-0.31391 0.16407,-0.47461 0.14255,-0.0498 0.28139,-0.10358 0.41992,-0.1582 z m 3.24219,0.38476 c -0.15434,0.29058 -0.30349,0.58414 -0.46094,0.87305 -0.48125,0.88307 -1.34272,1.60664 -1.54492,2.5918 -0.0745,0.36306 0.54518,0.86599 0.87109,0.68945 1.05726,-0.57272 2.06592,-1.22605 3.06055,-1.90234 -0.72805,-0.63981 -1.36846,-1.39267 -1.92578,-2.25196 z m -447.67383,0.13867 c -0.19354,0.47667 -0.38327,0.96808 -0.56445,1.4668 -0.89456,0.10478 -1.27302,0.15195 -1.74805,0.21485 0.77753,-0.50481 1.54978,-1.0811 2.3125,-1.68165 z m 193.74805,0.59571 c -0.43956,0.35502 -0.88819,0.68712 -1.34571,1.00195 0.46403,-0.17777 1.35187,-0.5196 1.77344,-0.68164 z m 275.625,0 c -1.664,1.344 -3.45696,2.39997 -5.37696,3.16797 -1.92,0.768 -3.87147,1.15234 -5.85547,1.15234 -1.41842,0 -2.70853,-0.16513 -3.89843,-0.45898 0.0699,0.60931 0.0936,1.22754 0.082,1.8457 -0.15029,0.27582 -0.30886,0.55721 -0.43164,0.81055 -2.91734,1.02209 -5.62122,1.9479 -8.12305,2.83398 2.12494,-1.51685 4.54171,-3.63399 6.97461,-5.96094 -0.73167,-0.28378 -1.42411,-0.61888 -2.05273,-1.03515 -2.24434,2.22058 -4.57383,4.39073 -6.92969,6.33593 1.71375,0.68338 3.58559,1.18121 5.62109,1.48829 0.13135,-0.048 0.26104,-0.10097 0.39258,-0.14844 2.31247,-0.83444 3.93805,-1.40558 5.72852,-2.03906 -0.0714,0.32382 -0.15056,0.64601 -0.20899,0.97265 -0.23535,0.47367 -0.46661,0.94569 -0.58789,1.16602 -0.0803,0.15781 -0.15452,0.27449 -0.23438,0.42578 0.0718,3.7e-4 0.14081,0.004 0.2129,0.004 5.056,0 9.63056,-1.44032 13.72656,-4.32032 l 0.66992,-1.70312 c -0.56728,0.24031 -1.1369,0.47362 -1.69922,0.72461 0.20073,-0.49776 0.38442,-1.00231 0.58008,-1.50196 0.52853,-0.17066 1.07941,-0.34881 1.63086,-0.52539 l 0.93164,-2.36914 -0.0859,-0.0645 c -0.4472,0.14823 -1.05811,0.35783 -1.51172,0.50977 0.17296,-0.37845 0.38532,-0.76952 0.63086,-1.17188 z m -373.18164,0.64258 c -0.005,0.016 -0.0218,0.0684 -0.0273,0.0859 -0.0482,0.007 -0.0849,0.0127 -0.13281,0.0195 0.0536,-0.0348 0.10661,-0.0705 0.16016,-0.10547 z m -46.7754,0.10351 c -0.33925,1.13988 -0.34473,2.43808 -0.76171,3.56055 -0.21879,0.58895 -0.44965,1.17354 -0.68555,1.75586 -0.90069,0.0868 -1.80224,0.1674 -2.70313,0.25195 1.58994,-2.2977 2.5211,-3.5152 4.15039,-5.56836 z m 351.8379,0.56055 c -1.57767,1.24829 -2.91125,2.19451 -2.07618,1.26172 0.38896,-0.43448 0.8166,-0.82848 1.25977,-1.20703 0.24504,0.0155 0.52924,-0.018 0.81641,-0.0547 z m -363.66797,0.40039 c -0.0337,-0.0269 -0.11594,-0.0221 -0.25782,0.0234 -0.16416,0.0527 -0.32045,0.12393 -0.48047,0.18554 0.10355,0.14561 0.20734,0.29111 0.31446,0.4336 0.30169,-0.3286 0.50269,-0.5795 0.42383,-0.64258 z m 371.80468,1.04102 c -0.45739,0.14838 -0.91564,0.295 -1.37304,0.44335 0.008,-0.0976 0.049,-0.22725 0.082,-0.34961 0.43071,-0.0285 0.86006,-0.0669 1.29101,-0.0937 z m -268.8457,0.55078 c -0.94197,1.15186 -1.9383,2.2672 -3.04883,3.3164 -0.11805,0.11154 -0.23725,0.22821 -0.35547,0.3418 -0.10158,0.004 -0.20352,0.002 -0.29882,0.0371 -0.8472,0.30969 -1.68565,0.64292 -2.52149,0.98242 -0.008,-0.0726 -0.0302,-0.1413 -0.084,-0.19727 -0.48835,-0.50796 -1.18322,-0.59371 -1.92969,-0.59374 1.30872,-0.68819 2.6185,-1.37472 3.92187,-2.07227 1.33755,-0.71584 1.87755,-1.00365 2.97461,-1.58984 -0.39103,0.44832 -0.79816,0.88561 -1.17578,1.34375 0.8194,-0.54801 1.66641,-1.06055 2.51758,-1.56836 z m -26.32422,0.39843 c 0.0239,0.0405 0.0536,0.0789 0.0781,0.11914 -0.0604,0.0673 -0.11605,0.13105 -0.17383,0.19532 -0.0436,0.0107 -0.0873,0.0206 -0.13086,0.0312 0.075,-0.11452 0.15286,-0.23336 0.22656,-0.34571 z m 373.72071,1.33594 c -8e-5,0.006 7e-5,0.0117 0,0.0176 -0.0593,0.009 -0.11846,0.0185 -0.17774,0.0273 0.061,-0.0155 0.11696,-0.0295 0.17774,-0.0449 z m -20.35743,0.67188 c -0.17727,0.12693 -0.356,0.25185 -0.5332,0.3789 0.0403,-0.0997 0.0808,-0.19917 0.12109,-0.29883 0.0311,-0.009 0.0772,-0.0365 0.10547,-0.043 0.10153,-0.0231 0.20405,-0.0302 0.30664,-0.0371 z m -495.53125,0.0781 c -0.008,0.037 -0.0137,0.0743 -0.0215,0.11133 -0.0339,0.011 -0.0677,0.0221 -0.10156,0.0332 0.0414,-0.0479 0.0817,-0.0966 0.12304,-0.14453 z m 26.87891,0.26172 c -1.51938,0.73885 -2.95823,1.67653 -4.47266,2.42969 -0.10141,0.0504 -0.20324,0.10003 -0.30468,0.15039 -0.72105,-0.20083 -1.1328,-0.55239 -1.33594,-1.13477 2.14682,-0.50968 4.25265,-1.00623 6.11328,-1.44531 z m 252.2793,0.041 c 0.026,0.006 0.0521,0.0131 0.0781,0.0195 0.0389,0.0345 0.0727,0.0711 0.11719,0.10351 -0.0593,0.0937 -0.11468,0.18012 -0.17383,0.27344 -0.0652,0.0114 -0.14486,0.028 -0.20898,0.0391 0.0621,-0.15042 0.12516,-0.2894 0.1875,-0.43554 z m 28.29687,0.41211 c -0.6807,1.02127 -1.53474,2.14272 -1.76367,3.0371 0.47257,0.0284 1.02754,0.0755 1.76367,0.16211 z m -336.835936,0.33789 c 0.08614,0.006 0.171638,0.007 0.257812,0.0137 -0.150082,0.0701 -0.280135,0.12821 -0.43164,0.19922 0.06587,-0.0803 0.104941,-0.12922 0.173828,-0.21289 z m 438.656246,0.73437 c 0.14075,0.0386 0.27783,0.0794 0.41993,0.11719 -0.21632,0.26737 -0.43202,0.53551 -0.64844,0.80273 -0.10944,0.0297 -0.21871,0.0601 -0.32813,0.0898 0.18413,-0.33741 0.36982,-0.67383 0.55664,-1.00977 z m -287.3125,0.17383 c -0.0937,0.3132 -0.1732,0.56375 -0.26757,0.88281 -0.19497,0.0952 -0.37793,0.18554 -0.57032,0.2793 -0.48185,0.10448 -0.75429,0.16898 -1.20117,0.26758 0.40788,-0.3712 0.80864,-0.75042 1.21875,-1.11914 0.27209,-0.10779 0.54756,-0.20488 0.82031,-0.31055 z m 288.50586,0.16797 c 0.10986,0.0329 0.21869,0.0661 0.32422,0.10156 -0.18241,0.0489 -0.3645,0.0993 -0.54687,0.14844 0.073,-0.0845 0.14853,-0.16652 0.22265,-0.25 z m -2.37695,0.0977 c -0.22573,0.34138 -0.43984,0.63973 -0.65039,0.91993 -0.21095,0.058 -0.42193,0.11551 -0.63281,0.17382 0.42797,-0.36394 0.85453,-0.73043 1.2832,-1.09375 z m -382.4707,0.22461 c 0.3,-0.0439 0.58107,0.0115 0.83008,0.22461 0.0337,0.0289 0.059,0.0609 0.0879,0.0918 -0.30346,0.10955 -0.60755,0.21693 -0.90821,0.33984 -0.49616,10e-4 -0.95286,-0.002 -1.35937,-0.0137 0.46322,-0.30404 0.92553,-0.5805 1.34961,-0.64258 z"
         transform="matrix(0.26458333,0,0,0.26458333,15.637183,47.818917)" />
    </g>
  </g>
</svg>
