<svg xmlns="http://www.w3.org/2000/svg" viewBox="0 0 170.147 19.533" height="73.824" width="643.076"><path d="M53.855 0v2.334c.633-.79 1.178-1.471 1.357-1.704.084-.109.181-.214.282-.319-.199.778-.31 1.585-.61 2.33-.061.152-.138.318-.21.48-.28.18-.572.346-.817.57l-.002.002v12.04l.048.009-.048.035v.024l.051-.059h.024c-.024.033-.05.064-.075.096v2.237c1.008-.103 2.016-.209 3.023-.315-.206.171-.412.342-.616.515-.815.31-1.62.646-2.407 1.024v.005c.186-.017.432-.042.736-.076.305-.034.644-.05 1.016-.05.153 0 .525.024 1.118.075.136 0 .347.017.635.051v-3.337c-.06.21-.103.424-.127.643-.313.201-.682.304-1.025.453l-.034.004c.105-.41.219-.838.33-1.27.033-.036.065-.074.099-.109.255-.265.505-.536.757-.805V5.991c-.215.117-.43.226-.633.283-.483.557-1.008 1.081-1.45 1.672l-.034.049c.05-.12.097-.24.146-.36.393-.372.794-.74.924-1.233.038-.142-.304-.174-.429-.096l-.017.011.03-.095c.01-.033.026-.07.038-.105.08-.071.13-.12.053-.081l-.03.015c.138-.367.354-.784.48-1.173.209-.34.535-.863.761-1.215.049-.057.105-.11.161-.165V1.921c-.04.014-.092.036-.127.046-.268.08-.372.424-.47.769a3.838 3.838 0 00-.27.295c-.09-.14-.24-.189-.422-.189l.05-.1-.137.105c-.09.006-.186.021-.284.04a4.3 4.3 0 01.51-.322c.125-.261.233-.502.317-.713.228-.579.333-1.196.442-1.811l-.346.035c-.304.034-.643.051-1.016.051-.152 0-.414-.008-.787-.025A44.094 44.094 0 0153.855 0zm2.356 2.565c-.027.056-.061.12-.09.177.191-.143.38-.288.561-.441-.153.093-.313.177-.471.264zM122.133 0v1.53l.176-.076-.001.09c-.052.092-.11.185-.175.278v9.494c.148-.28.3-.558.452-.835.092-.106.21-.229.335-.358-.006.01-.013.02-.018.031-.07.154-.042.323-.002.494l-.27.452-.063.03.045-.001c-.163.277-.32.547-.479.825v6.129a.186.186 0 00.148-.059 1.4 1.4 0 00.239-.391c.404-.193.866-.446 1.436-.79.215-.129-.497-.082-.748-.102a17.854 17.854 0 00-.828-.044c.122-.207.247-.412.366-.62.108.005.215.007.323.01l.061-.059.014-.002-.07.062c.771.027 1.543.049 2.31.076l.254.012v-1.169c-.135-.004-.283-.007-.417-.012.14-.128.278-.26.417-.389v-1.144c0-.138.004-.254.006-.384l-.07.014.071-.073c.016-1.143.087-1.973.222-2.453.305-1.117.965-1.676 1.981-1.676.502 0 .909.144 1.225.429.262-.598.512-1.199.757-1.788-.144.011-.29.012-.438.01.104-.171.201-.333.309-.507l.02-.026c.125-.107.184-.162.057-.068l.13-.155a5.02 5.02 0 00-.51-.028 3.43 3.43 0 00-.723.08c-.167.264-.318.5-.488.772a1.35 1.35 0 00-.386.168c.225-.303.504-.6.729-.905-.389.1-.785.263-1.19.494a6.322 6.322 0 00-1.702 1.371V6.684c-.486.385-.509.517-1.486 1.974-.08.118-.16.244-.241.368a3.59 3.59 0 00-.647.261 76.94 76.94 0 012.374-3.835V2.934l-.07.092c.027-.058.046-.103.07-.157V0c-.186.017-.431.043-.736.076-.126.014-.26.024-.398.032l-.277.12c.012-.037.022-.074.035-.11-.123.005-.245.01-.376.01-.152 0-.415-.01-.788-.026a44.093 44.093 0 01-.965-.102zm.942 16.088h-.006c-.027.027-.057.052-.083.08l.089-.08zm-.508-4.958h-.034c-.105.054-.424.21-.315.164.118-.05.233-.108.35-.164zM107.517.025c-.563 0-1.073.087-1.53.26-.047.062-.096.122-.14.186-.035.049-.067.213-.096.424l-.26.167c.053-.205.075-.396-.006-.538-.087.05-.172.104-.254.162-.627.44-1.21 1.135-1.753 2.083-.04.07-.075.14-.114.21l.026-.018-.06.652c-.121.05-.241.106-.361.168a8.913 8.913 0 00-.355.97l-.044.173.012.105-.023.004c-.011.002-.017.01-.022.018l-.013.053c-.002.027-.002.056-.012.077l-.014.023a19.506 19.506 0 00-.34 1.781h-1.345c.057.014.114.027.173.037l-.338.407-.152.045c.043-.163.086-.325.125-.489h-.343c.033.271.05.449.05.533v.305c0 .356-.017.619-.05.788h1.88v2.386l.043-.006-.043.059v8.254c.186-.017.431-.042.736-.076.305-.034.643-.05 1.016-.05.152 0 .525.024 1.118.075l.046.002c.132-.187.26-.385.387-.604.03-.051.082-.118.14-.187l.062-.038v-2.062c-.606.763-1.152 1.448-1.49 1.863.02-.194.038-.381.042-.536.481-.48.965-.976 1.448-1.479v-1.534c-.477.518-1.046 1.09-.957 1.168-.27.303-.53.588-.752.833.27-.653.573-1.284 1.309-2.74.135-.268.25-.489.37-.726-.003.005-.005.009-.009.013-.045.058-.246.156-.186.115.065-.044.131-.085.196-.128l.029-.056V8.61h2.387c-.034-.407-.05-.678-.05-.813v-.33l.016-.153c-.096.153-.284.46-.382.619-.232-.141-.465-.28-.7-.416.032-.1.06-.202.084-.304.014-.064.037-.149.059-.229h-1.592a21.003 21.003 0 01-.686-1.702c-.288-.795-.432-1.346-.432-1.65 0-.136.051-.263.153-.382l.152-.152c.17-.17.347-.263.533-.28.204-.033.491-.05.864-.05.356 0 .711.067 1.067.203.318.116.651.261.994.426l.114-.504.144.447-.156.105c.024.012.048.021.072.034l.33-.127a7.654 7.654 0 01-.025-.635v-.711c0-.068.008-.322.025-.762a8.46 8.46 0 01.102-1.118c-.356-.068-.601-.102-.736-.102zm-1.883 13.188l.029-.019v-.019l-.029.038zM88.027.33c-.542 0-1.008.204-1.397.61-.39.406-.585.872-.585 1.397 0 .31.064.597.185.862.073-.045.154-.106.233-.166-.055.098-.113.194-.17.29.083.153.186.299.312.436.12.121.25.221.388.305l.138-.19c.025 0 .05-.002.077-.004l-.132.244c.284.153.6.23.95.23.56 0 1.034-.195 1.423-.585.407-.406.61-.88.61-1.422 0-.559-.203-1.033-.61-1.422A1.992 1.992 0 0088.027.33zm36.179.31l-.147.195.001-.065.032-.082.114-.049zM88.764.851c.023.054.046.124.07.195l-.038.022a1.277 1.277 0 00-.106-.167c.024-.017.048-.034.074-.05zm16.942.454c-.04.386-.061.654-.086 1.031l-.288.215a2.48 2.48 0 00-.05.007l.027-.735c.004-.087.024-.18.048-.277l.349-.241zm16.579.856v.003l-.009.003.009-.006zm-25.08.378c-.559.27-1.177.559-1.854.863-.678.305-1.228.543-1.651.712v2.87h-1.727c0 .068.016.161.05.28v.889c0 .152-.016.304-.05.457h1.169l.29-.377c.124-.07.244-.16.364-.253v.027a8.743 8.743 0 00-.33.433c-.037.052-.083.11-.133.17h.367v6.356c.42-.611.857-1.249 1.275-1.885l.119-.062-.105.04.013-.02.863-.963c.372-.221.74-.45 1.105-.683.078.014.157.027.235.042V8.611h2.159c0-.085-.017-.229-.051-.432V7.468l.05-.483h-2.158zm-91.573.148c-.706.336-1.361.642-1.924.894A40.677 40.677 0 010 5.004v.203c.237.22.432.432.584.635.107.118.205.25.299.388.324-.202.639-.42.95-.643-.038.018-.075.027-.104.01-.104-.06-.038-.2.032-.336a.82.82 0 01.288-.044c.101.005.013.174-.102.288l.33-.238c-.129.207-.26.414-.387.623l.656-.287-.074.187c.52-.265 1.035-.544 1.541-.837v7.927c.106-.053.212-.107.316-.162l-.316.494v5.654c.307-.121.61-.253.892-.424.076-.046.186-.155.307-.288-.081.343-.157.698-.228 1.055.243-.02.5-.032.782-.032.125 0 .438.022.863.056l.059-.096c.108-.044.214-.09.317-.146.203-.111.363-.28.513-.46v-4.447c-.019.026-.038.05-.057.078.023-.104.042-.21.057-.316V5.52c-.11.04-.218.085-.324.14a9.29 9.29 0 00.324-.809v-1.57c-.073-.058-.155-.112-.218-.177-.864.454-1.306.638-1.65.809.087-.363.136-.695.107-.93a.695.695 0 00-.125-.295zM1.947 5.505l-.114.082a.422.422 0 00.114-.082zm94.447-.526v.013L96.365 5l.028-.021zm-90.586.426a6.5 6.5 0 01-.13.424 5.774 5.774 0 01-.25.115l.38-.54zm90.024.076c.045.01.09.018.136.027l-.22.246c.025-.09.05-.178.077-.266l.007-.007zM21.225 6.757a4.26 4.26 0 00-2.184.609c-.593.356-1.169.855-1.727 1.499v-1.88c-.187.017-.424.042-.712.076-.27.034-.592.051-.965.051-.116 0-.337-.01-.543-.017.018.134.036.27.012.396-.114.59-.317 1.158-.475 1.737l-.275.75c-.141.229-.277.44-.42.666v5.249l.129-.006-.13.223v3.194l.177-.018c.058-.159.117-.315.176-.472.337-.117.662-.273.969-.462-.133.249-.273.497-.417.747-.045.042-.091.083-.135.126.296-.031.623-.048.983-.048.067 0 .194.007.346.017l.063-.102.045-.055c.139-.054.285-.112.43-.167.05-.108.118-.209.196-.307.174.014.348.028.52.037l.152-.056v-.378l-.546.254c.168-.183.362-.356.546-.533v-4.425c0-1.287.094-2.252.28-2.896.322-1.117.965-1.676 1.93-1.676.374 0 .694.083.964.241.136-.419.27-.838.374-1.265.331.268.576.704.608.966.006.052.008.105.011.157-.122.263-.246.523-.373.779.052.09.1.186.144.29.237.576.355 1.55.355 2.922v4.238c.32.219.635.5.672.863.041.397-.227.822-.595 1.215.178-.016.387-.038.66-.068.305-.034.643-.05 1.016-.05.152 0 .524.024 1.117.075.136 0 .347.017.635.051v-7.442c0-.344-.014-.664-.037-.971-.32.248-.639.496-.966.732l-.534.592c.05-.114.084-.245.137-.349.04-.078.076-.157.114-.236.02-.014.04-.03.06-.043.376-.44.75-.883 1.124-1.324-.123-.888-.359-1.593-.71-2.11-.525-.78-1.363-1.228-2.505-1.355-.166.04-.34.093-.521.155l.105-.185c-.093-.004-.183-.011-.28-.011zM17.29 18.6c-.238.09-.499.187-.716.27a.969.969 0 00-.089.358l.322.025.065.003c.177-.122.381-.296.57-.461v-.187l-.152-.008zM46.082 6.757c-.83 0-1.579.122-2.25.365-.166.236-.308.43-.45.621a.557.557 0 00-.095-.075c.136-.132.192-.22.036-.2-.084.01-.161.024-.238.037-.034.028-.07.054-.104.081l-.03-.002.113-.075-.1.02c-.423.25-.806.56-1.148.93-1.033 1.117-1.55 2.582-1.55 4.393 0 .442.025.86.072 1.26.071-.12.112-.183.21-.356.054-.08.11-.162.183-.263-.12.279-.242.557-.367.834.152 1.07.478 1.988.98 2.753.235-.272.504-.58.895-1.033a9.27 9.27 0 01.336-.305c-.052.224-.054.47-.122.69-.142.454-.3.901-.465 1.343l-.056.046a5.05 5.05 0 001.819 1.217l.368-.03c-.02.047-.043.094-.064.142.754.254 1.615.383 2.587.383.15 0 .298-.007.445-.016.127-.322.196-.615-.06-.666a1.093 1.093 0 00-.255-.02l.03-.069c.723-.067 1.447-.133 2.171-.202.004.048.01.098.018.149-.111.167-.223.335-.336.501a6.25 6.25 0 001.618-.82l.56-1.423-.305-.229c-.44.356-.915.635-1.423.839a4.432 4.432 0 01-.388.134.28.28 0 00.073.155c.01.012.02.02.031.031l-.328.034c-.454.047-.91.091-1.364.138l.102-.202c-1.118-.073-1.944-.522-2.47-1.357-.488-.759-.733-1.87-.735-3.335-.01.077-.022.153-.043.226l-.013.044c-.309.268-.625.555-.946.856l.016-.026c.139-.183.28-.364.425-.543.19-.232.382-.463.575-.693-.003.04-.008.079-.012.118h2.646l.17-.208c-.011.07-.022.14-.035.208h4.48c0-1.98-.372-3.505-1.117-4.572-.847-1.22-2.21-1.828-4.09-1.828zm-3.018.752l.02-.004c.03-.024.062-.045.091-.07-.036.026-.074.05-.111.074zm71.145-.752c-.076 0-.152.002-.227.005l-.353.463c-.046.025-.09.052-.134.079.1-.172.203-.356.304-.534a7.804 7.804 0 00-2.156.444c-.846.287-1.558.703-2.133 1.244l.33 1.524h.178c.101-.304.431-.626.99-.965.678-.406 1.38-.61 2.109-.61.193 0 .38.026.56.072.14-.182.255-.336.39-.513a7.452 7.452 0 00-.017.643c.251.113.49.274.717.485.508.44.762.956.762 1.549 0 .22-.034.406-.101.558a1.11 1.11 0 01-.28.432 3.875 3.875 0 01-.914.407c-.237.067-.55.152-.94.254-.462.112-.881.225-1.264.34-.098.154-.217.332-.375.553l-.128.088a2.15 2.15 0 01.04-.226l.124-.31c-.883.285-1.53.577-1.928.876-.745.558-1.117 1.413-1.117 2.565 0 .957.282 1.729.84 2.318.134-.008.267-.013.4-.021l-.113.284c.634.512 1.467.772 2.505.772.034 0 .068-.003.103-.003.046-.12.068-.264.12-.377l.164-.362c.108-.141.217-.293.327-.454.72-.025 1.44-.044 2.117-.061.156-.181.296-.38.42-.597.074.209.164.402.27.58l.676-.016c.695.356 1.373.75 2.058 1.125l.14.078c.154-.037.314-.081.489-.142.457-.152.846-.305 1.168-.457v-.585c-.508 0-.855-.076-1.042-.228-.156-.156-.236-.449-.248-.864l-.833.028c-.28-.157-.564-.304-.852-.443.258-.164.546-.35.917-.593.15-.099-.36.004-.538.02-.467.042-.933.091-1.398.144-.354-.113-.607-.201-.802-.256.15-.038.304-.102.462-.19.06.001.12 0 .18-.004.2-.016.329-.243.45-.404l.073-.1c.592-.507 1.088-1.104 1.176-1.192.544-.808.886-1.31 1.16-1.714V10.16c0-1.168-.542-2.057-1.626-2.667-.864-.491-1.93-.736-3.2-.736zm30.013 0c-.376 0-.726.038-1.055.106-.157.264-.365.674-.583 1.127a.424.424 0 00-.052-.067c.148-.137.196-.224.01-.202-.117.014-.227.04-.335.072a.764.764 0 00-.107.01c.058-.28.093-.44.133-.625-.304.15-.582.338-.83.569-.576.542-1.016 1.338-1.321 2.388v-3.15c-.186.017-.432.042-.737.076a9.25 9.25 0 01-1.015.051c-.044 0-.164-.006-.226-.007l-.41.438a9.4 9.4 0 00-.699.442l.047-.189c.02-.085.049-.193.072-.286.15-.142.303-.284.46-.422l-.032-.001a44.091 44.091 0 01-.965-.102v10.776l.005-.021c.337-.031.674-.061 1.012-.09-.065.02-.13.042-.195.06l-.822.213v.753c.363-.088.744-.183 1.04-.257-.155.155-.313.309-.475.457-.136.124-.27.267-.408.412.167-.017.34-.034.58-.06.071-.008.151-.012.226-.018.435-.282.916-.714 1.385-1.182a11.53 11.53 0 001.157-.49v-3.923c0-.424.008-.788.025-1.093.017-.322.06-.576.127-.762.153-.525.432-.931.839-1.22.423-.304.922-.456 1.498-.456.237 0 .474.025.711.076.237.05.432.135.585.254l.228-.203c0-.56.008-1.16.025-1.804.017-.66.051-1.21.102-1.65zm7.23 0c-1.794 0-3.216.567-4.266 1.701-.968 1.047-1.476 2.402-1.538 4.058.46-.541.857-1.123 1.102-1.484l.416.05c-.163.279-.382.592-.408.809-.167.274-.335.546-.504.834-.205.005-.41.014-.614.026 0 .034-.004.067-.004.101 0 .27.009.531.026.785l.064-.005-.059.056c.062.836.219 1.588.472 2.256.132-.09.247-.186.314-.3a.98.98 0 00.081-.183c-.11.07-.182.107-.103.022l.14-.145c.024-.102.039-.207.052-.314.063.025.132.04.204.047.556-.563.856-.795 1.048-.93a9.486 9.486 0 01-.66.788c-.034.037-.098.089-.154.137.088-.009.178-.024.271-.045-.307.384-.68.907-1.027 1.315l.067.143a9.981 9.981 0 001.268-.703c-.286.483-.557.974-.807 1.475a4.91 4.91 0 00.94 1.004c.044-.123.086-.247.134-.37.687-.184 1.56-.673 1.927-1.15.084-.107.16-.221.234-.336-.447-.758-.672-1.836-.672-3.242h6.954c.04-.31.093-.62.16-.926l.008-.009c-.072.351-.119.7.018.636.039-.018.076-.039.115-.057-.043-1.806-.41-3.215-1.109-4.216-.846-1.22-2.21-1.828-4.09-1.828zm-4.391 8.309c-.081.008-.16.012-.234.005l-.257.267c-.01.042-.022.083-.036.123.145-.092.355-.248.527-.395zm19.073-8.31a4.26 4.26 0 00-2.184.61c-.18.108-.357.233-.534.367-.177.4-.375.823-.68 1.498-.082.14-.16.281-.24.422-.087.06-.173.121-.259.183-.06-.037-.102-.065-.173-.108-.036-.022.097.049.088.09-.006.033-.016.065-.023.097-.217.157-.433.316-.643.482l.206-.345c.414-.637.78-1.237 1.154-1.832-.21.198-.418.408-.623.645V7.452c-.101.041-.155.046-.177.024l.177-.208v-.283c-.187.017-.424.042-.712.076-.063.008-.14.012-.208.018-.655.771-1.625 1.916-2.459 2.903v1.47c.421-.355.658-.886 1.002-1.317.243-.305.485-.603.727-.897-.473.866-.97 1.816-1.225 2.458-.157.19-.34.386-.504.58v6.898c.284-.042.568-.086.852-.126.439-.057.795-.099 1.136-.139.006.096.016.19.026.281.2.011.46.03.857.063.135 0 .346.017.634.051v-5.842c0-1.287.094-2.252.28-2.896.283-.984.817-1.535 1.6-1.652l.15-.299c.097.092.196.165.294.218l.06-.046c-.014.016-.033.033-.052.051.052.028.104.05.156.068.681.08 1.165.464 1.45 1.152.062.153.116.335.162.543a9.52 9.52 0 01.356-1.34c.123-.19.325-.439.164-.424h-.003c.025-.065.047-.131.074-.197-.212.114-.43.219-.647.323.141-.483.29-.965.46-1.438a8.59 8.59 0 00.373-.67 5.806 5.806 0 00-1.092-.098zm-1.453 2.082l-.008-.005-.078.059.03.002c.023-.02.036-.036.056-.056zM79.282 6.793c-.236.306-.474.61-.714.912.03-.229.052-.46.062-.693-.18.053-.362.1-.545.144.23-.209.517-.428.36-.322a10.47 10.47 0 00-.486.353c-.359.087-.717.174-1.061.297.038-.194.073-.384.106-.571-1.057.23-1.945.719-2.664 1.463.106.166.249.326.335.495.002.014.056.495.144.999-.107.41-.23.813-.368 1.203-.276.308-.604.624-.367.847l.02.016a6.306 6.306 0 01-.3.572c.252-.17.516-.324.779-.48.352-.066.76-.316 1.11-.373.075-.177.148-.36.218-.546l.049-.043c.069-.066.124-.143.173-.224.083-.051.166-.104.248-.157-.152.61-.32 1.218-.485 1.825-.05.186-.284.576-.226.653-.068.01-.014.137-.021.206l-.118.344c-.09.083-.179.168-.263.257a2.53 2.53 0 00-.379.536c-.487.129-.991.26-1.49.39l.973-.619c-.307-1.227-.155-.945-1.556.095.054.372.13.724.228 1.059l1.599-.422c-.106.234-.21.468-.337.687l-.023.038c-.256.138-.541.29-.946.511.037.085.077.167.117.25.181-.093.363-.183.544-.272l-.006.01c-.175.097-.348.196-.522.294.045.089.091.175.14.26l.084-.045-.056.094c.192.328.413.63.664.906l.213-.34a6.787 6.787 0 00-.067.46l-.022.01c1.074 1.099 2.613 1.653 4.62 1.66l.12-.043.67-.067c-.01.023-.022.046-.034.068a6.13 6.13 0 002.916-1.1l.014-.038c-.2.02-.398.042-.598.063l.67-.245.2-.507c-.416.155-.833.306-1.25.46.132-.285.255-.557.375-.823-.189.103-.38.197-.58.277a4.235 4.235 0 01-.976.26c-.117.26-.24.52-.358.777l-2.443.255 1.845-.714.76-.292a4.036 4.036 0 01-1.029-.03c-.228.088-.42.164-.665.26a2.01 2.01 0 00.312-.326c-.778-.185-1.376-.602-1.789-1.257-.49-.762-.736-1.88-.736-3.353h.852a3.38 3.38 0 01.152-.192 7.978 7.978 0 00-.215.056l.192-.491c.03-.062.115-.188.14-.244.136-.107.257-.225.375-.348H76.47c0-.999.118-1.846.355-2.54.339-1 .915-1.499 1.727-1.499.3 0 .557.106.778.305.302-.381.603-.764.964-1.226a5.94 5.94 0 00-1.011-.185zm-1.808 6.172c.06-.015.117-.025.177-.038.06-.103.125-.202.19-.299a1.635 1.635 0 00-.367.337zm.367-.337c.12-.071.231-.086.306.017a.229.229 0 01.033.068c-.02.023-.044.044-.064.067-.016.02-.029.041-.044.061a10.04 10.04 0 00-.421.086c-.045.075-.087.153-.13.23h6.213c0-1.98-.372-3.505-1.117-4.572a3.945 3.945 0 00-1.753-1.41l.008.005a.783.783 0 00-.096.118c-.407.386-.796.806-1.168 1.237.147.233.27.527.367.888.17.627.254 1.465.254 2.515h-1.83a4.076 4.076 0 00-.558.69zm52.617-5.75c-.211.344-.382.715-.578 1.07-.216.497-.462.984-.648 1.494-.003.009-.01.02-.014.03.141.162.262.355.358.586.237.576.355 1.55.355 2.922v5.556c.55.085 1.134-.107 1.713-.246-.189.3-.374.601-.556.905a10.4 10.4 0 01.596-.018c.152 0 .525.025 1.117.076.136 0 .347.017.635.051v-4.058c-.374.084-.748.166-1.123.249.18-.07.287-.107.493-.186.209-.08.42-.157.63-.234v-.6c-1.04.405-1.933.728-3.04 1.131.265-.44.529-.883.795-1.324l1.057-1.88c.178-.14.356-.282.531-.428.1-.057.193-.116.282-.176.005.017.014.036.017.052.121.04.24.093.358.142v-.841c0-.745-.067-1.363-.203-1.854-.135-.491-.423-.949-.863-1.372a3.956 3.956 0 00-1.912-1.048zm-116.523.107v2.192c.325-.753.595-1.432.986-2.088-.03-.001-.04 0-.071-.002a37.57 37.57 0 01-.915-.102zm14.976 0c-.187.18-.372.363-.552.55.012.107.02.212.02.314 0 .101-.017.22-.051.355-.017.136-.042.305-.076.508.059 0 .19-.007.264-.009l.092-.132c.278-.283.559-.563.842-.841-.172.31-.36.635-.547.96.47-.019 1.053-.05 1.889-.105 1.27-.085 2.37-.127 3.302-.127a264.177 264.177 0 01-3.277 4.877c-.358.524-.725 1.046-1.089 1.568.322-.25.612-.528.846-.731l.068-.088.112-.075.938-.271-.401.533c-.178.132-.238.181-.45.338-.621.461-1.234.936-1.869 1.377l-.483.678c.624-.309 1.295-.738 1.95-1.197-.092.143-.182.287-.267.434-.109.188-.3.438-.465.685-.323.252-.655.508-1.088.842-.256.044-.513.086-.769.132-.138.191-.272.384-.41.576v.32c.255-.045.51-.092.767-.134l.008.044c-.255.051-.513.101-.776.15v.661h.284l.612-.129.028.13h10.049a13.476 13.476 0 00-.102-.509 3.476 3.476 0 01-.02-.272c-.09.155-.179.312-.271.466-.047-.74-.2-.574-.32-.279.065-.233.162-.603.292-1.113-.156.006-.975.048-1.512.074-.159.491-.33.98-.408 1.485-.685.036-1.37.056-2.057.052a2.106 2.106 0 00-.987-.186l.022-.05.12-.18.333-.18c.408-.221.861-.408 1.17-.755.023-.027.045-.065.067-.1-.96.048-1.912.073-2.855.073.643-1.016 1.38-2.125 2.21-3.328.338-.49 1.1-1.574 2.286-3.25l2.235-3.15v-.99H32.56a7.314 7.314 0 01-.518.218c-.064.148-.157.288-.192.446a5.582 5.582 0 00-.076.641c-.08.028-.16.059-.24.092.027-.053.051-.107.078-.16-.022-.103.026-.354-.067-.306-.065.033-.112.06-.174.092.103-.24.2-.484.286-.732.03-.088.074-.188.121-.292zm31.786 0c0 .068.025.178.076.33.033.187.05.364.05.534 0 .101-.017.22-.05.355-.017.136-.043.305-.076.508.162 0 .443-.012.73-.025.225-.213.452-.426.684-.632.023.06.048.118.072.177-.359.154.122-.464-.534.448.424-.021.953-.053 1.587-.095 1.27-.085 2.37-.127 3.302-.127a264.177 264.177 0 01-3.276 4.877 223.953 223.953 0 01-3.378 4.8v1.042h2.13c.17-.243.332-.49.501-.733.107.106.216.21.326.307-.208.216-.445.392-.704.426h.365c.155-.105.31-.213.462-.322.132.112.264.223.384.322h4.512a8.186 8.186 0 001.506-1.024c.197-.113.394-.227.593-.338l-.136.386c-.585.335-1.157.666-1.678.976h.6c.312-.2.629-.4.951-.596-.056.168-.112.335-.164.5-.03.032-.06.063-.089.096h1.413a13.476 13.476 0 00-.101-.508 3.435 3.435 0 01-.025-.355c0-.102.008-.22.025-.356.034-.135.067-.305.101-.508-.108 0-1.38.064-3.277.162-.481.306-.947.61-1.406.911l-.152.074c-.35-.117-.656-.336-.985-.504-.143-.116-.306-.248-.472-.392-.078 0-.157.003-.236.003.644-1.016 1.38-2.125 2.21-3.328.339-.49 1.1-1.574 2.286-3.25l1-1.408c-.032-.35-.059-.671-.081-.931.175-.057.355-.1.535-.136a.102.102 0 00.047-.002l.066-.02.236-.044.433-.61v-.99h-.363c.008.167.01.334.004.502a73.06 73.06 0 01-.119.433v.003a26.55 26.55 0 00-.855.435c.268-.465.547-.924.84-1.373h-.598l-.164.083c.03-.028.056-.055.082-.083zm25.603 0v2.717c.021-.055.044-.109.068-.163.071.032.22.046.296.067.146.04.47.054.73.112-.034.234-.02.394.091.352l.055-.022-.537.489a1.165 1.165 0 00-.274.011 2.998 2.998 0 01-.302-.443 1.775 1.775 0 01-.127-.334v9.467l.055-.02-.055.06v.026c.186-.017.431-.042.736-.076.305-.034.643-.05 1.016-.05.152 0 .525.024 1.118.075.135 0 .347.017.635.051V6.985c-.186.017-.432.042-.737.076a9.25 9.25 0 01-1.016.051c-.152 0-.415-.008-.787-.025a44.094 44.094 0 01-.965-.102zm72.544 0v.004l.004-.003h-.004zm-122.133.007c-.002.009 0 .019-.004.027l-.002.007-.113.168c-.398.39-.72.705-.948.925l-.019-.028a6.5 6.5 0 00.252-.216c.206-.186.363-.415.51-.653.106-.078.215-.154.324-.23zM168 7.08a31.981 31.981 0 01-.564 1.682l-.008.02c-.439.54-.739 1.28-.956 1.928.113.568.171 1.322.171 2.27v4.031a8.187 8.187 0 001.483-1.422l.15-.08c-.005.097-.01.195-.019.292-.414.428-.81.833-1.186 1.217a2.747 2.747 0 00-.316.012c-.018.002-.076.015-.112.021v.252l.263-.118-.263.267v.85c.397-.348.78-.712 1.155-1.082-.35.6-.766 1.315-1.155 2.015v.07c.186-.018.432-.043.737-.077s.643-.05 1.016-.05c.152 0 .524.024 1.117.075.136 0 .347.017.635.051v-1.289a1.64 1.64 0 00-.353.107l-.02-.018a68.7 68.7 0 00.373-.617v-1.951c-.07.026-.14.052-.207.084.004-.029.01-.057.013-.086l.097-.17.097-.162v-3.34c0-.39-.016-.755-.045-1.097a1.849 1.849 0 00-.204-.008l.077-.303.063-.253a6.223 6.223 0 00-.304-1.24c-.3.253-.592.525-.872.804a.469.469 0 00-.032.005l.11-.304c.098-.451.74-1.232.295-1.354a1.93 1.93 0 00-.165-.037l.037-.099.03-.08c-.3-.355-.68-.627-1.138-.816zm-8.22.007l-.935 1.198v1.154c.57-.704 1.198-1.485 1.871-2.33-.058 0-.108.003-.169.003-.165 0-.425-.009-.767-.025zm-102.9.157c-.08.23-.137.47-.204.706a4.895 4.895 0 00-.474.22c.234-.334.462-.65.671-.92l.006-.006zm30.596.134c.23.116.464.225.7.33-.06.157-.121.32-.177.459l-.02.005c-.035.028-.074.055-.11.083-.286.068-.568.151-.847.244.128.17-.226.447-.339.649-.08.068-.155.139-.23.213.128-.263.272-.522.397-.78l.014-.028c-.133.046-.265.096-.397.145.153-.164.328-.283.455-.26.178-.361.364-.714.554-1.06zm-.554 1.06c-.02.04-.04.076-.058.115.053-.018.105-.037.158-.054 0-.001 0-.002-.002-.003a.155.155 0 00-.098-.057zm66.447-1.043a.04.04 0 01.016.03c.016.24-.31.368-.464.552.13-.17.288-.372.448-.582zm-91.58.058c.01.023.02.046.033.07l-.099.056.065-.126zm52.973.038c-.305.304-.477.36-.575.383.195-.124.386-.251.575-.383zm38.71.177c-.241.434-.483.868-.72 1.305.054.138.106.285.15.45.17.627.253 1.465.253 2.515h-2.404a6.518 6.518 0 00-.245.156 1.131 1.131 0 00-.103-.007c.03-.052.059-.096.09-.149h-1.096c0-.999.118-1.846.355-2.54.339-1 .914-1.499 1.727-1.499.45 0 .808.23 1.079.677l.126-.287c.173-.146.386-.32.789-.621zm-107.363.231c.677 0 1.151.508 1.422 1.524.17.627.254 1.465.254 2.515h-3.759c0-.999.119-1.846.356-2.54.338-1 .914-1.499 1.727-1.499zm-8.074.062a.465.465 0 01.008.223c-.021.069-.046.134-.068.202-.174.099-.349.195-.525.29l.2-.361c.13-.117.259-.235.385-.354zm66.866.312l.227.125c-.112.336-.233.669-.367.996a9.394 9.394 0 01-.215.127c.158-.354.362-.81.186-.957l.169-.291zm-81.018.185c-.302.867-.645 1.72-1.015 2.56-.158.193-.29.354-.42.516.205-.457.387-.962.56-1.613l.108-.398c.253-.37.497-.707.767-1.065zm-7.413.09l-.003.02-.055.07c.02-.033.037-.057.058-.09zm57.317.502c-.605.867-.955 1.906-1.049 3.116.32-.756.856-2.089 1.049-3.116zm-5.756.046l.005.044c-.05.093-.1.185-.148.278-.125.078-.246.16-.37.24.04-.066.076-.133.116-.198.135-.107.269-.23.397-.364zM18.22 9.2l-.051.11v-.049l.051-.061zm31.931.133a.67.67 0 01.04.207c.099.01.207 0 .32-.019-.127.102-.24.186-.334.243a8.103 8.103 0 01-.142.997c-.272.158-.54.324-.8.482-.08.048-.156.1-.231.155.233-.693.495-1.377.775-2.053a.57.57 0 00.259.164c.031-.062.07-.121.113-.176zm-.113.176a.858.858 0 00-.072.186c-.043.178.054.165.211.07.005-.069.013-.137.015-.205l-.001-.02a.751.751 0 01-.153-.031zm5.352-.137c.003.116.019.245.04.378-.219.257-.438.518-.66.788-.052.02-.103.042-.153.063.256-.414.51-.824.773-1.229zm49.34.097l-.034.077a8.917 8.917 0 01-.229.154l.05-.115.212-.116zm28.4.417l-.003.002c-.098.099-.23.188-.37.276l-.05.004.007-.054c.106-.088.298-.184.415-.228zM5.643 9.89a18.472 18.472 0 01-.915 1.567c.017-.214.053-.427.102-.638.144-.25.294-.505.448-.763l.276-.159a.92.92 0 00.09-.007zm61.933.126c-.174.341-.347.684-.518 1.027l-.152-.27c.076-.152.156-.302.237-.452.144-.102.288-.206.433-.305zM5.2 10.104a.35.35 0 01-.226.191l.024-.07c.067-.04.134-.081.202-.12zm82.952.21c-.182.192-.366.388-.485.577-.154.056-.308.113-.463.166-.027-.024-.053-.053-.08-.078.34-.23.679-.458 1.028-.665zm-62.954.528c-.02.018-.028.033-.007.036h.01c-.002-.011-.002-.024-.003-.036zm43.014.396c.015.144.027.294.04.443l-.524.552c.16-.332.321-.664.484-.995zm28.329.08l.103.018c-.126.095-.253.19-.379.291l.276-.31zm65.04.729c-.083.37-.153.712-.205.998-.574-.148-1.113-.017-1.608.27l.162-.17c.63-.158 1.175-.6 1.65-1.098zm-129.59.29c.014.064.032.12.048.177l-.26.184-.065-.002c.07-.092.208-.267.276-.358zm48.297.056c-.065.192-.127.385-.189.579-.027-.013-.058-.03-.085-.042.092-.179.184-.357.274-.537zm-56.8.059l-.304.337-.025.001c.088-.125.15-.222.199-.307a1 1 0 00.124-.028c.002 0 .003-.002.005-.003zm49.448.087a.566.566 0 00-.216.06c-.003.085-.01.167-.01.253 0 .47.029.913.082 1.336.16-.184.243-.36.096-.514-.021-.023-.043-.04-.065-.06.03-.08.06-.159.087-.24.176-.136.292-.227.157-.156l-.124.066.012-.033c.167-.508.15-.71-.019-.712zm-18.684.012l-.043.077-.025.018.068-.095zm-5.354.053l-.01.013c-.119.152-.247.296-.379.437.014-.052.03-.103.043-.155l.346-.295zm66.631.045v2.464c0 .78-.126 1.406-.38 1.88-.322.592-.84.889-1.55.889-.508 0-.872-.195-1.092-.584-.203-.39-.305-.873-.305-1.448 0-.474.06-.88.178-1.22.118-.338.33-.626.635-.863.305-.254.737-.483 1.295-.686a45.66 45.66 0 001.22-.432zm-99.782.076c-.05.118-.1.236-.153.35l-.174.01c.107-.121.214-.242.327-.36zm61.087.022c-.1.065-.2.131-.298.198-.195.037-.41.105-.605.158.349-.118.653-.235.903-.356zm84.429.057l-.224.183c.055-.043.113-.083.166-.127.11-.092.12-.104.058-.056zm-72.962.034a.755.755 0 01-.012.215c-.03.162-.078.32-.133.475a.921.921 0 00-.219.097c.064-.124.129-.249.186-.376.061-.136.12-.273.178-.41zm8.904.009c-.115.074-.231.146-.345.223a4.82 4.82 0 00-.403.112c-.775.258-2.435 1.659-2.587 1.835-.07.08.004.222.131.379l-.27.258-.026.027c.015.657.086 1.224.213 1.7.182.016.368.029.497.067.383.112.768.21 1.154.303a.663.663 0 00.148.115c-.242.198-.371.304-.192.172.072-.053.147-.104.22-.155.163.083.352.089.557.035l.111.025c.04.277.143.514.346.635l-.053.104c-.297.044-.616.096-1.026.173-.238.045-.475.1-.71.157.495.344 1.145.52 1.955.52.56 0 1.212-.117 1.952-.347l.04-.062c.203-.102.402-.21.599-.325-.05.071-.094.145-.143.217.066-.024.127-.042.194-.067v-.99a4.216 4.216 0 01-1.118.178c-.542 0-.889-.17-1.041-.508-.135-.356-.203-.949-.203-1.778v-1.526c-.178.287-.352.567-.504.823-.01-.013-.021-.022-.028-.037-.284-.2-.542-.348-.752-.627.18-.17.362-.338.546-.503l.738-.076zm41.861.115a.92.92 0 00-.018.338h-.25c.09-.111.179-.223.268-.338zm-73.956.052l.034.068-.045.036c-.012-.045-.013-.083.01-.104zm59.966.032c.003.05.005.1.011.143l-.172.033c.055-.057.108-.117.161-.176zm-6.041.289c-.245.183-.483.368-.567.569-.41.408-.595.688-.258.68.191-.003.368-.026.534-.062-.328.182-.586.424-.69.751-.052.048-.104.094-.16.148-.119.117-.043.12.117.075-.004.048-.01.094-.008.145.016.374.547.298 1.032.25zm6.145.167a.481.481 0 00.156.178c-.016.019-.03.04-.046.058-.082.095-.268.227-.437.334l.463-.088c-.24.242-.482.485-.727.723-.089.086-.18.17-.27.255l-.122-.004c.043-.06.085-.12.124-.184a3 3 0 00.25-.546c-.05.017-.065.007-.015-.047.017-.02.029-.032.046-.05a.829.829 0 01.004-.014l.01-.002c.206-.228.396-.435.564-.613zm-.565.613l-.013.015c-.011.033-.02.066-.032.098.058-.02.165-.082.283-.156l-.153.029-.085.014zm-100.687-.23c-.64.563-1.284 1.123-1.927 1.683-.084-.025-.167-.05-.251-.073.352-.378.704-.755 1.053-1.136a7.58 7.58 0 00.6-.342c.177-.037.353-.078.525-.132zm-18.068.161c-.21.656-.773 1.485-.245 1.78.014.008.029.012.043.02l-.017.013c-.373.322-.536.827-.818 1.23l-.157.225a26.97 26.97 0 011.044-3.222c.05-.015.101-.027.15-.046zm133.28.164c-.08.104-.163.206-.243.31-.237.314-.57.608-.872.912l-.586.026.083-.174c.365-.183.724-.374 1.073-.585.127-.077.251-.347.18-.459l.365-.03zm-43.915.012l-.26.249c-.252.134-.504.272-.776.347-.314.086.34-.267 1.036-.596zm-71.109.196c.073.081.154.14.242.177.03-.027.062-.055.094-.081-.006.026-.013.052-.018.079l-.027.02.022.007c-.061.297-.11.595-.144.895l-1.283.445a3.935 3.935 0 00-.436-.2l1.55-1.342zm.291.195l-.05-.018a3.256 3.256 0 00-.142.131c-.133.132-.003.038.192-.113zm62.17-.185l.043.006-.097.035.054-.041zm-71.75.079l-.11.201a3.395 3.395 0 00-.221.023c.015-.066.03-.132.05-.195l.281-.03zm96.73.05l-.002.004c-.14.273-.27.55-.376.834-.063.143-.13.285-.192.428a5.93 5.93 0 01-.025-.834c.205-.123.404-.27.595-.433zm-79.315.187l-.099.06.028-.042.071-.018zm.24.022l-.028.037c-.063.08-.338.227-.256.167l.284-.204zm.036.194c-.288.296-.532.55-.866.896-.089.076-.18.15-.271.224.12-.17.22-.356.318-.542.27-.198.54-.394.819-.578zm21.496.672l-.045.062-.058.042c.028-.033.053-.07.08-.103h.023zm112.818.1l-.076.102c-.029-.003-.057-.004-.086-.005.016-.025.027-.048.043-.073l.119-.023zm.89.067c.08.06.13.11.06.127a1.12 1.12 0 01-.348.015c.096-.047.191-.093.288-.142zm-152.414.068l.074.005a1.52 1.52 0 00-.044.454c-.034.33-.213.766-.285 1.124a2.385 2.385 0 00-.278.273c-.056.025-.112.05-.169.07.04-.245.012-.499.024-.748-.007 0-.013 0-.02.002.24-.39.47-.784.698-1.18zm79.193.013c.034.03.07.062.103.089-.173.116-.356.226-.529.342l.426-.43zm-70.254.155l-.001.047c-.111.162-.247.347-.372.536a1.978 1.978 0 00-.357-.33l.73-.253zm101.391.329l-.026.032a.765.765 0 00-.214.257c-.642.755-1.293 1.504-1.79 2.358-.032.055-.073.118-.108.175.126-.005.251-.009.386-.009.107 0 .36.017.682.042.225-.34.515-.677.708-.984.116-.184.238-.364.362-.542zm23.66.078c-.04.05-.09.106-.154.168.017-.04.03-.083.044-.126.038-.013.074-.027.11-.042zm.859.102c-.041.077-.08.155-.122.231-.128.234-.355.425-.409.686-.02.096.144.23.23.182a9.47 9.47 0 00.81-.503 2.856 2.856 0 01-.51-.596zm-118.447.037c-.052.126-.102.256-.15.388-.236.028-.336.04-.462.057.206-.134.41-.286.612-.445zm51.262.157a5.78 5.78 0 01-.356.266l.47-.18zm72.926 0c-.44.356-.915.635-1.423.839a4.139 4.139 0 01-1.549.305c-.375 0-.717-.044-1.031-.122.018.161.024.325.021.488-.04.073-.081.148-.114.215-.772.27-1.487.515-2.15.75.563-.402 1.203-.962 1.846-1.577a2.838 2.838 0 01-.543-.274 27.933 27.933 0 01-1.833 1.676c.453.18.948.313 1.487.394l.104-.04c.612-.22 1.042-.371 1.515-.539-.018.086-.04.171-.055.257-.062.126-.123.25-.155.309l-.062.113h.056a6.168 6.168 0 003.632-1.142l.177-.451c-.15.064-.3.125-.45.192.053-.132.102-.266.154-.398l.431-.139.247-.627-.023-.017-.4.135c.046-.1.102-.203.167-.31zm-98.738.17l-.007.023-.035.005.042-.028zm-12.376.028c-.09.301-.09.645-.201.942-.058.156-.12.31-.182.465-.238.023-.476.044-.715.066.42-.608.667-.93 1.098-1.473zm93.09.148c-.417.33-.77.58-.549.334a3.45 3.45 0 01.334-.32c.065.005.14-.004.216-.014zm-96.22.106c-.009-.007-.03-.006-.068.006-.043.014-.085.033-.127.05l.083.114c.08-.087.133-.153.112-.17zm98.374.276l-.364.117c.002-.026.013-.06.022-.093l.342-.024zm-71.132.145c-.25.305-.513.6-.807.878l-.094.09c-.027.001-.054 0-.08.01-.223.082-.445.17-.666.26a.086.086 0 00-.023-.052c-.129-.135-.313-.157-.51-.157.346-.182.693-.364 1.037-.549l.788-.42c-.104.118-.212.234-.312.355.217-.145.441-.28.667-.415zm-6.965.106l.02.031-.046.052-.034.008.06-.091zm98.88.353v.005l-.047.007.047-.012zm-5.386.178l-.141.1.032-.079c.008-.002.02-.01.027-.011a.52.52 0 01.082-.01zm-131.11.02l-.005.03-.027.009.032-.038zm7.112.07c-.402.195-.783.443-1.183.643l-.081.04c-.19-.054-.3-.147-.353-.3.568-.136 1.125-.267 1.617-.383zm66.749.01l.02.006c.01.009.02.019.032.027l-.046.073-.056.01.05-.115zm7.487.11c-.18.27-.406.567-.467.803.125.008.272.02.467.043zm-89.121.09l.068.003-.114.052.046-.056zm116.06.193l.112.031-.172.213-.087.024.148-.268zm-76.017.046l-.071.234-.151.074-.318.07c.108-.097.214-.198.323-.295.072-.029.144-.055.217-.083zm76.333.045c.03.009.058.017.086.027l-.144.039.058-.066zm-.628.026c-.06.09-.117.169-.172.243l-.168.046.34-.29zm-101.196.06a.262.262 0 01.22.059c.009.007.015.016.023.024-.08.029-.16.057-.24.09-.131 0-.252 0-.36-.004.123-.08.245-.153.357-.17z" aria-label="1nzelzeitfahren" font-weight="700" font-size="25.4" font-family="Optima" letter-spacing="0" word-spacing="0" fill="#fff" stroke-width=".265"/></svg>