<svg xmlns="http://www.w3.org/2000/svg" viewBox="0 0 184.939 33.788" height="127.703" width="698.983"><path d="M53.855 1.901v2.334c.633-.79 1.178-1.47 1.357-1.703.084-.11.181-.215.282-.32-.199.778-.31 1.585-.61 2.33-.061.153-.138.318-.21.48-.28.18-.572.346-.817.57l-.002.002v12.04l.048.009-.048.036v.023l.051-.059.024.001-.075.096v2.237c1.008-.104 2.016-.21 3.023-.316-.206.171-.412.342-.616.515-.815.311-1.62.646-2.407 1.024v.005c.186-.016.432-.042.736-.076.305-.034.644-.05 1.016-.05.153 0 .526.025 1.118.075.136 0 .347.018.635.051v-3.337c-.06.21-.103.424-.127.643-.313.202-.682.304-1.025.453l-.034.004c.105-.41.219-.838.33-1.27.033-.035.065-.073.099-.108.255-.266.505-.537.757-.805V7.893c-.215.117-.43.225-.633.282-.483.557-1.008 1.082-1.45 1.673l-.034.048c.05-.12.097-.24.146-.36.393-.372.794-.74.924-1.233.038-.142-.304-.174-.429-.096l-.017.012.03-.095c.01-.034.026-.07.038-.105.08-.072.13-.121.053-.082l-.03.016c.138-.367.354-.785.48-1.174.209-.34.535-.863.761-1.215.049-.057.105-.11.161-.165V3.822c-.04.014-.092.036-.127.047-.268.08-.372.423-.47.768a3.838 3.838 0 00-.27.295c-.09-.14-.24-.188-.422-.189.016-.032.035-.067.05-.1l-.137.105c-.09.006-.186.021-.284.04a4.3 4.3 0 01.51-.322c.125-.261.233-.502.317-.713.228-.579.333-1.195.442-1.81-.117.011-.203.019-.346.035-.304.034-.643.05-1.016.05-.152 0-.414-.008-.787-.025a44.094 44.094 0 01-.965-.102zm2.356 2.565c-.027.056-.061.12-.09.178.191-.144.38-.29.561-.442-.153.094-.313.177-.471.264zM122.133 1.9v1.53l.176-.076-.001.09c-.052.093-.11.185-.175.278v9.494c.148-.28.3-.558.452-.835.092-.106.21-.229.335-.358-.006.011-.013.02-.018.032-.07.153-.042.322-.002.494-.09.15-.18.298-.27.45-.02.011-.042.02-.063.03h.045c-.163.277-.32.547-.479.825v6.129a.186.186 0 00.148-.059 1.4 1.4 0 00.239-.391c.404-.192.866-.445 1.436-.789.215-.13-.497-.083-.748-.103a17.854 17.854 0 00-.828-.044c.122-.206.247-.411.366-.62.108.005.215.007.323.011l.061-.06.014-.002-.07.063c.771.026 1.543.048 2.31.075l.254.012v-1.168l-.417-.012.417-.39v-1.144c0-.138.004-.253.006-.384l-.07.014.071-.073c.016-1.142.087-1.973.222-2.453.305-1.117.965-1.676 1.981-1.676.502 0 .909.145 1.225.429.262-.598.512-1.199.757-1.788-.144.012-.29.012-.438.01.104-.171.201-.333.309-.507l.02-.026c.125-.107.184-.161.057-.068l.13-.155a5.02 5.02 0 00-.51-.028 3.43 3.43 0 00-.723.08c-.167.265-.318.5-.488.773a1.35 1.35 0 00-.386.168c.225-.304.504-.6.729-.905-.389.1-.785.262-1.19.493a6.322 6.322 0 00-1.702 1.372V8.586c-.486.384-.509.516-1.486 1.974-.08.117-.16.244-.241.367a3.59 3.59 0 00-.647.261 76.94 76.94 0 012.374-3.835V4.835c-.017.022-.051.069-.07.092.027-.058.046-.103.07-.157V1.901c-.186.017-.431.043-.736.077-.126.014-.26.023-.398.031l-.277.12c.012-.037.022-.074.035-.11-.123.005-.245.01-.376.01-.152 0-.415-.009-.788-.026a44.093 44.093 0 01-.965-.102zm.942 16.089h-.006c-.027.026-.057.052-.083.08l.089-.08zm-.508-4.96h-.034c-.105.056-.424.211-.315.165.118-.05.233-.108.35-.164zm-15.05-11.103c-.563 0-1.073.087-1.53.26-.047.061-.096.122-.14.186-.035.048-.067.212-.096.423l-.26.168c.053-.206.075-.397-.006-.539-.087.05-.172.104-.254.162-.627.44-1.21 1.135-1.753 2.083-.04.07-.075.14-.114.21.009-.005.017-.011.026-.018l-.06.652c-.121.05-.241.106-.361.168a8.913 8.913 0 00-.355.97l-.044.173.012.105-.023.004c-.011.002-.017.01-.022.018l-.013.053c-.002.027-.002.057-.012.077l-.014.024a19.506 19.506 0 00-.34 1.78h-1.345c.057.014.114.027.173.037l-.338.407-.152.046c.043-.163.086-.326.125-.49h-.343c.033.271.05.449.05.534v.305c0 .355-.017.618-.05.787h1.88V12.9l.043-.007c-.014.019-.03.04-.043.06v8.253c.186-.016.431-.042.736-.076.305-.034.643-.05 1.016-.05.152 0 .525.025 1.118.075l.046.002c.132-.187.26-.385.387-.604.03-.051.082-.117.14-.187l.062-.037v-2.063c-.606.764-1.152 1.448-1.49 1.863.02-.194.038-.381.042-.536.481-.48.965-.975 1.448-1.478v-1.535c-.477.518-1.046 1.09-.957 1.168-.27.304-.53.589-.752.833.27-.653.573-1.284 1.309-2.74.135-.268.25-.488.37-.726-.003.005-.005.009-.009.013-.045.058-.246.156-.186.115.065-.044.131-.085.196-.128l.029-.056v-4.546h2.387c-.034-.406-.05-.677-.05-.813v-.33l.016-.153c-.096.153-.284.46-.382.62-.232-.142-.465-.281-.7-.417.032-.1.06-.201.084-.304.014-.064.037-.149.059-.229h-1.592a21.003 21.003 0 01-.686-1.701c-.288-.796-.432-1.347-.432-1.651 0-.136.051-.263.153-.381l.152-.153c.17-.169.347-.262.533-.28.204-.033.491-.05.864-.05.356 0 .711.068 1.067.203.318.116.651.261.994.426l.114-.504.144.447-.156.105.072.034.33-.127a7.654 7.654 0 01-.025-.635v-.711c0-.068.008-.322.025-.762a8.46 8.46 0 01.102-1.118c-.356-.067-.601-.101-.736-.101zm-1.883 13.187l.029-.019v-.018l-.029.037zM88.027 2.23c-.542 0-1.008.204-1.397.61-.39.407-.585.872-.585 1.397 0 .31.064.597.185.863.073-.046.154-.106.233-.166-.055.098-.113.193-.17.29.083.153.186.298.312.436.12.12.25.22.388.304l.138-.19c.025 0 .05-.002.077-.004-.044.081-.089.163-.132.245.284.153.6.229.95.229.56 0 1.034-.195 1.423-.584.407-.407.61-.881.61-1.423 0-.559-.203-1.033-.61-1.422a1.992 1.992 0 00-1.422-.585zm36.179.31l-.147.195.001-.065.032-.081.114-.05zm-35.442.212c.023.054.046.124.07.196l-.038.02a1.277 1.277 0 00-.106-.166l.074-.05zm16.942.454c-.04.386-.061.654-.086 1.032l-.288.215a2.48 2.48 0 00-.05.006l.027-.735c.004-.086.024-.18.048-.277l.349-.24zm16.579.856v.003l-.009.003.009-.006zm-25.08.378c-.559.271-1.177.559-1.854.864-.678.304-1.228.542-1.651.711v2.87h-1.727c0 .068.016.161.05.28v.889c0 .152-.016.305-.05.457h1.169l.29-.377c.124-.07.244-.16.364-.252v.027a8.743 8.743 0 00-.33.432c-.037.052-.083.11-.133.17h.367v6.356c.42-.61.857-1.248 1.275-1.884.04-.02.079-.042.119-.063l-.105.04.013-.02.863-.962c.372-.222.74-.451 1.105-.684.078.015.157.028.235.042v-2.825h2.159c0-.085-.017-.229-.051-.432V9.37l.05-.483h-2.158zM5.632 4.59c-.706.336-1.361.642-1.924.894A40.677 40.677 0 010 6.905v.203c.237.22.432.432.584.635.107.118.205.25.299.388.324-.202.639-.42.95-.643-.038.018-.075.027-.104.01-.104-.06-.038-.2.032-.336a.82.82 0 01.288-.044c.101.005.013.175-.102.288l.33-.237c-.129.207-.26.413-.387.622l.656-.287-.074.187c.52-.265 1.035-.543 1.541-.837v7.928c.106-.054.212-.108.316-.163l-.316.494v5.654c.307-.121.61-.253.892-.423.076-.047.186-.156.307-.289-.081.344-.157.698-.228 1.055.243-.019.5-.032.782-.032.125 0 .438.022.863.056l.059-.096c.108-.044.214-.09.317-.146.203-.111.363-.28.513-.46v-4.447c-.019.027-.038.05-.057.078.023-.104.042-.209.057-.316V7.421c-.11.04-.218.086-.324.14a9.29 9.29 0 00.324-.808v-1.57c-.073-.06-.155-.113-.218-.178-.864.454-1.306.639-1.65.81.087-.364.136-.695.107-.931a.695.695 0 00-.125-.295zM1.947 7.406l-.114.082a.422.422 0 00.114-.082zm94.447-.526v.013l-.028.008.028-.021zm-90.586.426a6.5 6.5 0 01-.13.424 5.774 5.774 0 01-.25.116l.38-.54zm90.024.077c.045.01.09.017.136.026l-.22.246c.025-.089.05-.178.077-.266l.007-.006zM21.225 8.658a4.26 4.26 0 00-2.184.61c-.593.355-1.169.854-1.727 1.498v-1.88c-.187.017-.424.042-.712.076-.27.034-.592.051-.965.051-.116 0-.337-.01-.543-.017.018.135.036.27.012.396-.114.59-.317 1.159-.475 1.738l-.275.75c-.141.228-.277.44-.42.666v5.248l.129-.006-.13.223v3.194l.177-.018c.058-.159.117-.315.176-.471.337-.118.662-.274.969-.462-.133.248-.273.496-.417.746l-.135.126c.296-.031.623-.048.983-.048.067 0 .194.007.346.017.02-.034.042-.067.063-.101l.045-.056c.139-.054.285-.112.43-.167.05-.108.118-.209.196-.307.174.015.348.028.52.038l.152-.057v-.377c-.173.079-.361.167-.546.253.168-.183.362-.356.546-.533v-4.425c0-1.286.094-2.252.28-2.895.322-1.118.965-1.677 1.93-1.677.374 0 .694.083.964.241.136-.419.27-.838.374-1.265.331.268.576.705.608.966.007.053.008.105.011.157-.122.263-.246.523-.373.78.052.09.1.185.144.29.237.575.355 1.55.355 2.92v4.24c.32.218.635.5.672.862.041.397-.227.822-.595 1.216.178-.017.387-.039.66-.069.305-.034.643-.05 1.016-.05.152 0 .524.025 1.117.075.136 0 .347.018.635.051v-7.442c0-.344-.014-.664-.037-.97-.32.247-.639.495-.966.731l-.534.593c.05-.114.084-.246.137-.35.04-.077.076-.157.114-.235l.06-.044c.376-.44.75-.883 1.124-1.324-.123-.887-.359-1.593-.71-2.11-.525-.78-1.363-1.228-2.505-1.355-.166.04-.34.093-.521.155l.105-.185c-.093-.004-.183-.011-.28-.011zM17.29 20.502c-.238.088-.499.186-.716.269a.969.969 0 00-.089.358l.322.025.065.003c.177-.121.381-.295.57-.461v-.187l-.152-.007zM46.082 8.658c-.83 0-1.579.123-2.25.365-.166.236-.308.43-.45.621a.557.557 0 00-.095-.074c.136-.133.192-.221.036-.201-.084.01-.161.024-.238.038l-.104.08-.03-.002.113-.075-.1.021c-.423.25-.806.558-1.148.929-1.033 1.117-1.55 2.582-1.55 4.394 0 .44.025.86.072 1.26.071-.12.112-.184.21-.357.054-.08.11-.161.183-.263-.12.279-.242.557-.367.835.152 1.07.478 1.988.98 2.752.235-.272.504-.58.895-1.033a9.27 9.27 0 01.336-.305c-.052.224-.054.47-.122.69-.142.455-.3.901-.465 1.343l-.056.046a5.05 5.05 0 001.819 1.217l.368-.03c-.02.047-.043.094-.064.142.754.254 1.615.383 2.587.383.15 0 .298-.007.445-.016.127-.322.196-.615-.06-.666a1.093 1.093 0 00-.255-.02l.03-.069c.723-.067 1.447-.133 2.171-.202.004.049.01.098.018.15-.111.167-.223.334-.336.5a6.25 6.25 0 001.618-.82l.56-1.422-.305-.23c-.44.356-.915.636-1.423.839a4.432 4.432 0 01-.388.134.28.28 0 00.073.155c.01.012.02.02.031.031l-.328.034c-.454.047-.91.091-1.364.138l.102-.202c-1.118-.073-1.944-.522-2.47-1.357-.488-.759-.733-1.87-.735-3.335-.01.077-.022.153-.043.226l-.013.044c-.309.268-.625.555-.946.856l.016-.026c.139-.183.28-.364.425-.542.19-.233.382-.463.575-.694-.003.04-.008.08-.012.119h2.646c.058-.07.116-.143.17-.21-.011.07-.022.14-.035.21h4.48c0-1.982-.372-3.506-1.117-4.573-.847-1.219-2.21-1.828-4.09-1.828zm-3.018.752c.007 0 .014-.002.02-.003.03-.024.062-.046.091-.07-.036.025-.074.049-.111.073zm71.145-.752c-.076 0-.152.003-.227.005l-.353.464c-.046.025-.09.051-.134.078.1-.172.203-.355.304-.534a7.804 7.804 0 00-2.156.444c-.846.288-1.558.703-2.133 1.245l.33 1.524h.178c.101-.305.431-.627.99-.966.678-.406 1.38-.61 2.109-.61.193 0 .38.026.56.072.14-.181.255-.335.39-.513a7.452 7.452 0 00-.017.643c.251.114.49.274.717.485.508.44.762.956.762 1.549 0 .22-.034.406-.101.559a1.11 1.11 0 01-.28.432 3.875 3.875 0 01-.914.406c-.237.068-.55.152-.94.254-.462.112-.881.226-1.264.34-.098.154-.217.332-.375.554l-.128.087a2.15 2.15 0 01.04-.226l.124-.309c-.883.284-1.53.576-1.928.875-.745.559-1.117 1.414-1.117 2.565 0 .957.282 1.73.84 2.318l.4-.02-.113.283c.634.513 1.467.772 2.505.772l.103-.003c.046-.12.068-.264.12-.377l.164-.362c.108-.141.217-.293.327-.453.72-.025 1.44-.045 2.117-.062.156-.18.296-.38.42-.597.074.209.164.402.27.58l.676-.016c.695.356 1.373.75 2.058 1.126l.14.077c.154-.036.314-.081.489-.141.457-.153.846-.305 1.168-.458v-.584c-.508 0-.855-.076-1.042-.229-.156-.156-.236-.448-.248-.864l-.833.028c-.28-.156-.564-.304-.852-.443.258-.163.546-.35.917-.593.15-.098-.36.004-.538.02-.467.042-.933.091-1.398.144-.354-.113-.607-.2-.802-.256.15-.037.304-.102.462-.19.06.001.12 0 .18-.004.2-.016.329-.242.45-.403l.073-.1c.592-.507 1.088-1.104 1.176-1.193.545-.808.886-1.31 1.16-1.714v-2.306c0-1.168-.542-2.057-1.626-2.667-.864-.49-1.93-.736-3.2-.736zm30.013 0c-.376 0-.726.038-1.055.106-.157.265-.365.674-.583 1.127a.424.424 0 00-.052-.067c.148-.136.196-.224.01-.201-.117.014-.227.04-.335.072a.764.764 0 00-.107.009c.058-.28.093-.44.133-.624-.304.15-.582.338-.83.568-.576.542-1.016 1.338-1.321 2.388v-3.15c-.186.017-.432.042-.737.076a9.25 9.25 0 01-1.015.051c-.044 0-.164-.005-.226-.007-.136.146-.272.293-.409.438a9.4 9.4 0 00-.7.442l.047-.188c.02-.086.049-.194.072-.287.15-.142.303-.284.46-.422h-.032a44.091 44.091 0 01-.965-.103v10.776l.005-.02c.337-.032.674-.062 1.012-.09-.065.019-.13.042-.195.059l-.822.214v.753c.363-.09.744-.183 1.04-.258-.155.156-.313.31-.475.457-.136.124-.27.267-.408.412.167-.016.34-.033.58-.06.071-.008.151-.012.226-.018.435-.282.916-.714 1.385-1.182a11.53 11.53 0 001.157-.49v-3.923c0-.423.008-.788.025-1.093.017-.321.06-.575.127-.762.153-.525.432-.93.839-1.219.423-.305.922-.457 1.498-.457.237 0 .474.026.711.076.237.051.432.136.585.254l.228-.203c0-.559.008-1.16.025-1.804.017-.66.051-1.21.102-1.65zm7.23 0c-1.794 0-3.216.567-4.266 1.702-.968 1.046-1.476 2.402-1.538 4.057.46-.541.857-1.122 1.102-1.484l.416.05c-.163.279-.382.593-.408.809-.167.275-.335.546-.504.834-.205.006-.41.015-.614.026 0 .034-.004.067-.004.102 0 .27.009.53.026.785l.064-.006-.059.056c.062.836.219 1.588.472 2.256.132-.089.247-.186.314-.3a.98.98 0 00.081-.183c-.11.07-.182.107-.103.022l.14-.145c.024-.102.039-.207.052-.313.063.025.132.04.204.046.556-.562.856-.795 1.048-.93a9.486 9.486 0 01-.66.789c-.034.036-.098.088-.154.136.088-.009.178-.024.271-.045-.307.384-.68.907-1.027 1.315l.067.143a9.981 9.981 0 001.268-.702c-.286.483-.557.973-.807 1.474a4.91 4.91 0 00.94 1.004c.044-.123.086-.247.134-.369.687-.185 1.56-.673 1.927-1.15.084-.108.16-.222.234-.337-.447-.758-.672-1.836-.672-3.241h6.954c.04-.31.093-.62.16-.927l.008-.009c-.072.351-.119.7.018.636l.115-.056c-.043-1.807-.41-3.216-1.109-4.217-.846-1.219-2.21-1.828-4.09-1.828zm-4.391 8.309c-.081.008-.16.012-.234.005l-.257.267c-.01.042-.022.083-.036.123.145-.092.355-.248.527-.395zm19.073-8.31a4.26 4.26 0 00-2.184.61c-.18.108-.357.233-.534.367-.177.4-.375.824-.68 1.499-.082.139-.16.28-.24.42l-.259.184c-.06-.037-.102-.065-.173-.108-.036-.022.097.05.088.09-.006.033-.016.065-.023.097-.217.158-.433.316-.643.482l.206-.345c.414-.637.78-1.237 1.154-1.832-.21.198-.418.408-.623.645V9.353c-.101.042-.155.046-.177.024l.177-.208v-.283c-.187.017-.424.042-.712.076-.063.008-.14.012-.208.018-.655.771-1.625 1.916-2.459 2.903v1.47c.421-.354.658-.886 1.002-1.317.243-.305.485-.603.727-.897-.473.866-.97 1.816-1.225 2.459-.157.189-.34.385-.504.58v6.897c.284-.042.568-.086.852-.125.439-.057.795-.1 1.136-.14.006.096.016.19.026.281.2.011.46.03.857.063.135 0 .346.018.634.051v-5.842c0-1.286.094-2.252.28-2.895.283-.985.817-1.535 1.6-1.653l.15-.299c.097.092.196.165.294.218l.06-.046c-.014.016-.033.033-.052.051.052.028.104.051.156.069.681.08 1.165.463 1.45 1.152.062.152.116.334.162.543a9.52 9.52 0 01.356-1.34c.123-.191.325-.44.164-.425h-.003c.025-.065.047-.13.074-.196-.212.113-.43.218-.647.323.141-.484.29-.966.46-1.44a8.59 8.59 0 00.373-.67 5.806 5.806 0 00-1.092-.097zm-1.453 2.082l-.008-.005-.078.06.03.001c.023-.02.036-.036.056-.056zM79.282 8.695c-.236.305-.474.61-.714.912.03-.23.052-.46.062-.693-.18.053-.362.099-.545.143.23-.209.517-.428.36-.322a10.47 10.47 0 00-.486.353c-.359.087-.717.175-1.061.298.038-.194.073-.385.106-.572-1.057.23-1.945.719-2.664 1.463.106.167.249.326.335.496.002.013.056.494.144.998-.107.41-.23.814-.368 1.203-.276.309-.604.624-.367.847.006.007.013.01.02.016a6.306 6.306 0 01-.3.572c.252-.169.516-.324.78-.479.351-.067.76-.316 1.11-.374.074-.176.147-.359.217-.545l.049-.044c.069-.066.124-.142.173-.224.083-.051.166-.104.248-.157-.152.61-.32 1.218-.485 1.826-.05.185-.284.575-.226.652-.068.011-.014.137-.021.206l-.118.345c-.09.082-.179.167-.263.256a2.53 2.53 0 00-.379.536c-.487.129-.991.26-1.49.39l.973-.619c-.307-1.227-.155-.945-1.556.095.054.372.13.724.228 1.059l1.599-.421c-.106.233-.21.467-.337.686l-.023.039c-.256.137-.541.29-.946.51.037.085.077.168.117.25.181-.092.363-.183.544-.272l-.006.01c-.175.097-.348.196-.522.294.045.089.091.175.14.26l.084-.045-.056.094c.192.328.413.63.664.906l.213-.34a6.787 6.787 0 00-.067.46l-.022.01c1.074 1.099 2.613 1.653 4.62 1.66l.12-.043.67-.067c-.01.023-.022.046-.034.069a6.13 6.13 0 002.916-1.101l.014-.037-.598.062.67-.244.2-.508c-.416.155-.833.307-1.25.46.132-.284.255-.557.375-.823-.189.103-.38.197-.58.277a4.235 4.235 0 01-.976.26c-.117.261-.24.52-.358.778l-2.443.254 1.845-.714.76-.292a4.036 4.036 0 01-1.029-.03l-.665.26a2.01 2.01 0 00.312-.325c-.778-.186-1.376-.602-1.789-1.258-.49-.762-.736-1.88-.736-3.352h.852a3.38 3.38 0 01.152-.193 7.978 7.978 0 00-.215.056l.192-.49c.03-.062.115-.189.14-.245.136-.107.257-.225.375-.347H76.47c0-1 .118-1.847.355-2.54.339-1 .915-1.5 1.727-1.5.3 0 .557.106.778.305.302-.38.603-.764.964-1.226a5.94 5.94 0 00-1.011-.184zm-1.808 6.171c.06-.014.117-.025.177-.038.06-.103.125-.202.19-.299a1.635 1.635 0 00-.367.337zm.367-.337c.12-.07.231-.085.306.017a.229.229 0 01.033.068c-.02.023-.044.044-.064.067-.016.02-.029.041-.044.061a10.04 10.04 0 00-.421.086c-.045.075-.087.153-.13.23h6.213c0-1.98-.372-3.505-1.117-4.572a3.945 3.945 0 00-1.753-1.41l.008.006a.783.783 0 00-.096.117c-.407.386-.796.806-1.168 1.238.147.232.27.526.367.887.17.627.254 1.466.254 2.516h-1.83a4.076 4.076 0 00-.558.69zm52.617-5.75c-.211.345-.382.715-.578 1.07-.216.498-.462.984-.648 1.494-.003.01-.01.02-.014.03.141.162.262.355.358.587.237.575.355 1.55.355 2.92v5.557c.55.085 1.134-.107 1.713-.245-.189.299-.374.6-.556.904a10.4 10.4 0 01.596-.018c.152 0 .525.026 1.117.076.136 0 .347.018.635.051v-4.058c-.374.084-.748.167-1.123.249.18-.07.287-.107.493-.186.209-.08.42-.157.63-.234v-.6c-1.04.405-1.933.729-3.04 1.132.265-.442.529-.884.795-1.324l1.057-1.88c.178-.142.356-.283.531-.428.1-.057.193-.117.282-.177.005.017.014.036.017.053.121.04.24.093.358.141v-.841c0-.745-.067-1.363-.203-1.854-.135-.491-.423-.948-.863-1.372a3.956 3.956 0 00-1.912-1.048zm-116.523.107v2.192c.325-.753.595-1.431.986-2.088-.03-.001-.04 0-.071-.002a37.57 37.57 0 01-.915-.102zm14.976 0c-.187.18-.372.363-.552.55.012.107.02.213.02.314s-.017.22-.051.355c-.017.136-.042.305-.076.508.059 0 .19-.007.264-.008l.092-.133c.278-.283.559-.563.842-.841-.172.31-.36.635-.547.96.47-.018 1.053-.049 1.889-.105 1.27-.084 2.37-.126 3.302-.126a264.177 264.177 0 01-3.277 4.876c-.358.525-.725 1.046-1.089 1.569.322-.251.612-.529.846-.732l.068-.088.112-.075.938-.271-.401.533c-.178.133-.238.181-.45.339-.621.46-1.234.935-1.869 1.376-.16.227-.322.452-.483.678.624-.309 1.295-.738 1.95-1.197-.092.143-.182.287-.267.435-.109.187-.3.437-.465.684-.323.252-.655.509-1.088.843-.256.043-.513.085-.769.13-.138.193-.272.386-.41.577v.32c.255-.045.51-.091.767-.134l.008.044c-.255.052-.513.101-.776.15v.661h.284l.612-.128.028.128h10.049a13.476 13.476 0 00-.102-.508 3.476 3.476 0 01-.02-.272c-.09.156-.179.312-.271.466-.047-.74-.2-.574-.32-.278.065-.233.162-.604.292-1.114-.156.006-.975.048-1.512.074-.159.492-.33.981-.408 1.485-.685.037-1.37.056-2.057.052a2.106 2.106 0 00-.987-.186l.022-.05.12-.18.333-.18c.408-.22.861-.408 1.17-.755.023-.027.045-.065.067-.1-.96.048-1.912.073-2.855.073.643-1.016 1.38-2.125 2.21-3.327.338-.491 1.1-1.575 2.286-3.251l2.235-3.15v-.99H32.56a7.314 7.314 0 01-.518.218c-.064.149-.157.288-.192.446a5.582 5.582 0 00-.076.642c-.08.027-.16.058-.24.092l.078-.162c-.022-.101.026-.352-.067-.305-.065.033-.112.06-.174.092.103-.24.2-.484.286-.732.03-.088.074-.188.121-.292zm31.786 0c0 .068.025.178.076.33.033.187.05.365.05.534 0 .101-.017.22-.05.355-.017.136-.043.305-.076.508.162 0 .443-.012.73-.024.225-.214.452-.426.684-.632.023.059.048.117.072.176-.359.154.122-.464-.534.448.424-.02.953-.052 1.587-.095 1.27-.084 2.37-.126 3.302-.126a264.177 264.177 0 01-3.276 4.876 223.953 223.953 0 01-3.378 4.801v1.041h2.13c.17-.242.332-.49.501-.733.107.107.216.21.326.307-.208.216-.445.392-.704.426h.365c.155-.105.31-.212.462-.322.132.112.264.223.384.322h4.512a8.186 8.186 0 001.506-1.024c.197-.113.394-.227.593-.337-.046.132-.09.252-.136.386-.585.334-1.157.665-1.678.975h.6c.312-.2.629-.399.951-.595-.056.167-.112.335-.164.5-.03.03-.06.062-.089.095h1.413a13.476 13.476 0 00-.101-.508 3.435 3.435 0 01-.025-.355c0-.102.008-.22.025-.356.034-.135.067-.304.101-.508-.108 0-1.38.064-3.277.162-.481.306-.947.61-1.406.912l-.152.073c-.35-.117-.656-.336-.985-.503-.143-.117-.306-.248-.472-.393-.078 0-.157.003-.236.003.644-1.016 1.38-2.125 2.21-3.327.339-.491 1.1-1.575 2.286-3.251l1-1.408c-.032-.35-.059-.671-.081-.931.175-.057.355-.099.535-.136a.102.102 0 00.047-.002l.066-.02.236-.044.433-.61v-.99h-.363c.008.167.01.335.004.502a73.06 73.06 0 01-.119.433v.003a26.55 26.55 0 00-.855.435c.268-.465.547-.923.84-1.373h-.598l-.164.083c.03-.027.056-.055.082-.083zm25.603 0v2.717c.021-.055.044-.109.068-.163.071.032.22.047.296.067.146.04.47.054.73.113-.034.233-.02.393.091.35l.055-.02-.537.488a1.165 1.165 0 00-.274.011 2.998 2.998 0 01-.302-.442 1.775 1.775 0 01-.127-.334v9.466l.055-.02-.055.06v.026c.186-.016.431-.042.736-.076.305-.034.643-.05 1.016-.05.152 0 .525.025 1.118.075.135 0 .347.018.635.051V8.886c-.186.017-.432.042-.737.076a9.25 9.25 0 01-1.016.051c-.152 0-.415-.008-.787-.025a44.094 44.094 0 01-.965-.102zm72.544 0v.004l.004-.003h-.004zm-122.133.007c-.002.009 0 .019-.004.027l-.002.007-.113.169c-.398.39-.72.705-.948.925l-.019-.029a6.5 6.5 0 00.252-.215c.206-.187.363-.416.51-.654.106-.078.215-.154.324-.23zM168 8.981a31.981 31.981 0 01-.564 1.682l-.008.021c-.439.54-.739 1.28-.956 1.928.113.568.171 1.321.171 2.269v4.032a8.187 8.187 0 001.483-1.423c.05-.026.1-.052.15-.08-.005.097-.01.195-.019.292-.414.428-.81.833-1.186 1.217a2.747 2.747 0 00-.316.012c-.018.002-.076.015-.112.021v.252l.263-.118-.263.267v.85c.397-.347.78-.712 1.155-1.082-.35.6-.766 1.315-1.155 2.015v.07c.186-.017.432-.043.737-.077s.643-.05 1.016-.05c.152 0 .524.025 1.117.075.136 0 .347.018.635.052v-1.29a1.64 1.64 0 00-.353.108l-.02-.019a68.7 68.7 0 00.373-.617v-1.95c-.07.025-.14.051-.207.083.004-.029.01-.057.013-.086l.097-.17.097-.162v-3.34c0-.39-.016-.754-.045-1.097a1.849 1.849 0 00-.204-.008l.077-.303.063-.252a6.223 6.223 0 00-.304-1.242c-.3.255-.592.526-.872.805a.469.469 0 00-.032.005l.11-.304c.098-.45.74-1.232.295-1.354a1.93 1.93 0 00-.165-.036l.037-.1.03-.08c-.3-.355-.68-.627-1.138-.816zm-8.22.008l-.935 1.197v1.154c.57-.704 1.198-1.485 1.871-2.33-.058 0-.108.003-.169.003-.165 0-.425-.008-.767-.024zm-102.9.156c-.08.23-.137.47-.204.706a4.895 4.895 0 00-.474.22c.234-.333.462-.65.671-.919l.006-.007zm30.596.134c.23.116.464.225.7.33-.06.157-.121.32-.177.46l-.02.004c-.035.029-.074.055-.11.083-.286.068-.568.152-.847.244.128.171-.226.448-.339.649-.08.068-.155.14-.23.213.128-.263.272-.521.397-.78l.014-.028c-.133.046-.265.096-.397.145.153-.164.328-.283.455-.259.178-.362.364-.715.554-1.06zm-.554 1.061c-.02.039-.04.075-.058.114.053-.018.105-.037.158-.054 0 0 0-.002-.002-.003a.155.155 0 00-.098-.057zm66.447-1.044a.04.04 0 01.016.03c.016.24-.31.368-.464.553.13-.172.288-.373.448-.583zm-91.58.059c.01.022.02.045.033.069l-.099.057.065-.126zm52.973.037c-.305.304-.477.36-.575.383.195-.123.386-.251.575-.383zm38.71.177c-.241.434-.483.868-.72 1.305.054.138.106.285.15.45.17.627.253 1.466.253 2.516h-2.404a6.518 6.518 0 00-.245.155 1.131 1.131 0 00-.103-.007c.03-.051.059-.095.09-.148h-1.096c0-1 .118-1.847.355-2.54.339-1 .914-1.5 1.727-1.5.45 0 .808.23 1.079.677l.126-.286c.173-.147.386-.32.789-.622zm-107.363.232c.677 0 1.151.507 1.422 1.523.17.627.254 1.466.254 2.516h-3.759c0-1 .119-1.847.356-2.54.338-1 .914-1.5 1.727-1.5zm-8.074.061a.465.465 0 01.008.223c-.021.07-.046.134-.068.202-.174.099-.349.196-.525.29l.2-.361c.13-.117.259-.234.385-.354zm66.866.312l.227.126c-.112.335-.233.668-.367.995a9.394 9.394 0 01-.215.128c.158-.355.362-.811.186-.957l.169-.292zm-81.018.185c-.302.867-.645 1.72-1.015 2.56-.158.193-.29.354-.42.516.205-.456.387-.962.56-1.612l.108-.399c.253-.37.497-.707.767-1.065zm-7.413.09l-.003.02-.055.071.058-.091zm57.317.502c-.605.868-.955 1.906-1.049 3.116.32-.755.856-2.088 1.049-3.116zm-5.756.046l.005.044c-.05.093-.1.185-.148.278-.125.078-.246.16-.37.24.04-.066.076-.133.116-.198.135-.107.269-.23.397-.364zm-49.811.105l-.051.11v-.048l.051-.062zm31.931.134a.67.67 0 01.04.206c.099.01.207 0 .32-.018-.127.102-.24.186-.334.243a8.103 8.103 0 01-.142.996c-.272.158-.54.324-.8.482-.08.048-.156.101-.231.155.233-.693.495-1.377.775-2.053a.57.57 0 00.259.164c.031-.062.07-.12.113-.175zm-.113.175a.858.858 0 00-.072.186c-.043.178.054.165.211.07.005-.069.013-.136.015-.205l-.001-.02a.751.751 0 01-.153-.03zm5.352-.137c.003.116.019.245.04.379-.219.257-.438.517-.66.787-.052.02-.103.042-.153.063.256-.413.51-.823.773-1.229zm49.34.097l-.034.077a8.917 8.917 0 01-.229.154l.05-.114.212-.117zm28.4.417l-.003.003c-.098.098-.23.188-.37.275l-.05.004.007-.054c.106-.087.298-.183.415-.228zm-127.485.005a18.472 18.472 0 01-.915 1.566c.017-.214.053-.426.102-.638.144-.25.294-.505.448-.762l.276-.16a.92.92 0 00.09-.006zm61.933.125c-.174.342-.347.684-.518 1.028-.047-.084-.116-.209-.152-.27.076-.153.156-.303.237-.453.144-.102.288-.205.433-.305zM5.2 12.006a.35.35 0 01-.226.19l.024-.07.202-.12zm82.952.209c-.182.192-.366.388-.485.577-.154.056-.308.113-.463.166-.027-.023-.053-.053-.08-.078.34-.229.679-.458 1.028-.665zm-62.954.528c-.02.019-.028.034-.007.037h.01c-.002-.012-.002-.025-.003-.037zm43.014.396c.015.145.027.295.04.444l-.524.551c.16-.332.321-.664.484-.995zm28.329.08l.103.018c-.126.096-.253.191-.379.291l.276-.31zm65.04.73c-.083.37-.153.712-.205.997-.574-.148-1.113-.017-1.608.27l.162-.17c.63-.157 1.175-.6 1.65-1.098zm-129.59.29c.014.063.032.119.048.176-.087.061-.173.124-.26.184l-.065-.001c.07-.093.208-.268.276-.359zm48.297.055c-.065.193-.127.386-.188.58l-.086-.042c.092-.18.184-.358.274-.538zm-56.8.06l-.304.337h-.025c.088-.124.15-.221.199-.306a1 1 0 00.124-.029c.002 0 .003-.002.005-.003zm49.448.086a.566.566 0 00-.216.06c-.003.085-.01.167-.01.254 0 .469.029.913.082 1.335.16-.183.243-.36.096-.514-.021-.022-.043-.04-.065-.06.03-.079.06-.158.087-.239.176-.136.292-.228.157-.157l-.124.067.012-.033c.167-.51.15-.711-.019-.713zm-18.684.012l-.043.077-.025.018.068-.095zm-5.354.054l-.01.012c-.119.152-.247.296-.379.437.014-.052.03-.103.043-.155l.346-.294zm66.631.045v2.464c0 .778-.126 1.405-.38 1.879-.322.593-.84.889-1.55.889-.508 0-.872-.195-1.092-.584-.203-.39-.305-.872-.305-1.448 0-.474.06-.88.178-1.22.118-.338.33-.626.635-.863.305-.254.737-.483 1.295-.686a45.66 45.66 0 001.22-.431zm-99.782.076c-.05.117-.1.235-.153.35l-.174.01c.107-.122.214-.243.327-.36zm61.087.021c-.1.065-.2.132-.298.198-.195.038-.41.105-.605.158.349-.118.653-.235.903-.356zm84.429.058l-.224.182c.055-.042.113-.083.166-.127.11-.092.12-.104.058-.055zm-72.962.034a.755.755 0 01-.012.214c-.03.163-.078.32-.133.476a.921.921 0 00-.219.096c.064-.124.129-.248.186-.376.061-.136.12-.273.178-.41zm8.904.008c-.115.075-.231.147-.345.223a4.82 4.82 0 00-.403.112c-.775.258-2.435 1.66-2.587 1.835-.07.08.004.222.131.38-.09.086-.18.17-.27.258l-.026.026c.015.657.086 1.224.213 1.701.182.016.368.028.497.066.383.112.768.211 1.154.304a.663.663 0 00.148.114c-.242.198-.371.304-.192.172.072-.053.147-.103.22-.155.163.083.352.089.557.035l.111.025c.04.277.143.515.346.635l-.053.104c-.297.045-.616.096-1.026.173-.238.046-.475.1-.71.158.495.344 1.145.52 1.955.52.56 0 1.212-.118 1.952-.348l.04-.062c.203-.102.402-.21.599-.324-.05.07-.094.144-.143.216.066-.024.127-.041.194-.067v-.99a4.216 4.216 0 01-1.118.178c-.542 0-.889-.17-1.041-.508-.135-.355-.203-.948-.203-1.778v-1.526c-.178.287-.352.568-.504.824-.01-.013-.021-.023-.028-.038-.284-.2-.542-.348-.752-.626.18-.17.362-.339.546-.504l.738-.076zm41.861.115a.92.92 0 00-.018.339h-.25c.09-.112.179-.224.268-.339zm-73.956.052l.034.068-.045.036c-.012-.045-.013-.082.01-.104zm59.966.032c.003.05.005.1.011.144l-.172.033c.055-.058.108-.118.161-.177zm-6.041.289c-.245.184-.483.368-.567.569-.41.408-.595.688-.258.68.191-.003.368-.026.534-.062-.328.182-.586.425-.69.751-.052.048-.104.095-.16.149-.119.116-.043.12.117.074-.004.048-.01.094-.008.145.016.374.547.298 1.032.25zm6.145.167a.481.481 0 00.156.178c-.016.019-.03.04-.046.058-.082.095-.268.228-.437.334l.463-.088c-.24.243-.482.485-.727.723-.089.087-.18.171-.27.256l-.122-.005c.043-.06.085-.12.124-.183a3 3 0 00.25-.547c-.05.017-.065.007-.015-.047.017-.02.029-.032.046-.05a.829.829 0 01.004-.013l.01-.002c.206-.228.396-.436.564-.614zm-.565.614l-.013.015c-.011.032-.02.065-.032.097.058-.02.165-.081.283-.156l-.153.03c-.014.002-.069.01-.085.014zm-100.687-.23c-.64.562-1.284 1.122-1.927 1.682-.084-.025-.167-.05-.251-.073.352-.377.704-.755 1.053-1.136a7.58 7.58 0 00.6-.342c.177-.037.353-.078.525-.131zm-18.068.16c-.21.656-.773 1.485-.245 1.78.014.008.029.013.043.02l-.017.014c-.373.322-.536.826-.818 1.23l-.157.224a26.97 26.97 0 011.044-3.222c.05-.015.101-.027.15-.046zm133.28.164c-.08.104-.163.206-.243.31-.237.314-.57.608-.872.912l-.586.027.083-.175c.365-.183.724-.374 1.073-.585.127-.077.251-.347.18-.458l.365-.03zm-43.915.012c-.086.083-.172.167-.26.25-.252.133-.504.271-.776.346-.314.086.34-.267 1.036-.596zm-71.109.196c.073.081.154.14.242.177.03-.027.062-.055.094-.08l-.018.078-.027.02.022.008c-.061.296-.11.594-.144.895l-1.283.445a3.935 3.935 0 00-.436-.201l1.55-1.342zm.291.195c-.016-.005-.033-.01-.05-.018a3.256 3.256 0 00-.142.131c-.133.132-.003.038.192-.113zm62.17-.185l.043.006-.097.035.054-.041zm-71.75.079l-.11.201a3.395 3.395 0 00-.221.023c.015-.066.03-.132.05-.195l.281-.03zm96.73.05l-.002.005c-.14.273-.27.549-.376.834-.063.142-.13.284-.192.427a5.93 5.93 0 01-.025-.833c.205-.123.404-.27.595-.434zm-79.315.187l-.099.06.028-.042c.023-.004.047-.012.071-.018zm.24.022l-.028.037c-.063.08-.338.227-.256.167l.284-.204zm.036.195c-.288.296-.532.55-.866.896-.089.076-.18.149-.271.223.12-.17.22-.355.318-.542.27-.197.54-.394.819-.577zm21.496.671l-.045.062-.058.042c.028-.033.053-.069.08-.103h.023zm112.818.101l-.076.1-.086-.004c.016-.025.027-.047.043-.073l.119-.023zm.89.066c.08.06.13.111.06.127a1.12 1.12 0 01-.348.015c.096-.047.191-.093.288-.142zm-152.414.068l.074.006a1.52 1.52 0 00-.044.453c-.034.33-.213.766-.285 1.124a2.385 2.385 0 00-.278.273c-.056.025-.112.05-.169.071.04-.245.012-.5.024-.749l-.02.002c.24-.39.47-.784.698-1.18zm79.193.013c.034.03.07.062.103.089-.173.116-.356.226-.529.342l.426-.43zm-70.254.155l-.001.047c-.111.163-.247.347-.372.536a1.978 1.978 0 00-.357-.33l.73-.253zm101.391.33l-.026.031a.765.765 0 00-.214.257c-.642.756-1.293 1.505-1.79 2.358-.032.055-.073.118-.108.175.126-.004.251-.009.386-.009.107 0 .36.017.682.042.225-.34.515-.677.708-.984.116-.184.238-.363.362-.541zm23.66.078c-.04.05-.09.105-.154.167.018-.04.03-.083.044-.126.038-.013.074-.027.11-.041zm.859.101c-.041.077-.08.155-.122.231-.128.234-.355.426-.409.686-.02.096.144.23.23.183a9.47 9.47 0 00.81-.504 2.856 2.856 0 01-.51-.596zm-118.447.037c-.052.126-.102.256-.15.388-.236.028-.336.04-.462.057.206-.133.41-.286.612-.445zm51.262.158a5.78 5.78 0 01-.356.265l.47-.18zm72.926 0c-.44.355-.915.635-1.423.838a4.139 4.139 0 01-1.549.305c-.375 0-.717-.044-1.031-.122.018.162.024.325.021.489-.04.073-.081.147-.114.214-.772.27-1.487.516-2.15.75.563-.401 1.203-.961 1.846-1.577a2.838 2.838 0 01-.543-.274 27.933 27.933 0 01-1.833 1.676c.453.181.948.313 1.487.394l.104-.04c.612-.22 1.042-.371 1.515-.539-.018.086-.04.171-.055.258-.062.125-.123.25-.155.308l-.062.113h.056a6.168 6.168 0 003.632-1.142l.177-.45c-.15.063-.3.125-.45.19.053-.13.102-.264.154-.396l.431-.14.247-.626-.023-.017-.4.135c.046-.1.102-.204.167-.31zm-98.738.17l-.007.022-.035.006.042-.028zm-12.376.027c-.09.302-.09.645-.201.942-.058.156-.12.31-.182.465-.238.023-.476.044-.715.066.42-.607.667-.93 1.098-1.473zm93.09.148c-.417.33-.77.581-.549.334a3.45 3.45 0 01.334-.32c.065.005.14-.004.216-.014zm-96.22.106c-.009-.007-.03-.005-.068.007-.043.014-.085.032-.127.049l.083.114c.08-.087.133-.153.112-.17zm98.374.276c-.121.04-.243.078-.364.117.002-.026.013-.06.022-.092.114-.008.228-.018.342-.025zm-71.132.146c-.25.304-.513.6-.807.877l-.094.09c-.027.002-.054.001-.08.01-.223.082-.445.17-.666.26a.086.086 0 00-.023-.052c-.129-.134-.313-.157-.51-.157.346-.182.693-.364 1.037-.548l.788-.421c-.104.119-.212.234-.312.356.217-.145.441-.281.667-.415zm-6.965.105l.02.031-.046.052-.034.008.06-.091zm98.88.353v.005l-.047.007.047-.012zm-5.386.178l-.141.1.032-.079c.008-.002.02-.01.027-.011a.52.52 0 01.082-.01zm-131.11.02l-.005.03-.027.01.032-.04zm7.112.07c-.402.196-.783.444-1.183.643l-.081.04c-.19-.053-.3-.146-.353-.3l1.617-.383zm66.749.011l.02.005c.01.01.02.019.032.028l-.046.072-.056.01.05-.115zm7.487.109c-.18.27-.406.567-.467.804.125.007.272.02.467.042zm-89.121.09l.068.003-.114.053.046-.057zm116.06.194l.112.03-.172.213-.087.024.148-.267zm-76.017.046l-.071.233-.151.074-.318.071c.108-.098.214-.199.323-.296.072-.029.144-.054.217-.082zm76.333.044l.086.027-.144.04.058-.067zm-.628.026c-.06.09-.117.17-.172.243l-.168.046.34-.289zm-101.196.06a.262.262 0 01.22.059c.009.007.015.016.023.024-.08.03-.16.058-.24.09-.131 0-.252 0-.36-.004.123-.08.245-.153.357-.17z" aria-label="1nzelzeitfahren" font-weight="700" font-size="25.4" font-family="Optima" letter-spacing="0" word-spacing="0" fill="#fff" stroke-width=".265"/><g style="line-height:1.25;-inkscape-font-specification:'Optima, Bold';font-variant-ligatures:normal;font-variant-caps:normal;font-variant-numeric:normal;text-align:start" aria-label="Training" font-weight="700" font-size="25.4" font-family="Optima" letter-spacing="0" word-spacing="0" fill="#de002e" stroke-width=".265"><path d="M147.379 20.069l2.353 5.416q-.15.066-.25.099-.395.13-.43.144-.15.065-.38.186-.226.13-.262.145l-2.352-5.416q-.467.202-.804.39-.332.176-.781.444-.036-.13-.065-.222-.025-.105-.055-.175-.054-.124-.11-.204-.06-.09-.095-.147l4.536-1.97q.036.13.06.235.03.092.056.154.058.132.117.221.056.08.092.138-.677.2-.813.249-.412.137-.817.313zM152.089 24.462l-1.856-4.272q.158-.048.35-.11.198-.076.277-.11.194-.084.345-.17.15-.087.244-.138l.474 1.092q-.078-.615.099-1.027.22-.504.828-.768.073.24.214.588.136.338.262.629l-.048.105q-.106-.027-.241 0t-.258.08q-.3.13-.451.385-.146.241-.107.549.007.112.07.283.06.163.156.383l.165.378.692 1.595q-.157.047-.227.078-.32.107-.4.142-.193.084-.344.17-.151.087-.244.138zM156.89 20.65l-.372-.855q-.222.211-.358.333-.244.232-.346.433-.105.192-.09.395t.122.45q.13.3.324.456.202.153.467.038.37-.16.403-.542.025-.304-.15-.709zm.469-2.246l1.04 2.395q.107.247.234.297.13.037.395-.078l.088.203q-.133.152-.336.334-.195.18-.353.248-.3.13-.61.066-.306-.077-.542-.33-.042.384-.269.682-.226.297-.579.45-.563.245-1.024.1-.5-.16-.74-.715-.26-.6.001-1.058.214-.376 1.025-.99.18-.14.288-.23.167-.145.256-.278.04-.101.032-.192 0-.095-.05-.209-.133-.308-.497-.423-.359-.126-.676.011-.378.165-.639.53-.214.302-.198.483l-.062.027-.344-.479q.177-.412.553-.753.38-.353.82-.545.661-.287 1.221-.226.702.072.966.68zM159.942 21.05l-1.855-4.271q.157-.048.35-.11.198-.076.277-.11.194-.084.345-.171.15-.086.243-.137l1.856 4.271q-.157.048-.228.078-.32.108-.399.142-.194.084-.345.171-.15.086-.244.137zm-2.643-5.845q-.119-.273-.008-.572.11-.3.393-.422.281-.123.58-.012.3.111.426.402.123.281.003.585-.114.29-.405.416-.29.127-.581.012-.286-.127-.408-.409zM162.253 20.047l-1.855-4.272q.148-.044.332-.103.189-.071.277-.11.194-.083.327-.162.142-.083.235-.134l.283.652q.145-.461.373-.78.27-.368.666-.54.784-.34 1.32.002.462.292.84 1.164l1.121 2.58q-.157.048-.227.078-.32.108-.4.142-.193.084-.344.17-.15.087-.244.138l-.953-2.193q-.31-.713-.563-.96-.343-.332-.775-.144-.502.218-.417.872.049.377.34 1.046l.88 2.026q-.158.047-.228.078-.32.107-.4.142-.193.084-.344.17-.15.087-.244.138zM167.288 17.86l-1.856-4.272q.158-.047.35-.11.198-.075.277-.11.194-.084.345-.17.15-.087.244-.138l1.855 4.272q-.157.047-.227.078-.32.107-.4.142-.193.084-.344.17-.151.087-.244.138zm-2.644-5.845q-.118-.274-.008-.573.111-.3.393-.422.282-.122.581-.011.3.11.426.401.122.282.003.585-.115.29-.405.417-.291.126-.582.012-.285-.128-.408-.41zM169.599 16.856l-1.856-4.272q.149-.043.332-.102.19-.072.277-.11.194-.084.327-.163.142-.083.236-.133l.283.651q.145-.46.373-.78.27-.368.665-.54.784-.34 1.32.003.462.291.841 1.163l1.12 2.58q-.156.048-.227.079-.32.107-.399.142-.194.084-.345.17-.15.087-.244.138l-.952-2.193q-.31-.714-.563-.96-.344-.332-.775-.145-.502.218-.417.872.048.377.34 1.046l.879 2.026q-.157.048-.228.078-.32.108-.399.142-.194.084-.345.17-.15.087-.243.138zM175.364 15.074q0 .073.03.165.03.092.068.18.21.485.686.592.43.096.922-.118.476-.207.645-.636.182-.425.014-.812-.241-.555-.726-.564-.306-.004-.949.276-.387.168-.538.328-.214.229-.152.59zm1.01-6.302l.168.41-.804.317q.639.194.895.784.31.713-.054 1.322-.34.566-1.177.93l-.15.065q-.176.076-.207.173-.035.089-.038.153.005.06.028.113.107.247.35.277.24.022.566-.12l.77-.302q.686-.299 1.141-.12.404.16.638.697.394.908-.107 1.732-.444.737-1.395 1.15-.678.295-1.248.26-.742-.044-1.013-.67-.153-.352-.07-.691.082-.34.363-.609l.098-.136-.092-.044q-.497.038-.715-.464-.122-.282-.017-.642.11-.373.322-.537l.116-.093q-1.233.222-1.73-.923-.306-.705.076-1.248.387-.555 1.311-.957l.91-.364zm-2.064 2.646q.222.51.504.702.24.168.496.057.36-.157.305-.646-.031-.29-.242-.774-.168-.388-.363-.596-.293-.313-.61-.175-.37.16-.323.654.026.302.233.778z"/></g><path d="M140.622 21.709l3.013 6.935c1.205 2.774 2.2 3.167 4.973 1.962l31.209-13.556c2.774-1.205 3.166-2.2 1.961-4.974l-3.012-6.935c-1.205-2.774-2.2-3.166-4.974-1.961l-31.208 13.555c-2.774 1.205-3.167 2.2-1.962 4.974" fill="none" stroke="#de002e" stroke-width="1.626"/><path d="M138.686 21.556l3.763 8.663c1.505 3.465 2.635 4.004 5.646 2.696l33.88-14.716c3.011-1.308 3.388-2.501 1.883-5.966l-3.763-8.663C178.59.104 177.46-.435 174.449.873l-33.88 14.716c-3.011 1.308-3.388 2.501-1.883 5.967" fill="none" stroke="#de002e" stroke-width=".44"/></svg>